<svg id="Capa_1" data-name="Capa 1" xmlns="http://www.w3.org/2000/svg" viewBox="0 0 141.73 141.73"><defs><style>.cls-1{fill:#7faddc;}.cls-2{fill:#4768ad;}.cls-3{fill:#3e4b89;}.cls-4{fill:#9bc7eb;}.cls-5{fill:#b6e1f8;}.cls-6{fill:#73bbe7;}.cls-7{fill:#8187ae;}.cls-8{fill:#6b4997;}.cls-9{fill:#2f305a;}.cls-10{fill:#7a59a1;}.cls-11{fill:#b2d7ee;}.cls-12{fill:#92cceb;}</style></defs><path class="cls-1" d="M43,93.66,21.62,108.2a.92.92,0,0,0,.15,1.66l60.29,25.2a2.41,2.41,0,0,0,2.09-.18l22-15c1.15-.8-.5-1.5-.5-1.5L45.7,93.34A3,3,0,0,0,43,93.66Z"/><path class="cls-2" d="M21.77,112.52l60.29,25.2a2.24,2.24,0,0,0,1.57,0v-2.65a2.25,2.25,0,0,1-1.57-.05l-60.29-25.2c-.54-.32-.66-.65-.61-.94v2.72A1,1,0,0,0,21.77,112.52Z"/><path class="cls-3" d="M106.14,122.57l-22,15a2.65,2.65,0,0,1-.71.29v-2.66a2.46,2.46,0,0,0,.71-.28l22-15a.78.78,0,0,0,.41-.56v2S106.61,122.25,106.14,122.57Z"/><path class="cls-4" d="M91.65,119.32c-.11.06-.13.14,0,.18l2.35,1a.42.42,0,0,0,.34,0L96.56,119c.1-.06,0-.17,0-.21l-2.31-1a.42.42,0,0,0-.34,0Z"/><path class="cls-4" d="M88.32,117.94c-.1.06-.12.13,0,.17l2.36,1a.42.42,0,0,0,.34,0l2.25-1.52c.11-.06.06-.17,0-.2l-2.3-1a.5.5,0,0,0-.35,0Z"/><path class="cls-4" d="M85,116.55c-.1.06-.12.14,0,.17l2.35,1a.44.44,0,0,0,.35,0l2.25-1.52c.11-.06.06-.17,0-.2l-2.3-1a.5.5,0,0,0-.35,0Z"/><path class="cls-4" d="M81.68,115.16c-.11.06-.13.14,0,.17l2.35,1a.5.5,0,0,0,.35,0l2.25-1.51c.11-.07,0-.17,0-.21l-2.31-1a.42.42,0,0,0-.34,0Z"/><path class="cls-4" d="M78.36,113.77c-.11.06-.13.14,0,.18l2.35,1a.5.5,0,0,0,.35,0l2.25-1.51c.1-.06,0-.17,0-.21l-2.31-1a.42.42,0,0,0-.34,0Z"/><path class="cls-4" d="M75,112.38c-.11.07-.13.14-.05.18l2.36,1a.39.39,0,0,0,.34,0L79.94,112c.11-.06.06-.17,0-.2l-2.31-1a.42.42,0,0,0-.34,0Z"/><path class="cls-4" d="M71.71,111c-.1.06-.12.13,0,.17l2.36,1a.42.42,0,0,0,.34,0l2.25-1.52c.11-.06.06-.17,0-.2l-2.3-1a.5.5,0,0,0-.35,0Z"/><path class="cls-4" d="M68.39,109.61c-.11.06-.12.14,0,.17l2.35,1a.44.44,0,0,0,.35,0l2.25-1.52c.11-.06.06-.17,0-.2l-2.31-1a.48.48,0,0,0-.34,0Z"/><path class="cls-4" d="M65.07,108.22c-.11.06-.13.14,0,.17l2.35,1a.5.5,0,0,0,.35,0L70,107.87c.11-.06,0-.16,0-.2l-2.31-1a.42.42,0,0,0-.34,0Z"/><path class="cls-4" d="M61.75,106.83c-.11.06-.13.14,0,.18l2.35,1a.47.47,0,0,0,.34,0l2.26-1.51c.1-.06,0-.17,0-.21l-2.31-1a.42.42,0,0,0-.34,0Z"/><path class="cls-4" d="M58.42,105.44c-.1.06-.12.14,0,.18l2.36,1a.42.42,0,0,0,.34,0l2.25-1.52c.11-.06.06-.17,0-.2l-2.31-1a.45.45,0,0,0-.35,0Z"/><path class="cls-4" d="M55.1,104.06c-.1.06-.12.13,0,.17l2.36,1a.42.42,0,0,0,.34,0L60,103.71c.11-.06.06-.17,0-.2l-2.3-1a.5.5,0,0,0-.35,0Z"/><path class="cls-4" d="M51.78,102.67c-.11.06-.12.14,0,.17l2.35,1a.5.5,0,0,0,.35,0l2.25-1.52c.11-.06.06-.17,0-.2l-2.31-1a.48.48,0,0,0-.34,0Z"/><path class="cls-4" d="M48.46,101.28c-.11.06-.13.14,0,.17l2.35,1a.5.5,0,0,0,.35,0l2.25-1.51c.1-.07.05-.17,0-.21l-2.31-1a.42.42,0,0,0-.34,0Z"/><path class="cls-4" d="M45.14,99.89c-.11.06-.13.14,0,.18l2.35,1a.47.47,0,0,0,.34,0l2.26-1.51c.1-.06.05-.17,0-.21l-2.31-1a.42.42,0,0,0-.34,0Z"/><path class="cls-4" d="M77.68,128.72c-.1.06-.12.13,0,.17l2.36,1a.42.42,0,0,0,.34,0l2.25-1.52c.11-.06.06-.17,0-.2l-2.3-1a.5.5,0,0,0-.35,0Z"/><path class="cls-4" d="M74.36,127.33c-.11.06-.12.14,0,.17l2.35,1a.44.44,0,0,0,.35,0L79.27,127c.11-.06.06-.16,0-.2l-2.31-1a.48.48,0,0,0-.34,0Z"/><path class="cls-4" d="M71,125.94c-.11.06-.13.14,0,.18l2.35,1a.5.5,0,0,0,.35,0L76,125.6c.1-.06,0-.17,0-.21l-2.31-1a.42.42,0,0,0-.34,0Z"/><path class="cls-4" d="M67.72,124.55c-.11.06-.13.14,0,.18l2.35,1a.39.39,0,0,0,.34,0l2.26-1.51c.1-.06.05-.17,0-.21l-2.31-1a.42.42,0,0,0-.34,0Z"/><path class="cls-4" d="M44.53,114.84c-.11.06-.13.14,0,.17l22.22,9.37a.42.42,0,0,0,.34,0l2.25-1.52c.11-.06.06-.17,0-.2L47.1,113.31a.47.47,0,0,0-.34,0Z"/><path class="cls-4" d="M41.14,113.45c-.11.06-.13.14,0,.17l2.35,1a.5.5,0,0,0,.35,0l2.25-1.52c.1,0,.05-.16,0-.2l-2.31-1a.48.48,0,0,0-.34,0Z"/><path class="cls-4" d="M37.82,112.06c-.11.06-.13.14,0,.18l2.35,1a.5.5,0,0,0,.35,0l2.25-1.51c.1-.06.05-.17,0-.21l-2.31-1a.42.42,0,0,0-.34,0Z"/><path class="cls-4" d="M34.49,110.67c-.1.06-.12.14,0,.18l2.36,1a.46.46,0,0,0,.34,0l2.26-1.52c.1-.06.05-.17,0-.2l-2.31-1a.45.45,0,0,0-.35,0Z"/><path class="cls-4" d="M31.17,109.29c-.1.06-.12.13,0,.17l2.36,1a.42.42,0,0,0,.34,0l2.25-1.52c.11-.06.06-.17,0-.2l-2.3-1a.5.5,0,0,0-.35,0Z"/><path class="cls-4" d="M90.18,122.47c-.11.06-.12.14,0,.18l2.35,1a.5.5,0,0,0,.35,0l2.25-1.51c.11-.06.06-.17,0-.21l-2.31-1a.42.42,0,0,0-.34,0Z"/><path class="cls-4" d="M86.86,121.08c-.11.06-.13.14,0,.18l2.35,1a.41.41,0,0,0,.35,0l2.25-1.51c.1-.06,0-.17,0-.21l-2.31-1a.42.42,0,0,0-.34,0Z"/><path class="cls-4" d="M83.54,119.7c-.11.06-.13.13,0,.17l2.35,1a.42.42,0,0,0,.34,0l2.26-1.52c.1-.06,0-.17,0-.2l-2.31-1a.47.47,0,0,0-.34,0Z"/><path class="cls-4" d="M80.21,118.31c-.1.06-.12.14,0,.17l2.36,1a.42.42,0,0,0,.34,0L85.12,118c.11-.06.06-.17,0-.2l-2.31-1a.46.46,0,0,0-.34,0Z"/><path class="cls-4" d="M76.89,116.92c-.1.06-.12.14,0,.17l2.36,1a.48.48,0,0,0,.34,0l2.25-1.52c.11-.06.06-.16,0-.2l-2.3-1a.5.5,0,0,0-.35,0Z"/><path class="cls-4" d="M73.57,115.53c-.11.06-.13.14,0,.18l2.35,1a.5.5,0,0,0,.35,0l2.25-1.51c.11-.06.06-.17,0-.21l-2.31-1a.42.42,0,0,0-.34,0Z"/><path class="cls-4" d="M70.25,114.14c-.11.06-.13.14,0,.18l2.35,1a.41.41,0,0,0,.35,0l2.25-1.51c.1-.06,0-.17,0-.21l-2.31-1a.42.42,0,0,0-.34,0Z"/><path class="cls-4" d="M66.93,112.76c-.11.06-.13.13,0,.17l2.35,1a.42.42,0,0,0,.34,0l2.26-1.52c.1-.06,0-.17,0-.2l-2.31-1a.47.47,0,0,0-.34,0Z"/><path class="cls-4" d="M63.6,111.37c-.1.06-.12.14,0,.17l2.36,1a.42.42,0,0,0,.34,0L68.51,111c.11-.06.06-.17,0-.2l-2.31-1a.46.46,0,0,0-.34,0Z"/><path class="cls-4" d="M60.28,110c-.11.06-.12.14,0,.17l2.36,1a.42.42,0,0,0,.34,0l2.25-1.51c.11-.07.06-.17,0-.21l-2.3-1a.44.44,0,0,0-.35,0Z"/><path class="cls-4" d="M57,108.59c-.11.06-.13.14,0,.18l2.35,1a.5.5,0,0,0,.35,0l2.25-1.51c.11-.06.06-.17,0-.21l-2.31-1a.42.42,0,0,0-.34,0Z"/><path class="cls-4" d="M53.64,107.2c-.11.06-.13.14,0,.18l2.35,1a.39.39,0,0,0,.34,0l2.26-1.51c.1-.06.05-.17,0-.2l-2.31-1a.42.42,0,0,0-.34,0Z"/><path class="cls-4" d="M50.31,105.82c-.1.06-.12.13,0,.17l2.36,1a.42.42,0,0,0,.34,0l2.26-1.52c.1-.06.05-.17,0-.2l-2.31-1a.47.47,0,0,0-.34,0Z"/><path class="cls-4" d="M47,104.43c-.1.06-.12.14,0,.17l2.36,1a.42.42,0,0,0,.34,0l2.25-1.52c.11-.06.06-.17,0-.2l-2.3-1a.5.5,0,0,0-.35,0Z"/><path class="cls-4" d="M43.67,103c-.11.06-.12.14,0,.18l2.35,1a.5.5,0,0,0,.35-.05l2.25-1.51c.11-.07.06-.17,0-.21l-2.31-1a.48.48,0,0,0-.34,0Z"/><path class="cls-4" d="M40.36,101.65c-.11.06-.13.14,0,.18l2.35,1a.5.5,0,0,0,.35-.05l2.25-1.51c.11-.06,0-.17,0-.21l-2.31-1a.42.42,0,0,0-.34,0Z"/><path class="cls-4" d="M82.66,127c-.1.06-.12.14,0,.17l2.35,1a.44.44,0,0,0,.35,0l2.25-1.52c.11-.06.06-.17,0-.2l-2.31-1a.48.48,0,0,0-.34,0Z"/><path class="cls-4" d="M79.34,125.57c-.11.06-.13.14,0,.17l2.35,1a.44.44,0,0,0,.35,0l2.25-1.52c.1-.06,0-.16,0-.2l-2.31-1a.48.48,0,0,0-.34,0Z"/><path class="cls-4" d="M76,124.18c-.11.06-.13.14,0,.18l2.36,1a.47.47,0,0,0,.34-.05l2.26-1.51c.1-.07,0-.17,0-.21l-2.31-1a.42.42,0,0,0-.34,0Z"/><path class="cls-4" d="M72.69,122.79c-.1.06-.12.14,0,.18L75,124a.43.43,0,0,0,.34-.05l2.26-1.51c.1-.06,0-.17,0-.2l-2.31-1a.41.41,0,0,0-.35,0Z"/><path class="cls-4" d="M69.37,121.41c-.11.06-.12.13,0,.17l2.36,1a.42.42,0,0,0,.34,0l2.25-1.52c.11-.06.06-.17,0-.2l-2.3-1a.5.5,0,0,0-.35.05Z"/><path class="cls-4" d="M66.05,120c-.11.06-.12.14,0,.17l2.35,1a.44.44,0,0,0,.35,0L71,119.67c.11-.06.06-.17,0-.2l-2.31-1a.48.48,0,0,0-.34.05Z"/><path class="cls-4" d="M62.73,118.63c-.11.06-.13.14,0,.18l2.35,1a.45.45,0,0,0,.35,0l2.25-1.52c.1-.06,0-.16,0-.2l-2.31-1a.42.42,0,0,0-.34,0Z"/><path class="cls-4" d="M59.41,117.24c-.11.06-.13.14,0,.18l2.36,1a.47.47,0,0,0,.34,0l2.26-1.51c.1-.06.05-.17,0-.21l-2.31-1a.42.42,0,0,0-.34,0Z"/><path class="cls-4" d="M56.08,115.85c-.1.06-.12.14,0,.18l2.36,1a.42.42,0,0,0,.34,0L61,115.51c.11-.06.06-.17,0-.2l-2.3-1a.44.44,0,0,0-.35,0Z"/><path class="cls-4" d="M52.76,114.47c-.11.06-.12.13,0,.17l2.36,1a.42.42,0,0,0,.34,0l2.25-1.52c.11-.06.06-.17,0-.2l-2.31-1a.48.48,0,0,0-.34,0Z"/><path class="cls-4" d="M49.44,113.08c-.11.06-.13.14,0,.17l2.35,1a.44.44,0,0,0,.35,0l2.25-1.52c.11-.06,0-.17,0-.2l-2.31-1a.48.48,0,0,0-.34,0Z"/><path class="cls-4" d="M46.12,111.69c-.11.06-.13.14,0,.17l2.35,1a.47.47,0,0,0,.34,0L51,111.34c.1-.06,0-.16,0-.2l-2.31-1a.42.42,0,0,0-.34,0Z"/><path class="cls-4" d="M42.79,110.3c-.1.06-.12.14,0,.18l2.36,1a.47.47,0,0,0,.34,0L47.7,110c.11-.06.06-.17,0-.21l-2.31-1a.42.42,0,0,0-.34,0Z"/><path class="cls-4" d="M39.47,108.91c-.1.06-.12.14,0,.18l2.36,1a.42.42,0,0,0,.34,0l2.25-1.52c.11-.06.06-.17,0-.2l-2.3-1a.44.44,0,0,0-.35,0Z"/><path class="cls-4" d="M36.15,107.53c-.1.06-.12.13,0,.17l2.35,1a.44.44,0,0,0,.35,0l2.25-1.52c.11-.06.06-.17,0-.2l-2.3-1a.5.5,0,0,0-.35,0Z"/><path class="cls-4" d="M32.84,106.14c-.11.06-.12.14,0,.17l2.35,1a.44.44,0,0,0,.35,0l2.25-1.52c.11-.06,0-.16,0-.2l-2.31-1a.48.48,0,0,0-.34,0Z"/><path class="cls-4" d="M86,124.55c-.1.06-.12.14,0,.18l2.36,1a.39.39,0,0,0,.34,0l2.25-1.51c.11-.06.06-.17,0-.21l-2.3-1a.44.44,0,0,0-.35,0Z"/><path class="cls-4" d="M82.66,123.17c-.1.06-.12.13,0,.17l2.35,1a.44.44,0,0,0,.35,0l2.25-1.52c.11-.06.06-.17,0-.2l-2.31-1a.43.43,0,0,0-.34,0Z"/><path class="cls-4" d="M79.34,121.78c-.11.06-.13.14,0,.17l2.35,1a.44.44,0,0,0,.35,0l2.25-1.52c.1-.06,0-.17,0-.2l-2.31-1a.48.48,0,0,0-.34,0Z"/><path class="cls-4" d="M76,120.39c-.11.06-.13.14,0,.17l2.36,1a.47.47,0,0,0,.34,0L80.93,120c.1-.06,0-.16,0-.2l-2.31-1a.47.47,0,0,0-.34,0Z"/><path class="cls-4" d="M72.69,119c-.1.06-.12.14,0,.18l2.36,1a.47.47,0,0,0,.34,0l2.26-1.51c.1-.06,0-.17,0-.21l-2.31-1a.44.44,0,0,0-.35,0Z"/><path class="cls-4" d="M69.37,117.61c-.11.06-.12.14,0,.18l2.36,1a.43.43,0,0,0,.34,0l2.25-1.51c.11-.06.06-.17,0-.2l-2.3-1a.44.44,0,0,0-.35,0Z"/><path class="cls-4" d="M66.05,116.23c-.11.06-.12.13,0,.17l2.35,1a.44.44,0,0,0,.35,0L71,115.88c.11-.06.06-.17,0-.2l-2.31-1a.48.48,0,0,0-.34,0Z"/><path class="cls-4" d="M62.73,114.84c-.11.06-.13.14,0,.17l2.35,1a.45.45,0,0,0,.35,0l2.25-1.52c.1-.06,0-.17,0-.2l-2.31-1a.48.48,0,0,0-.34,0Z"/><path class="cls-4" d="M59.41,113.45c-.11.06-.13.14,0,.17l2.36,1a.47.47,0,0,0,.34,0l2.26-1.52c.1,0,.05-.16,0-.2l-2.31-1a.47.47,0,0,0-.34,0Z"/><path class="cls-4" d="M56.08,112.06c-.1.06-.12.14,0,.18l2.36,1a.47.47,0,0,0,.34,0L61,111.72c.11-.06.06-.17,0-.21l-2.3-1a.44.44,0,0,0-.35,0Z"/><path class="cls-4" d="M52.76,110.67c-.11.06-.12.14,0,.18l2.36,1a.47.47,0,0,0,.34,0l2.25-1.52c.11-.06.06-.17,0-.2l-2.31-1a.42.42,0,0,0-.34,0Z"/><path class="cls-4" d="M49.44,109.29c-.11.06-.13.13,0,.17l2.35,1a.44.44,0,0,0,.35,0l2.25-1.52c.11-.06,0-.17,0-.2l-2.31-1a.48.48,0,0,0-.34,0Z"/><path class="cls-4" d="M46.12,107.9c-.11.06-.13.14,0,.17l2.35,1a.42.42,0,0,0,.34,0L51,107.55c.1-.06,0-.17,0-.2l-2.31-1a.47.47,0,0,0-.34,0Z"/><path class="cls-4" d="M42.79,106.51c-.1.06-.12.14,0,.18l2.36,1a.47.47,0,0,0,.34,0l2.25-1.52c.11-.06.06-.16,0-.2l-2.31-1a.46.46,0,0,0-.34,0Z"/><path class="cls-4" d="M39.47,105.12c-.1.06-.12.14,0,.18l2.36,1a.47.47,0,0,0,.34,0l2.25-1.51c.11-.06.06-.17,0-.21l-2.3-1a.44.44,0,0,0-.35,0Z"/><path class="cls-4" d="M36.16,103.73c-.11.06-.12.14,0,.18l2.36,1a.42.42,0,0,0,.34,0l2.25-1.52c.11-.06.06-.17,0-.21l-2.31-1a.42.42,0,0,0-.34,0Z"/><path class="cls-5" d="M122.33,102.54,47.89,68.63c-4.72-2-4.08-7.53-4.08-7.53V8.37c0-5.46,5.63-3.63,5.63-3.63l75,31.51a10.1,10.1,0,0,1,6.19,8.18V97.27a3.81,3.81,0,0,1-1.63,3.1,19.22,19.22,0,0,1-4.3,2.33,6,6,0,0,1-2.37-.16"/><path class="cls-5" d="M50.18,4.28s-3.64-2.2-8,3.35l.53,52.2s-.65,5.55,4.07,7.53l1,.43A7.75,7.75,0,0,0,49,68.5l74.44,33.91a6,6,0,0,0,2.37.16,19.23,19.23,0,0,0,4.31-2.34,3.81,3.81,0,0,0,1.63-3.09V44.3a10.12,10.12,0,0,0-6.19-8.19L50.18,4.28"/><path class="cls-6" d="M122,45.17v56.57l1.47.67a6,6,0,0,0,2.37.16,19.23,19.23,0,0,0,4.31-2.34,3.81,3.81,0,0,0,1.63-3.09V44.3a10.22,10.22,0,0,0-1.7-4.57L122,45.17"/><path class="cls-5" d="M74,85.63,61.09,94.37a.45.45,0,0,0,.07.8L88,106.39a1.17,1.17,0,0,0,1-.09l13.25-8.94c.55-.38-.24-.72-.24-.72L75.34,85.48A1.43,1.43,0,0,0,74,85.63Z"/><path class="cls-3" d="M102.26,98.87,89,107.81a1.21,1.21,0,0,1-.49.16v-1.51a1.21,1.21,0,0,0,.49-.16l13.25-8.94a.41.41,0,0,0,.2-.27v1.35A.65.65,0,0,1,102.26,98.87Z"/><polygon class="cls-7" points="60.89 94.64 60.89 94.64 60.87 94.68 60.89 94.64"/><path class="cls-2" d="M61,96.63,88,107.9a1,1,0,0,0,.59.06v-1.51a1,1,0,0,1-.59-.06L61.16,95.17c-.28-.16-.32-.34-.29-.48v1.68A.24.24,0,0,0,61,96.63Z"/><polyline class="cls-8" points="125.41 99.68 125.43 43.13 45.3 9.45 45.3 66.52 125.41 99.68"/><path class="cls-9" d="M73,93.79V81.64l14.49,6.09v11.4s-2.6,1.71-8.65-.31C78.79,98.82,73.53,97.38,73,93.79Z"/><path class="cls-3" d="M87.44,99.13s2.89-.69,3.8-3V89.33l-3.8-1.6Z"/><polyline class="cls-10" points="125.43 43.13 125.41 99.68 45.3 66.52 125.43 43.13"/><path class="cls-9" d="M128.34,46.18A10.1,10.1,0,0,0,122.15,38l-75-31.51s-5.58-1.83-5.63,3.62V62.85s-.64,5.54,4.08,7.53l76.9,32.29s5.53,1.39,5.85-4.22Z"/><path class="cls-11" d="M124.37,48.19a8.82,8.82,0,0,0-5.4-7.14L48.77,11.63S43.9,10,43.86,14.8v46s-.56,4.85,3.56,6.58l71.85,30.1s4.83,1.22,5.11-3.68Z"/><path class="cls-11" d="M15.47,94.69a8.74,8.74,0,0,0-5.41,6c-.35,1.5.19,4.16,1.48,5.18a7.24,7.24,0,0,0,5,1.49c1.39-.14,2-1,2.75-2,1.74-2.43,4.15-1.68,6.41-3.08,3-1.88,2-5.38-.13-6.89A10.83,10.83,0,0,0,15.47,94.69Z"/><path class="cls-12" d="M10.06,100.71a8.74,8.74,0,0,1,5.41-6,10.83,10.83,0,0,1,10.11.7c2.17,1.51,3.15,5,.13,6.89a7.89,7.89,0,0,1-2.25.88A7.44,7.44,0,0,0,21,99.39a.3.3,0,0,0-.15,0c-1.61-1.38-3.81-2.73-5.93-2-1.53.52-3.64,2.48-3.74,4.19-.12,2.24,1.81,3.57,3.65,4.39a9.81,9.81,0,0,0,3.18.87,2.79,2.79,0,0,1-1.5.58,7.24,7.24,0,0,1-5-1.49C10.25,104.87,9.71,102.21,10.06,100.71Z"/><path class="cls-2" d="M14.52,95.14c.31-.16.63-.32,1-.45a10.83,10.83,0,0,1,10.11.7c2.17,1.51,3.15,5,.13,6.89a9.24,9.24,0,0,1-3,1C21.92,99.4,18.32,96.57,14.52,95.14Z"/><path class="cls-1" d="M18.09,97a17.49,17.49,0,0,0-3.57-1.84c.31-.16.63-.32,1-.45A11.06,11.06,0,0,1,24.9,95,14.9,14.9,0,0,0,18.09,97Z"/><path class="cls-1" d="M25.61,95.41c2.15,1.51,3.11,5,.1,6.87a9.24,9.24,0,0,1-3,1,10.2,10.2,0,0,0-4.21-6A14.34,14.34,0,0,1,25.61,95.41Z"/><path class="cls-2" d="M11.15,104.32A5.92,5.92,0,0,0,15,106.16a4.38,4.38,0,0,0,3.61-1.92,6.19,6.19,0,0,1,3.77-2.32,8.07,8.07,0,0,0,3.38-1,3.08,3.08,0,0,0,.8-3.29,6.9,6.9,0,0,0-1.27-2.43l.28.17c2.16,1.51,3.14,5,.12,6.89-2.26,1.4-4.67.65-6.41,3.08-.76,1.06-1.35,1.88-2.75,2a7.24,7.24,0,0,1-5-1.49A5.33,5.33,0,0,1,10,102.41,5.45,5.45,0,0,0,11.15,104.32Z"/></svg>