<svg id="圖層_1" data-name="圖層 1" xmlns="http://www.w3.org/2000/svg" viewBox="0 0 226.77 226.77"><defs><style>.cls-1{fill:#eebc34;}.cls-2{fill:#f3d140;}.cls-3{fill:#f0e346;}.cls-4{fill:#f8c985;}.cls-5{fill:#fbddb0;}.cls-6{fill:#556f79;}</style></defs><path class="cls-1" d="M134,103.2a51.11,51.11,0,0,1-5.55-.78,30.54,30.54,0,0,0,3.47,8.49,1.52,1.52,0,0,1,.73,1.19,30.11,30.11,0,0,0,3.35,4.2A21.31,21.31,0,0,1,134,103.2Z"/><path class="cls-1" d="M132.82,118.26a46.62,46.62,0,0,0,1.47,8.17,1.46,1.46,0,0,1,.29,1,46.39,46.39,0,0,0,1.63,4.49,27,27,0,0,1,2.29-8.62A34,34,0,0,1,132.82,118.26Z"/><path class="cls-1" d="M80.9,86.34a17.52,17.52,0,0,0,8.81,4.24,30.13,30.13,0,0,1-3.38-3.75A10,10,0,0,1,80.9,86.34Z"/><path class="cls-2" d="M70,101.56a9.47,9.47,0,0,0,.69,3.68.93.93,0,0,1,1,.24,5.93,5.93,0,0,0,3.1,1.64,2.24,2.24,0,0,1,.29.08c.2-.74.37-1.43.57-2.17A11,11,0,0,1,70,101.56Z"/><path class="cls-3" d="M137.31,69.4c.66,1,1.07,2.73,1.8,4.24a1.78,1.78,0,0,1,1.76-1.71,16.75,16.75,0,0,1,4.08.28,24.21,24.21,0,0,0-15-11.92A24.52,24.52,0,0,0,113.35,62C122.13,58.94,132.33,61.23,137.31,69.4Z"/><path class="cls-3" d="M83.55,65.31a24.77,24.77,0,0,1,2-3.26c-4.94-.41-10.45,1.14-13.23,5.51a10,10,0,0,0-.73,10A11.68,11.68,0,0,1,83.55,65.31Z"/><path class="cls-2" d="M160.58,149.9c5-1.18,6.54-6.57,6.7-11.1A49.24,49.24,0,0,0,166,126.1c-.4.53-.81,1-1.26,1.51-1.63,1.71-4.21-.86-2.61-2.61,7.92-8.41,3-20-3-28.17-.93,1.92-4.2.94-3.42-1.23a14.92,14.92,0,0,0-14.78-20,1.69,1.69,0,0,1-1.76-2c-.77-1.51-1.14-3.27-1.79-4.24-5-8.17-15.19-10.46-24-7.43a23,23,0,0,0-5,3.22c-1.8,1.51-4.41-1.06-2.61-2.61.28-.21.53-.45.81-.66A12.36,12.36,0,0,0,96,63.8c-1.06.78-2.08-1-1-1.75a9.14,9.14,0,0,1,1.39-.86,17,17,0,0,0-6.82,1.71,17.51,17.51,0,0,0-3.35,5.35c-.85,2.17-4.41,1.23-3.55-1,.29-.65.57-1.3.9-2A11.68,11.68,0,0,0,71.59,77.6a9,9,0,0,0,2.2,2.69c1.8,1.56-.81,4.13-2.61,2.62a5.61,5.61,0,0,1-.86-.82,33.53,33.53,0,0,0-1.63,30.37.17.17,0,0,1,0,.13,25.47,25.47,0,0,1,2-5.23,4.73,4.73,0,0,1-.53-.49,1,1,0,0,1,.41-1.67,9.56,9.56,0,0,1-.7-3.68,12.09,12.09,0,0,1-2-3.22c-.49-1.23,1.47-1.76,2-.53a8.47,8.47,0,0,0,2,2.86c-1.22-2.41-.85-5.27-.12-7.92a12.52,12.52,0,0,1-.2-3.72c.12-1.31,2.16-1.31,2,0a11,11,0,0,0,1.51,6.78,12.09,12.09,0,0,1,1.14-9.15L75.71,86c-1.43-1.88,1.76-3.71,3.19-1.84a16.44,16.44,0,0,0,2,2.17,10.34,10.34,0,0,0,5.43.45l-.41-.53c-1.39-1.92,1.79-3.76,3.18-1.84a22.21,22.21,0,0,0,4.94,5,20.84,20.84,0,0,0,10.9.82,43.31,43.31,0,0,1-3.47-3.68c-1.51-1.79,1.06-4.41,2.61-2.61A43.89,43.89,0,0,0,135.72,99.6c2.37.09,2.37,3.76,0,3.68l-1.75-.12a21.31,21.31,0,0,0,2,13.14,31.84,31.84,0,0,0,5,4.29c2,1.3.12,4.49-1.84,3.18l-.73-.49a27.81,27.81,0,0,0-2.29,8.62A50,50,0,0,0,140,139c1.3,2-1.88,3.84-3.19,1.84-.45-.66-.85-1.35-1.26-2a8.63,8.63,0,0,0,.12,5.63c2.25,6.78,5.55,17-.33,22.41-.08.21-.2.41-.28.61A15.69,15.69,0,0,0,151.28,158c.94-2.16,4.12-.28,3.18,1.84a17.47,17.47,0,0,1-3.27,5,15.17,15.17,0,0,0,9.76-3.75,11.55,11.55,0,0,0,3.76-9,12.5,12.5,0,0,1-3.19,1.27C159.24,154,158.26,150.43,160.58,149.9Zm-82-68.46A10.94,10.94,0,0,1,76.65,67.6c.69-1.1,2.45-.08,1.76,1A8.85,8.85,0,0,0,80,80C81,80.87,79.55,82.3,78.57,81.44Zm3.88-2.7a5,5,0,0,1-2-5.47,1,1,0,0,1,2,.53A3,3,0,0,0,83.51,77C84.53,77.72,83.51,79.52,82.45,78.74ZM97.92,88.79a20.38,20.38,0,0,1-6.7-19.6c.29-1.31,2.25-.73,2,.53a18.28,18.28,0,0,0,6.17,17.6C100.37,88.17,98.94,89.6,97.92,88.79Zm.61-9.88a6.9,6.9,0,0,1-2.16-5.68c.12-1.3,2.16-1.3,2,0A4.92,4.92,0,0,0,100,77.44,1,1,0,0,1,98.53,78.91Zm14.74-9.35a18.09,18.09,0,0,1,16.78-6c1.3.2.73,2.2-.53,2A15.93,15.93,0,0,0,114.74,71C113.84,72,112.41,70.54,113.27,69.56Zm16.21.37a6.43,6.43,0,0,0-4.94.93c-1.11.74-2.13-1.06-1-1.75A8.45,8.45,0,0,1,130,68C131.31,68.21,130.74,70.17,129.48,69.93Zm-.29,18.2a19.79,19.79,0,0,1-6.69-4.08c-1-.9.49-2.33,1.42-1.43a17,17,0,0,0,5.8,3.55C131,86.58,130.46,88.58,129.19,88.13Zm1.92,5.35a22.59,22.59,0,0,1-19.27-12c-.61-1.19,1.14-2.21,1.76-1a20.61,20.61,0,0,0,17.51,11C132.42,91.48,132.42,93.52,131.11,93.48Zm23.88,10c.53,2.61,1.1,5.27,1.63,7.88.25,1.27-1.71,1.84-2,.53-.53-2.61-1.1-5.26-1.63-7.88C152.75,102.71,154.71,102.18,155,103.44ZM140.29,80.7a17.49,17.49,0,0,1,11.84,15.92c0,1.31-2,1.31-2,0a15.35,15.35,0,0,0-10.33-14C138.5,82.25,139,80.3,140.29,80.7Zm4.09,23a7.31,7.31,0,0,0,5,6.12c1.26.41.69,2.37-.53,2a9.39,9.39,0,0,1-6.49-8.08C142.17,102.42,144.21,102.42,144.38,103.73Zm.41-13.6c.73,1.55,1.46,3.11,2.16,4.62.57,1.18-1.18,2.2-1.76,1-.73-1.55-1.47-3.11-2.16-4.62C142.46,90,144.21,89,144.79,90.13ZM138,106.63c-.45-1.23,1.51-1.76,2-.53a16.31,16.31,0,0,0,11.31,10.28,1,1,0,0,1-.54,2A18.35,18.35,0,0,1,138,106.63Zm3.26,54.74c-.53,1.23-2.28.16-1.75-1a7.59,7.59,0,0,0,0-6c-.53-1.19,1.26-2.25,1.75-1A9.89,9.89,0,0,1,141.23,161.37Zm4.9-7.31a16.11,16.11,0,0,1-8-10,1,1,0,0,1,2-.53,14.09,14.09,0,0,0,7,8.82C148.34,152.92,147.32,154.72,146.13,154.06ZM150.7,151a6.81,6.81,0,0,1-5.59-4c-.53-1.18,1.23-2.24,1.76-1a4.82,4.82,0,0,0,3.83,3C152,149.12,152,151.16,150.7,151Zm4.78-5.67a22.42,22.42,0,0,1-14.33-18.5c-.16-1.3,1.92-1.3,2,0A20.21,20.21,0,0,0,156,143.33C157.24,143.82,156.71,145.78,155.48,145.33Zm0-7.43a14.25,14.25,0,0,1-4.65-6.7c-.41-1.26,1.55-1.79,2-.53a12.21,12.21,0,0,0,4.12,5.8C157.93,137.28,156.46,138.71,155.44,137.9Zm1.84-15.43a21.13,21.13,0,0,0-.08-18.21c-.58-1.19,1.18-2.21,1.75-1a23.43,23.43,0,0,1,.08,20.29C158.46,124.67,156.71,123.65,157.28,122.47Zm1.26,8.69c-.53-1.18,1.23-2.24,1.76-1,.9,2,1.79,4,2.73,6,.53,1.19-1.22,2.25-1.75,1C160.38,135.16,159.48,133.16,158.54,131.16Z"/><path class="cls-3" d="M108.57,60.5A29.33,29.33,0,0,1,111.11,59a18.28,18.28,0,0,0-21.6,3.83,17.64,17.64,0,0,1,6.82-1.71A14.42,14.42,0,0,1,108.57,60.5Z"/><path class="cls-1" d="M67.71,136.26a74.07,74.07,0,0,1,1.55-7.34,7.63,7.63,0,0,1-2.86-.82A13.55,13.55,0,0,0,67.71,136.26Z"/><path class="cls-2" d="M61.67,147a1,1,0,0,1,2-.53A7.87,7.87,0,0,0,68.77,152a28.61,28.61,0,0,1-1.51-6.9,36.34,36.34,0,0,1,.45-8.9A13.64,13.64,0,0,1,66.4,128a7.12,7.12,0,0,1-2.2-1.8c-.82-1,.61-2.45,1.43-1.43a5.37,5.37,0,0,0,4,2.08.3.3,0,0,1,.2,0c.08-.25.12-.49.21-.74l.12-.37a10.79,10.79,0,0,1-7.27-9.55c-.08-1.31,2-1.31,2,0a8.58,8.58,0,0,0,4,6.78,19.28,19.28,0,0,1-.58-8.41,1.62,1.62,0,0,1-2.81-.29,34.78,34.78,0,0,1-2.45-7.43,28.88,28.88,0,0,0,3.14,31.72c1.51,1.8-1.1,4.45-2.61,2.61a30.6,30.6,0,0,1-3.06-4.45,19.86,19.86,0,0,0,1.63,17,20.35,20.35,0,0,0,5,5.39,18.3,18.3,0,0,1-3.18-8A9.78,9.78,0,0,1,61.67,147Z"/><path class="cls-1" d="M72.28,158.92a32.35,32.35,0,0,1-2.57-4.61,10.59,10.59,0,0,1-5.76-3.1,17,17,0,0,0,3.19,8,20.07,20.07,0,0,0,8.33,3.71A27.47,27.47,0,0,1,72.28,158.92Z"/><path class="cls-1" d="M68.36,114.59a19.25,19.25,0,0,0,.58,8.41,9.18,9.18,0,0,0,1.67.81c1.31-4.9,2.61-9.84,3.92-14.73H74.2a7.39,7.39,0,0,1-3.47-1.72,25.47,25.47,0,0,0-2,5.23A1.84,1.84,0,0,1,68.36,114.59Z"/><path class="cls-1" d="M71.75,92.75c-.73,2.65-1.1,5.47.12,7.92a9.1,9.1,0,0,0,4.33,2.4c.25-.77.45-1.55.7-2.32A13.15,13.15,0,0,1,71.75,92.75Z"/><path class="cls-1" d="M75.1,95.81a11.06,11.06,0,0,0,2.49,2.86A41.85,41.85,0,0,1,81.1,91a22.06,22.06,0,0,1-4.86-4.37A12.21,12.21,0,0,0,75.1,95.81Z"/><path class="cls-1" d="M94,89.44a23.92,23.92,0,0,0,15.51,4.65,53.18,53.18,0,0,1-4.61-3.83A20,20,0,0,1,94,89.44Z"/><path class="cls-1" d="M135.68,144.51a8.64,8.64,0,0,1-.12-5.63,48.66,48.66,0,0,1-3.19-6.53c-1.46,5.71,1.15,12,2.78,17.59s2.65,11.72.21,17C141.23,161.49,137.93,151.29,135.68,144.51Z"/><path class="cls-4" d="M130.25,146.59c-.2-.65-.37-1.26-.57-1.92a14.62,14.62,0,0,1-.94,2.7c-8.61,15.43-28,24.53-44.46,17.92a32.31,32.31,0,0,0,21.52,4.16c10.57-1.63,19.72-7.55,26.57-15.63C131.8,151.37,131,148.92,130.25,146.59Z"/><path class="cls-4" d="M90.69,153.37a6.36,6.36,0,0,0,7.07,3.39,7.91,7.91,0,0,0,4.28-2A22,22,0,0,1,90.69,153.37Z"/><path class="cls-5" d="M130.62,127.08A47.64,47.64,0,0,1,129,113.2a34.12,34.12,0,0,1-4.25-10.45c-3.67-1.59-7.31-3.06-10.29-2.74-5.71.82-14.28-2-19.18-2.45-3.72-.65-9.07.33-12.41-2a54.22,54.22,0,0,0-3.19,8.7,11.11,11.11,0,0,1,11.8,2.41c1.71,1.63-.9,4.24-2.61,2.61a7.39,7.39,0,0,0-10.62.28l0,0c-1.55,5.87-3.14,11.75-4.69,17.67S70.16,139.57,71,145.82a26.43,26.43,0,0,0,6,13.39,29.86,29.86,0,0,0,7.3,6.16c16.5,6.61,35.85-2.49,44.46-17.92a12.81,12.81,0,0,0,.94-2.69C128.09,138.84,127.31,132.43,130.62,127.08Zm-43,5.22a2.3,2.3,0,0,0,1.84,1.92c-.49-2.73,2.24-5.75,3.51-7.79,2.57-4.17,3.84-9.88-.45-13.44-1-.85.45-2.28,1.43-1.42,4.24,3.51,4.16,9.59,1.8,14.16a30.8,30.8,0,0,1-2.54,3.88c-.89,1.22-2.2,3-1.51,4.65.78,1.88,3.11,1.35,4.7,1.6a15.84,15.84,0,0,0,3,.49,2.87,2.87,0,0,0,1.88-.53c-.08-.41-.21-.86-.29-1.27-1.26-.29-.73-2.25.53-2,2.94.65,2.45,4.74-.16,5.51-2.16.65-4.25-.2-6.41-.33a6.07,6.07,0,0,1-4.33-1.47,4.3,4.3,0,0,1-4.9-3.42C85.43,131.57,87.39,131,87.59,132.3Zm-6-5.18c-3,0-4.29-2.69-3.88-5-.9.77-2.2-.61-1.35-1.51a4.82,4.82,0,0,1,4.17-1.55,4.13,4.13,0,0,1,1-.13C86.82,119,86.82,127.12,81.55,127.12Zm21,27.56c-.16,0-.36,0-.53.08a8,8,0,0,1-4.28,2,6.33,6.33,0,0,1-7.07-3.39L89.8,153c-1.19-.53-.17-2.28,1-1.75A20.27,20.27,0,0,0,102,152.72a1.09,1.09,0,0,1,1,.36h0C103.47,153.65,103.43,154.55,102.57,154.68Zm6.49-6.74a33,33,0,0,1-23.55-1.18c-2.16-.94-.29-4.13,1.84-3.19a29.06,29.06,0,0,0,20.73.82C110.33,143.65,111.31,147.16,109.06,147.94Zm1.6-19.72c-3.55,0-4.7-3.71-3.47-6.12a.88.88,0,0,0-.25.16c-1.1.74-2.12-1-1-1.75a6,6,0,0,1,6.57,0,3.68,3.68,0,0,1,1.51,1.38c.09.09.13.17.21.25a.91.91,0,0,1,.16.53C115.19,125,114,128.22,110.66,128.22Zm10.41-14.9a9.68,9.68,0,0,0-13.52-3.06c-2,1.26-3.87-1.92-1.83-3.18a13.47,13.47,0,0,1,18.57,4.36C125.52,113.48,122.33,115.32,121.07,113.32Z"/><path class="cls-4" d="M114.45,100c3-.28,6.62,1.15,10.29,2.74-.08-.45-.2-.86-.28-1.31a49.45,49.45,0,0,1-10.33-4.37,1.11,1.11,0,0,1-.53.17,27.37,27.37,0,0,1-18.82-3,3.58,3.58,0,0,1-.7.2,21.08,21.08,0,0,1-9.8-1.67c-.53.89-1,1.79-1.46,2.73,3.38,2.37,8.73,1.39,12.41,2C100.17,98,108.74,100.83,114.45,100Z"/><path class="cls-6" d="M108.08,144.39a29.07,29.07,0,0,1-20.73-.82c-2.17-.94-4,2.25-1.84,3.19a32.84,32.84,0,0,0,23.55,1.18C111.31,147.16,110.33,143.65,108.08,144.39Z"/><path class="cls-6" d="M81.55,119a4.19,4.19,0,0,0-1,.13,4.79,4.79,0,0,0-4.16,1.55c-.86.94.44,2.33,1.34,1.51-.45,2.29.82,5,3.88,5C86.82,127.12,86.82,119,81.55,119Z"/><path class="cls-6" d="M105.72,107.12c-2,1.22-.17,4.4,1.83,3.18a9.68,9.68,0,0,1,13.52,3.06c1.26,2,4.45.17,3.18-1.84A13.36,13.36,0,0,0,105.72,107.12Z"/><path class="cls-6" d="M114.17,122.1a.93.93,0,0,0-.21-.25,3.68,3.68,0,0,0-1.51-1.38,5.91,5.91,0,0,0-6.57,0c-1.06.73,0,2.53,1,1.75a1,1,0,0,0,.25-.16c-1.23,2.41-.09,6.12,3.47,6.12,3.3,0,4.53-3.22,3.67-5.59A.54.54,0,0,0,114.17,122.1Z"/><path class="cls-6" d="M168.91,122.55a1.69,1.69,0,0,0-.49-.86,23,23,0,0,0,1.1-11.35c-.93-6.82-5.06-12.9-9.34-18.08a18.72,18.72,0,0,0-10.62-18.54l-.12-.49A28.59,28.59,0,0,0,131.52,56.9a27.05,27.05,0,0,0-16.37.41,2.06,2.06,0,0,0-.57-.57A21.55,21.55,0,0,0,88.41,59a1.62,1.62,0,0,0-.86-.37c-7.1-1-14.12,1.06-18.37,7.1a13.3,13.3,0,0,0-1.1,13s0,.09-.08.09a37,37,0,0,0-5.72,22.77,2,2,0,0,0-.77.66,32.51,32.51,0,0,0-3.11,30.13A24.21,24.21,0,0,0,59,155.61,24,24,0,0,0,78.81,167a1.7,1.7,0,0,0,.94-.24,36.28,36.28,0,0,0,19.07,6.65c11.1.7,21.76-3.88,30.13-10.94a46.67,46.67,0,0,0,4.12-4,13.34,13.34,0,0,1-2.37,9,1.53,1.53,0,0,0,0,1.88,1.6,1.6,0,0,0,1.27,1.35,19.5,19.5,0,0,0,15.22-2.41,2.18,2.18,0,0,0,.94.33,21.05,21.05,0,0,0,15.39-4.86,14.61,14.61,0,0,0,4.41-14.41s0-.08,0-.12C173,142.39,170.87,129.61,168.91,122.55Zm-63.07,46.9A31.51,31.51,0,0,1,77,159.13a25.81,25.81,0,0,1-6-13.39c-.82-6.29.9-12.58,2.53-18.58s3.14-11.76,4.69-17.68l0,0a7.39,7.39,0,0,1,10.62-.28c1.71,1.63,4.33-1,2.61-2.62a11.11,11.11,0,0,0-11.8-2.4,48.57,48.57,0,0,1,4.62-11.43,20.52,20.52,0,0,0,9.79,1.67,1.23,1.23,0,0,0,.7-.21,27.55,27.55,0,0,0,18.82,3c.2,0,.37-.13.53-.17a49.45,49.45,0,0,0,10.33,4.37,33.31,33.31,0,0,0,4.53,11.76A48.33,48.33,0,0,0,130.7,127c-3.67,5.92-2.33,13.18-.37,19.51.7,2.29,1.56,4.74,2.13,7.23C125.56,161.94,116.41,167.82,105.84,169.45Zm61.4-30.7c-.12,4.54-1.72,9.92-6.7,11.11-2.28.57-1.3,4.08,1,3.55a12.15,12.15,0,0,0,3.19-1.27,11.55,11.55,0,0,1-3.76,9,15,15,0,0,1-9.76,3.75,20,20,0,0,0,3.27-5c.94-2.16-2.2-4-3.18-1.84A15.62,15.62,0,0,1,135,167.53c2.82-5.38,1.79-11.92.08-17.59s-4.25-11.88-2.78-17.59a48.45,48.45,0,0,0,4.45,8.57c1.31,2,4.49.12,3.19-1.84a44.54,44.54,0,0,1-5.43-11.59,1.46,1.46,0,0,0-.29-1,46.62,46.62,0,0,1-1.47-8.17,35.68,35.68,0,0,0,6.37,5.51c2,1.31,3.8-1.87,1.84-3.18a30.19,30.19,0,0,1-8.37-8.49,1.49,1.49,0,0,0-.73-1.19,30.54,30.54,0,0,1-3.47-8.49,47.75,47.75,0,0,0,7.3.9c2.37.08,2.37-3.59,0-3.67a44,44,0,0,1-31.64-15.64c-1.51-1.8-4.12.82-2.61,2.61a47.4,47.4,0,0,0,8.08,7.56A23.7,23.7,0,0,1,89.1,84.5c-1.35-1.92-4.53-.08-3.18,1.84a29.69,29.69,0,0,0,3.79,4.32A17.18,17.18,0,0,1,78.9,84.3c-1.43-1.84-4.62,0-3.19,1.83A21.61,21.61,0,0,0,81,91.07a44.7,44.7,0,0,0-3.51,7.68,11,11,0,0,1-4-9.64c.12-1.3-1.92-1.3-2,0a12.82,12.82,0,0,0,5.34,11.68c-.24.77-.49,1.55-.69,2.33a9.06,9.06,0,0,1-6.25-5.27c-.49-1.18-2.49-.65-2,.53a11.16,11.16,0,0,0,7.68,6.69c-.2.74-.41,1.43-.57,2.17a.62.62,0,0,0-.29-.08,6.24,6.24,0,0,1-3.1-1.64c-.94-.93-2.37.53-1.43,1.43a7.84,7.84,0,0,0,4,2.17.47.47,0,0,0,.33,0c-1.31,4.9-2.61,9.83-3.92,14.73a8.55,8.55,0,0,1-5.72-7.59c-.08-1.31-2.12-1.31-2,0a10.68,10.68,0,0,0,7.27,9.55l-.12.37c-.09.25-.13.49-.21.74a1.43,1.43,0,0,0-.2,0,5.3,5.3,0,0,1-4-2.08c-.82-1-2.25.41-1.43,1.43a7.51,7.51,0,0,0,5.06,2.66c-1.35,5.3-2.45,10.73-2,16.24a29,29,0,0,0,1.51,6.9,8,8,0,0,1-5.14-5.59,1,1,0,0,0-2,.53,9.94,9.94,0,0,0,8,7.35,34.69,34.69,0,0,0,2.57,4.61,29.62,29.62,0,0,0,3.19,4,20.44,20.44,0,0,1-13.27-9.14,19.85,19.85,0,0,1-1.63-17,34.82,34.82,0,0,0,3.06,4.45c1.51,1.84,4.08-.77,2.61-2.61a28.88,28.88,0,0,1-3.14-31.72,40.66,40.66,0,0,0,2.45,7.43c1,2.16,4.16.29,3.18-1.84a33.53,33.53,0,0,1,1.63-30.37c.29.29.58.57.86.82,1.8,1.51,4.41-1.06,2.61-2.61-3.92-3.31-4.12-8.58-1.47-12.74,2.78-4.37,8.29-6,13.23-5.51a22.66,22.66,0,0,0-2.94,5.22c-.9,2.21,2.7,3.15,3.55,1a18,18,0,0,1,25-9.18c-.86.45-1.72.94-2.53,1.47A14.28,14.28,0,0,0,95,62.09c-1.06.73,0,2.53,1,1.75A12.47,12.47,0,0,1,106.62,62c-.29.2-.54.44-.82.65-1.8,1.51.82,4.12,2.61,2.61a23.87,23.87,0,0,1,36.58,7,19.43,19.43,0,0,0-4.08-.28c-2.37.12-2.37,3.79,0,3.67a14.92,14.92,0,0,1,14.78,20c-.78,2.17,2.49,3.11,3.42,1.23,6,8.12,10.95,19.76,3,28.17-1.64,1.71,1,4.32,2.61,2.61a18.66,18.66,0,0,0,1.26-1.51A48.23,48.23,0,0,1,167.24,138.75Z"/><path class="cls-6" d="M90.57,136.3a6.13,6.13,0,0,0,4.33,1.47c2.2.13,4.24,1,6.41.33,2.65-.77,3.14-4.9.16-5.51-1.26-.29-1.84,1.67-.53,2,.08.41.2.86.29,1.26a2.83,2.83,0,0,1-1.88.54,26.36,26.36,0,0,1-3-.49c-1.59-.25-3.92.28-4.7-1.6-.69-1.63.66-3.38,1.51-4.65a38.46,38.46,0,0,0,2.53-3.88c2.41-4.57,2.45-10.65-1.79-14.16-1-.82-2.45.61-1.43,1.42,4.29,3.56,3,9.27.45,13.44-1.27,2-4,5.1-3.51,7.79a2.4,2.4,0,0,1-1.84-1.92c-.2-1.3-2.16-.73-2,.53A4.47,4.47,0,0,0,90.57,136.3Z"/><path class="cls-6" d="M102,152.72a20.17,20.17,0,0,1-11.18-1.47c-1.19-.53-2.25,1.22-1,1.75a22.5,22.5,0,0,0,12.77,1.68C103.88,154.47,103.31,152.51,102,152.72Z"/><path class="cls-6" d="M131.11,91.44a20.61,20.61,0,0,1-17.51-11c-.62-1.19-2.37-.12-1.76,1a22.75,22.75,0,0,0,19.27,12C132.42,93.52,132.42,91.48,131.11,91.44Z"/><path class="cls-6" d="M129.76,86.13A16.87,16.87,0,0,1,124,82.58c-1-.9-2.41.53-1.43,1.43a19.79,19.79,0,0,0,6.69,4.08C130.46,88.58,131,86.58,129.76,86.13Z"/><path class="cls-6" d="M150.7,118.34a1,1,0,0,0,.54-2,16.23,16.23,0,0,1-11.31-10.28c-.45-1.23-2.41-.7-2,.53A18.35,18.35,0,0,0,150.7,118.34Z"/><path class="cls-6" d="M142.34,103.73a9.37,9.37,0,0,0,6.49,8.08c1.26.41,1.79-1.55.53-2a7.2,7.2,0,0,1-5-6.12C144.21,102.42,142.17,102.42,142.34,103.73Z"/><path class="cls-6" d="M159,123.49A23.3,23.3,0,0,0,159,103.2c-.57-1.19-2.33-.17-1.75,1a21.11,21.11,0,0,1,.08,18.2C156.71,123.65,158.46,124.67,159,123.49Z"/><path class="cls-6" d="M154.66,111.89c.29,1.31,2.25.74,2-.53-.53-2.61-1.1-5.26-1.63-7.88-.28-1.3-2.24-.73-2,.53C153.56,106.63,154.09,109.24,154.66,111.89Z"/><path class="cls-6" d="M139.72,82.66a15.4,15.4,0,0,1,10.33,14c0,1.31,2.08,1.31,2,0A17.44,17.44,0,0,0,140.25,80.7C139,80.3,138.5,82.25,139.72,82.66Z"/><path class="cls-6" d="M147,94.79c-.74-1.55-1.47-3.11-2.16-4.62-.58-1.18-2.33-.16-1.76,1,.73,1.56,1.47,3.11,2.16,4.62C145.77,97,147.52,96,147,94.79Z"/><path class="cls-6" d="M93.23,69.72c.28-1.26-1.72-1.84-2-.53A20.27,20.27,0,0,0,98,88.79c1,.85,2.45-.62,1.43-1.43A18.27,18.27,0,0,1,93.23,69.72Z"/><path class="cls-6" d="M98.41,73.23c.12-1.3-1.92-1.3-2,0a6.9,6.9,0,0,0,2.16,5.68c.94.9,2.41-.53,1.43-1.43A5,5,0,0,1,98.41,73.23Z"/><path class="cls-6" d="M114.7,71a15.92,15.92,0,0,1,14.78-5.51c1.3.2,1.83-1.76.53-2a18,18,0,0,0-16.78,6C112.41,70.54,113.84,72,114.7,71Z"/><path class="cls-6" d="M130,67.93a8.42,8.42,0,0,0-6.49,1.14c-1.11.69-.09,2.49,1,1.75a6.44,6.44,0,0,1,4.94-.94C130.74,70.17,131.31,68.21,130,67.93Z"/><path class="cls-6" d="M78.45,68.62c.69-1.1-1.06-2.12-1.76-1a11,11,0,0,0,1.92,13.84c1,.9,2.41-.57,1.43-1.43A8.91,8.91,0,0,1,78.45,68.62Z"/><path class="cls-6" d="M83.47,77a3,3,0,0,1-1.14-3.19,1,1,0,0,0-2-.53,5.07,5.07,0,0,0,2,5.47C83.51,79.52,84.53,77.72,83.47,77Z"/><path class="cls-6" d="M156.05,143.37a20.27,20.27,0,0,1-12.82-16.5c-.12-1.3-2.2-1.3-2,0a22.42,22.42,0,0,0,14.33,18.5C156.71,145.78,157.24,143.82,156.05,143.37Z"/><path class="cls-6" d="M156.87,136.47a12.21,12.21,0,0,1-4.12-5.8c-.41-1.22-2.41-.69-2,.53a14.25,14.25,0,0,0,4.65,6.7C156.46,138.71,157.93,137.28,156.87,136.47Z"/><path class="cls-6" d="M160.3,130.14c-.53-1.18-2.29-.16-1.76,1,.9,2,1.8,4,2.74,6,.53,1.19,2.28.17,1.75-1C162.14,134.14,161.24,132.14,160.3,130.14Z"/><path class="cls-6" d="M147.19,152.31a14.09,14.09,0,0,1-7-8.82,1,1,0,0,0-2,.53,16.11,16.11,0,0,0,8,10C147.32,154.72,148.34,152.92,147.19,152.31Z"/><path class="cls-6" d="M139.48,154.31a7.81,7.81,0,0,1,0,6c-.53,1.18,1.22,2.25,1.75,1a9.89,9.89,0,0,0,0-8.08C140.74,152.06,139,153.12,139.48,154.31Z"/><path class="cls-6" d="M150.7,149a4.9,4.9,0,0,1-3.83-3c-.53-1.22-2.29-.16-1.76,1a6.81,6.81,0,0,0,5.59,4C152,151.16,152,149.12,150.7,149Z"/></svg>