<svg id="圖層_1" data-name="圖層 1" xmlns="http://www.w3.org/2000/svg" viewBox="0 0 226.77 226.77"><defs><style>.cls-1{fill:#8ca3aa;}.cls-2{fill:#758e9a;}.cls-3{fill:#fbddb0;}.cls-4{fill:#f8c985;}.cls-5{fill:#556f79;}</style></defs><path class="cls-1" d="M155.61,124.59a21.38,21.38,0,0,0-.49,5.79,67,67,0,0,1,3.06-7.84c2.9-6.4,6.82-13.92,5.19-21.18-1.23-5.39-6-10.49-11.84-9.07C165,96.66,158.79,114.3,155.61,124.59Z"/><path class="cls-2" d="M137.69,163.49s0,0,0-.08a8.65,8.65,0,0,1-1.55-.25,2,2,0,0,1-.25.62,17.7,17.7,0,0,0,5.31,2.89A8.9,8.9,0,0,1,137.69,163.49Z"/><path class="cls-2" d="M158.1,157.65c-.49.13-.94.25-1.43.33-1.71,3.27-5.55,4.37-8.78,5.8,3.23-1.43,7-2.53,8.78-5.8,0,0-.12,0-.16,0-2.33.37-3.31-3.18-1-3.55a15.44,15.44,0,0,0,8.33-4.12,11.63,11.63,0,0,1-9.07-8c-1.22-4-.73-8,.41-11.92a21.54,21.54,0,0,1,.49-5.79c3.19-10.33,9.43-27.93-4-32.3h-.08a1.46,1.46,0,0,1-1.14.33c-1.68.29-2.49-2-1.43-3.1a17,17,0,0,0,.73-2c-.53-1.35-1.22-2.61-1.79-4a1,1,0,0,1-1.76-.94,3.52,3.52,0,0,0-.57-3.1,1.09,1.09,0,0,1-.25-.78C139.69,71.6,129.08,73.39,121,69A8.14,8.14,0,0,1,117,62.33a7.46,7.46,0,0,1,.82-6.08l-.57.12a21.48,21.48,0,0,0-4.41,5.92,1,1,0,0,1,1.1,1,9.82,9.82,0,0,0,7.63,9.06c1.27.29.74,2.25-.53,2a11.86,11.86,0,0,1-9.06-10.2,31.09,31.09,0,0,0-2.16,7.59v0c1.3,2-1.88,3.84-3.19,1.84a13.5,13.5,0,0,1,.61-15.23c0-.08,0-.21-.08-.29a13.64,13.64,0,0,1,.74-7.06,23.82,23.82,0,0,0-7.27,9.35c.65-.65,2.08-.12,1.71,1A15.7,15.7,0,0,0,109,80c1.1.69.08,2.44-1,1.75a17.77,17.77,0,0,1-7.88-20.37,51.12,51.12,0,0,0-2.73,9,3.25,3.25,0,0,0,.32.53c1.31,2-1.88,3.84-3.18,1.84a14.75,14.75,0,0,1-1.76-11.27,13.91,13.91,0,0,1-1.55-2c-4.45,4.62-6,11.23-6.49,17.68,0,0,0,.08.08.12,1.47,1.84-1.1,4.45-2.61,2.61a14.23,14.23,0,0,1-2.65-5.14.17.17,0,0,1-.13,0,6.2,6.2,0,0,1-4.12-4.29,12.54,12.54,0,0,0-1.88,1.68A14.35,14.35,0,0,0,74,81.64a13,13,0,0,0,1.88,3.27,15.66,15.66,0,0,1-2-7.8c0-1.31,2.08-1.31,2,0A13.15,13.15,0,0,0,90.29,90.58a.88.88,0,0,1,1,1c1.64,0,3.31,0,5-.08a1.11,1.11,0,0,1,.94-1.35C111,89.27,127.32,89,136.3,101.36c.78,1.06-1,2.08-1.75,1A22.43,22.43,0,0,0,125.32,95a18.82,18.82,0,0,1,6.25,7.47,33,33,0,0,1,1.63,4.73,37.56,37.56,0,0,1,3.35,4.09,1.51,1.51,0,0,1-.25,2.12,19.83,19.83,0,0,1-1.92,4.16c-.9,1.55-2.16,3.43-1.92,5.35.21,1.72,1.84,2.57,3,3.55a8.62,8.62,0,0,1,2.33,2.78.68.68,0,0,1,.08.2,1.58,1.58,0,0,1,.13,2,55.84,55.84,0,0,0-5.56,9.6,24.17,24.17,0,0,1,6.78-4.78,1.57,1.57,0,0,1,1.43-.65.51.51,0,0,1,.24,0,2.16,2.16,0,0,1,.53,0,15,15,0,0,1,3,.69,24.79,24.79,0,0,1,1-9c.36-1.26,2.36-.73,2,.53a22.65,22.65,0,0,0-.86,9.35,11.09,11.09,0,0,1,3,2.37c-.45-4.66.28-9.51,1.1-14.13.25-1.3,2.21-.73,2,.53-1.35,7.72-2.74,16.74,2.9,23.19.86,1-.57,2.45-1.43,1.43a17.38,17.38,0,0,1-1.63-2.2A15.7,15.7,0,0,1,150.3,156c0,.08-.12.16-.16.24a5.4,5.4,0,0,0,3.55,2.37c1.31.29.74,2.25-.53,2a7.64,7.64,0,0,1-4.24-2.61,13.28,13.28,0,0,1-8.66,5.14,8.16,8.16,0,0,0,3.27,2.21,1.08,1.08,0,0,1,.32,1.83,14.07,14.07,0,0,0,3.72.13c-1.51-.86-1.27-3.64.77-3.43a18.71,18.71,0,0,0,13.88-4.09,15,15,0,0,1-3.71-2C158.26,157.86,158.18,157.78,158.1,157.65ZM92.42,83.39a17.9,17.9,0,0,1-5-15.88c.21-1.3,2.21-.73,2,.54A15.94,15.94,0,0,0,93.89,82C94.82,82.9,93.35,84.33,92.42,83.39Zm6.12-.4a8.78,8.78,0,0,1-4.74-5.72,1,1,0,0,1,2-.53,6.67,6.67,0,0,0,3.8,4.49C100.78,81.76,99.72,83.52,98.54,83Zm53.68,13.92a18.15,18.15,0,0,1,4.49,3.22c.94.9-.49,2.37-1.43,1.43a17,17,0,0,0-4.08-2.9C150,98.09,151.08,96.34,152.22,96.91Zm-3.06,2.32a14.48,14.48,0,0,1,7.72,5.8c.73,1.1-1,2.12-1.76,1a12.22,12.22,0,0,0-6.53-4.86A1,1,0,0,1,149.16,99.23Zm-11.1-24.94A16.42,16.42,0,0,1,145.61,88a1,1,0,0,1-2,0,14.4,14.4,0,0,0-6.53-12C135.93,75.35,137,73.6,138.06,74.29Zm-11,1.43a17.67,17.67,0,0,1,16,15.76c.16,1.3-1.88,1.3-2.05,0A15.51,15.51,0,0,0,127,77.76C125.73,77.64,125.73,75.6,127,75.72Zm10.78,16.62c-2.28-2.25-4.61-4.5-6.9-6.78a1,1,0,0,1,1.43-1.43c2.29,2.24,4.61,4.49,6.9,6.78C140.18,91.8,138.75,93.27,137.81,92.34ZM112.87,75.23c-.86-1,.57-2.45,1.43-1.43a13.05,13.05,0,0,0,4.81,3.47c1.23.49.7,2.45-.53,2A14.8,14.8,0,0,1,112.87,75.23Zm22.57,21.39a23.87,23.87,0,0,0-20-10c-1.31,0-1.31-2,0-2a26,26,0,0,1,21.8,11C138,96.66,136.18,97.68,135.44,96.62Zm4.45,31.48a18.12,18.12,0,0,0-5-7.52c-1-.89.49-2.32,1.43-1.42a20.29,20.29,0,0,1,5.55,8.41C142.3,128.79,140.3,129.32,139.89,128.1Zm3-3.68c-1.34-1.71-2.69-3.43-4.08-5.1-.82-1,.61-2.49,1.43-1.43,1.35,1.72,2.69,3.43,4.08,5.1C145.12,124,143.69,125.44,142.87,124.42Zm2.41-4.45a30.44,30.44,0,0,0-5.88-5.18c-1.1-.74-.08-2.49,1-1.76a31.15,31.15,0,0,1,6.29,5.51C147.57,119.52,146.14,121,145.28,120Zm5.15-1.06a18.58,18.58,0,0,0-11.56-12.74c-1.22-.44-.69-2.4.53-2a20.59,20.59,0,0,1,13,14.17A1,1,0,0,1,150.43,118.91Zm3.3-7.63a16.18,16.18,0,0,0-10.41-7.19c-1.3-.28-.73-2.24.53-2a18.46,18.46,0,0,1,11.64,8.13C156.22,111.36,154.43,112.38,153.73,111.28Z"/><path class="cls-1" d="M120.91,69.07c8,4.36,18.66,2.57,24.33,9.71.08-.81,1.06-1.47,1.67-.69A5.66,5.66,0,0,1,148,83.15a1.32,1.32,0,0,1-.21.41c.62,1.3,1.27,2.61,1.8,4a13.88,13.88,0,0,0-3.72-14,14.24,14.24,0,0,0-7.22-3.68c-3-.49-6-.12-9.06-.2-4.94-.13-10.82-1.64-12.7-6.82a2,2,0,0,0-.16-.45A8.57,8.57,0,0,0,120.91,69.07Z"/><path class="cls-1" d="M90,57.59c-5.35,5-10.66,13-5.35,19.64.49-6.45,2-13.06,6.49-17.68A10.9,10.9,0,0,1,90,57.59Z"/><path class="cls-1" d="M100.21,60.82a1,1,0,0,1,.25-.41,23.6,23.6,0,0,1,7.26-9.35c0-.12.09-.2.13-.32-3.68,1.51-7.19,3.63-9.39,6.9-2.57,3.83-3.51,8.69-1.19,12.81a50.16,50.16,0,0,1,2.74-9A3.62,3.62,0,0,0,100.21,60.82Z"/><path class="cls-1" d="M110.26,60.29a9.89,9.89,0,0,0-.62,11.47,31.69,31.69,0,0,1,2.17-7.59,6.25,6.25,0,0,1-.08-.86.88.88,0,0,1,.93-1,22,22,0,0,1,4.41-5.92A11.13,11.13,0,0,0,110.26,60.29Z"/><path class="cls-1" d="M143.77,167.41a.9.9,0,0,1-.86.12,8.72,8.72,0,0,1-1.75-.81,20.07,20.07,0,0,1-5.31-2.9.4.4,0,0,1-.16.2c-.86,1-1.72,2-2.66,2.94a14.22,14.22,0,0,0,15.8.86c-.2,0-.4,0-.61,0a2.18,2.18,0,0,1-.77-.25A14.19,14.19,0,0,1,143.77,167.41Z"/><path class="cls-1" d="M131.52,102.54a18.72,18.72,0,0,0-6.24-7.47c-8.45-3.84-19-3.35-28-2.78a.83.83,0,0,1-.94-.69c-1.71.08-3.38.12-5,.08a1.12,1.12,0,0,1-1,1.06A15.21,15.21,0,0,1,75.88,85,14.12,14.12,0,0,1,74,81.76c-1.1-2.77-1.67-6.53-.57-9.51-3.71,4-5.06,10.08-2.24,15,4.16,7.23,12.73,9.6,20.57,9.88,8.94.33,18.29-1.22,27,1.35a32.8,32.8,0,0,1,14.45,8.82A35.65,35.65,0,0,0,131.52,102.54Z"/><path class="cls-3" d="M65.64,143.85a2.83,2.83,0,0,0-.17,1.92c.41,1.39.33-.81.33-1.06A6.81,6.81,0,0,0,65.64,143.85Z"/><path class="cls-3" d="M61.31,141.89c-.37,4.09,1.47,10.33,6.49,9.6-.21-5.59,1.06-11.06,2.49-16.45C65.92,132.91,61.72,137.57,61.31,141.89Zm5.35,6.45c-1.39.78-2.94-.69-3.19-2a5.75,5.75,0,0,1,1.31-4.9,10,10,0,0,0-1-1.63c-.82-1,.65-2.49,1.43-1.43a11.91,11.91,0,0,1,2.49,5.6C68,145.41,68.17,147.49,66.66,148.34Z"/><path class="cls-4" d="M76.13,164.88c.49.65,1,1.3,1.51,2a31.57,31.57,0,0,0,28.82,10.33c10.41-1.64,19.43-7.35,26.25-15.27a11.27,11.27,0,0,1-3.55-3.27C116.13,173.25,91,178.51,76.13,164.88Z"/><path class="cls-4" d="M147.49,143.2a8.33,8.33,0,0,0-6.25-3.71,19.7,19.7,0,0,0-7.06,5.06A17.15,17.15,0,0,1,147.49,143.2Z"/><path class="cls-4" d="M108.26,105.81c6.12-.86,12.28-1.47,17.88.28a31,31,0,0,0-16.17-5.3c-8.17-.45-16.78.89-24.9-.66,0,0,0,.12-.08.17a38.4,38.4,0,0,0-2.66,5.38C90.58,109.15,99.8,106.58,108.26,105.81Z"/><path class="cls-3" d="M148.18,144.63a9.41,9.41,0,0,0-.69-1.43,17.12,17.12,0,0,0-13.31,1.31c-1.39,1.43-2.66,3-3.88,4.49a1.85,1.85,0,0,1-3.14-1.31c.4-6.45,3.59-11.92,7.06-17.14-.94-1.27-2.37-2-3.47-3.11a6.61,6.61,0,0,1-2-4.45c0-4.12,2.9-6.9,4-10.61a28.52,28.52,0,0,0-6.57-6.33c-5.64-1.75-11.76-1.1-17.88-.28-8.5.77-17.68,3.34-25.89-.13-.81,2-1.47,4.09-2.08,6.21a11.11,11.11,0,0,1,11.8,2.41c1.71,1.63-.9,4.24-2.61,2.61a7.39,7.39,0,0,0-10.62.29l0,0c-.73,2.77-1.47,5.59-2.24,8.37,0,.12,0,.28,0,.4a1.44,1.44,0,0,1-.53,1.39c-.66,2.49-1.35,5-2,7.47-1.6,6-3.35,12.33-2.54,18.58a26.28,26.28,0,0,0,4.5,11.43c14.9,13.63,40,8.41,53-6.25,0,0,0,0-.05,0-1.34-2,1.84-3.8,3.19-1.84,4.12,5.92,12.37,2.58,15-2.85A11.62,11.62,0,0,0,148.18,144.63ZM76.94,128.3a4.87,4.87,0,0,1,4.17-1.55,4.13,4.13,0,0,1,1-.12c5.26,0,5.26,8.16,0,8.16-3,0-4.29-2.69-3.88-5C77.39,130.63,76.09,129.24,76.94,128.3ZM117,153a16.65,16.65,0,0,1-28,2.16A8.67,8.67,0,0,1,74.53,149a1,1,0,0,1,1-1,6.27,6.27,0,0,0,6-2.9,0,0,0,0,1,0,0c0-.08-.09-.16-.17-.29A3.92,3.92,0,0,1,82.78,140c1.06-.78,2.08,1,1,1.75a1.69,1.69,0,0,0,1.1,3.06,6.17,6.17,0,0,1,.21-1.75c1.92-6.49,10.41-12.17,7.51-19.56-.49-1.22,1.51-1.75,2-.53,1.84,4.7-.57,9.35-3.23,13.15-1.55,2.24-3.71,4.78-4.28,7.51-.45,2.16.94,4.08,3.3,3.27a10.61,10.61,0,0,0,3.39-2.17,1.71,1.71,0,0,1,.33-.2.93.93,0,0,1,1.35,0,3.37,3.37,0,0,0,4.49.28c.81-.61,1.71-1.87,1.3-2.93a1.36,1.36,0,0,0-2-.78c-1.1.69-2.12-1.06-1-1.76a3.34,3.34,0,0,1,4.37.86,4,4,0,0,1-.12,4.78,1.68,1.68,0,0,1-.29.32c1.92.94,2.62,3.39,4.29,4.9a8.24,8.24,0,0,0,9,1.35C116.5,151.16,117.52,152.06,117,153Zm-9.43-23.07c-1.1.74-2.12-1-1-1.75a6,6,0,0,1,6.57,0,3.63,3.63,0,0,1,1.51,1.39c.09.08.13.16.21.24a.91.91,0,0,1,.16.53c.86,2.41-.37,5.59-3.67,5.59-3.55,0-4.7-3.71-3.47-6.12Zm14.13-8.9A9.68,9.68,0,0,0,108.17,118c-2,1.27-3.87-1.92-1.83-3.18a13.46,13.46,0,0,1,18.57,4.37C126.14,121.2,123,123,121.69,121Zm22.49,26.5a3.58,3.58,0,0,0-3.27,1.55,3.54,3.54,0,0,1,2.7,4.08c-.33,2.08-2.41,5-4.9,3.92-2.9-1.26-1.72-4.69-.78-6.86,1.15-2.57,3.15-5,6.25-4.73C145.49,145.61,145.49,147.65,144.18,147.53Z"/><path class="cls-1" d="M79.92,149.2a8.35,8.35,0,0,1-3.18.86,6.58,6.58,0,0,0,10.74,3.71C84.25,153.57,80.94,152.22,79.92,149.2Z"/><path class="cls-1" d="M108.46,153.77a14.64,14.64,0,0,1-17.43.74,14.81,14.81,0,0,0,22.57-.2A9.66,9.66,0,0,1,108.46,153.77Z"/><path class="cls-2" d="M108.46,153.77l-.33-.12a9.88,9.88,0,0,1-3.71-2.73c-1.19-1.35-1.8-4-4-3.84a.64.64,0,0,1-.29,0,5.1,5.1,0,0,1-5.43-.37c-2.08,1.67-4.32,3-7.1,2.12a3.46,3.46,0,0,1-2.16-1.91,4,4,0,0,1-2.37-.41A8.73,8.73,0,0,1,80,149.2c1,3,4.33,4.37,7.52,4.57.16-.12.28-.24.44-.36a.93.93,0,0,1,.94-.25,1.11,1.11,0,0,1,1.39.33c0,.08.08.12.12.2s.25,0,.37-.08c-.12,0-.24,0-.37.08.21.29.45.57.7.86A14.64,14.64,0,0,0,108.46,153.77Z"/><path class="cls-2" d="M80.9,99c-.61-.2-1.22-.45-1.79-.69a69,69,0,0,0-2.62,13.43,55.22,55.22,0,0,1,4.9-12.58A2.54,2.54,0,0,1,80.9,99Z"/><path class="cls-3" d="M140.79,154.63c.94-1.06,1.31-4.37-1.06-3.43h0c-.2.49-.37,1-.53,1.47s-.57,1.55-.12,2.17A1.1,1.1,0,0,0,140.79,154.63Z"/><path class="cls-5" d="M111.28,135.89c3.3,0,4.53-3.22,3.67-5.59a.91.91,0,0,0-.16-.53,1.13,1.13,0,0,0-.21-.24,3.63,3.63,0,0,0-1.51-1.39,5.91,5.91,0,0,0-6.57,0c-1.06.73,0,2.53,1,1.75a1,1,0,0,0,.25-.16C106.58,132.22,107.72,135.89,111.28,135.89Z"/><path class="cls-5" d="M106.3,114.79c-2,1.22-.17,4.41,1.83,3.18A9.68,9.68,0,0,1,121.65,121c1.26,2,4.44.17,3.18-1.83A13.37,13.37,0,0,0,106.3,114.79Z"/><path class="cls-5" d="M78.29,129.85c-.45,2.29.82,5,3.88,5,5.27,0,5.27-8.16,0-8.16a4.13,4.13,0,0,0-1,.12A4.87,4.87,0,0,0,77,128.34C76.09,129.24,77.39,130.63,78.29,129.85Z"/><path class="cls-5" d="M138.71,157.08c2.49,1.06,4.57-1.84,4.9-3.92a3.58,3.58,0,0,0-2.7-4.08,3.67,3.67,0,0,1,3.27-1.55c1.31.12,1.31-1.92,0-2-3.1-.29-5.1,2.12-6.25,4.73C137,152.39,135.81,155.82,138.71,157.08Zm.45-4.41c.16-.45.33-1,.53-1.47h0c2.37-.94,2,2.37,1.06,3.43a1.1,1.1,0,0,1-1.75.21C138.63,154.22,139,153.28,139.16,152.67Z"/><path class="cls-5" d="M65.23,138.34c-.82-1-2.25.41-1.43,1.43a10,10,0,0,1,1,1.63,5.91,5.91,0,0,0-1.31,4.9c.21,1.31,1.76,2.82,3.19,2s1.3-2.93,1.06-4.4A12.38,12.38,0,0,0,65.23,138.34Zm.24,7.43a2.85,2.85,0,0,1,.17-1.92,6.58,6.58,0,0,1,.12.86C65.8,145,65.88,147.16,65.47,145.77Z"/><path class="cls-5" d="M115.6,151.61a8.1,8.1,0,0,1-9-1.35c-1.67-1.51-2.37-4-4.28-4.9a2,2,0,0,1,.28-.32,4.1,4.1,0,0,0,.12-4.78,3.28,3.28,0,0,0-4.36-.86c-1.11.7-.09,2.49,1,1.76a1.34,1.34,0,0,1,2,.78c.4,1.06-.49,2.32-1.31,2.93a3.31,3.31,0,0,1-4.49-.28.9.9,0,0,0-1.35,0,.55.55,0,0,0-.32.2,11.59,11.59,0,0,1-3.39,2.17c-2.33.81-3.76-1.11-3.31-3.27.57-2.73,2.74-5.27,4.29-7.51,2.65-3.8,5.06-8.49,3.22-13.15-.49-1.22-2.45-.69-2,.53,2.9,7.43-5.63,13.11-7.51,19.56a5.13,5.13,0,0,0-.2,1.75,1.69,1.69,0,0,1-1.11-3.06c1.07-.77,0-2.53-1-1.75a3.9,3.9,0,0,0-1.38,4.77,2.3,2.3,0,0,0,.16.29l0,0a6.34,6.34,0,0,1-6,2.9,1,1,0,0,0-1,1,8.64,8.64,0,0,0,14.41,6.12,17.26,17.26,0,0,0,14.16,6.66A17.07,17.07,0,0,0,117.11,153,1.09,1.09,0,0,0,115.6,151.61Zm-25.39,1.84a1.11,1.11,0,0,0-1.39-.33,1,1,0,0,0-.94.25A6.58,6.58,0,0,1,76.74,150a8.42,8.42,0,0,0,6.37-3.59,4,4,0,0,0,2.37.4,3.56,3.56,0,0,0,2.16,1.92c2.78.86,5-.45,7.1-2.12a5,5,0,0,0,5.43.37.73.73,0,0,0,.29,0c2.2-.08,2.77,2.49,4,3.84a10.33,10.33,0,0,0,3.71,2.73,9.76,9.76,0,0,0,5.47.7A14.78,14.78,0,0,1,90.21,153.45Z"/><path class="cls-5" d="M166.67,146.63c-2.89.74-5.59-.86-7.26-3.14-2.21-3-2-7-1.19-10.49,1.64-7.27,6-13.6,8.05-20.74,1.71-5.92,1.71-12.94-2.05-18.13a13.79,13.79,0,0,0-11.06-5.75,17.78,17.78,0,0,0-9.55-20.82c-4.9-2.33-10.21-1.39-15.43-1.68-2.82-.16-5.72-1.1-7.35-3.51-1.27-1.88-.74-5.31,2-5.47A2,2,0,0,0,124,53.55a1.62,1.62,0,0,0-1.14-.77,16.75,16.75,0,0,0-12.37,2.41,9.1,9.1,0,0,1,2.37-5.52,1.75,1.75,0,0,0,.28-2.08,1.72,1.72,0,0,0-2.24-1.83c-6,1.87-11.72,4.77-15.56,10a17.7,17.7,0,0,0-1.1,1.75,10.66,10.66,0,0,1-1.55-3.59,1.86,1.86,0,0,0-3.06-.82c-4.12,3.35-7.72,7.19-9.64,12.21A15.83,15.83,0,0,0,79,70a2.45,2.45,0,0,1-.24-1.59,1.88,1.88,0,0,0-1.84-2.28,1.87,1.87,0,0,0-1.63,0,17.15,17.15,0,0,0-9.1,17.59c.89,5.72,4.77,10.09,9.59,12.9a70.9,70.9,0,0,0-2.86,28.5c-.57,2.08-1.1,4.16-1.67,6.24a9.71,9.71,0,0,0-7.6.53c-3.34,1.56-5.22,5.39-5.83,8.82-1.19,6.66,2.9,15.31,10.41,14.33a31,31,0,0,0,4.69,11.47c6,8.94,16,13.8,26.58,14.49,11.1.7,21.76-3.87,30.13-10.94.24-.2.49-.45.73-.65a18,18,0,0,0,24.29-1.63,1.92,1.92,0,0,0,.33-.49,22.07,22.07,0,0,0,12-7c.82-.94.65-2.82-.82-3.07a12.9,12.9,0,0,1-4-1.3,18.71,18.71,0,0,0,6.7-6.21,1.59,1.59,0,0,0-.12-2A1.71,1.71,0,0,0,166.67,146.63ZM67.8,151.49c-5,.73-6.86-5.51-6.49-9.6.41-4.36,4.61-9,9-6.85C68.86,140.43,67.59,145.9,67.8,151.49Zm38.66,25.64A31.54,31.54,0,0,1,77.64,166.8a25.77,25.77,0,0,1-6-13.39c-.82-6.29.9-12.58,2.53-18.58.65-2.49,1.35-5,2-7.47a1.51,1.51,0,0,0,.53-1.39c0-.12,0-.28,0-.4.73-2.78,1.47-5.6,2.24-8.37l0,0a7.39,7.39,0,0,1,10.62-.29c1.71,1.63,4.33-1,2.61-2.61a11.11,11.11,0,0,0-11.8-2.41,46.43,46.43,0,0,1,4.74-11.6.3.3,0,0,0,.08-.16c8.12,1.55,16.74.21,24.9.65,9,.49,17.31,4.37,22.74,11.68-1.06,3.72-4,6.49-4,10.61a6.79,6.79,0,0,0,2,4.45c1.06,1.15,2.53,1.84,3.47,3.11-3.47,5.26-6.69,10.73-7.06,17.14-.08,1.51,2.12,2.53,3.14,1.31,3.06-3.72,6.29-7.76,10.94-9.51a8.08,8.08,0,0,1,6.94,5.14,11.76,11.76,0,0,1-.85,9.23c-2.66,5.43-10.9,8.73-15,2.85-1.34-1.91-4.53-.08-3.18,1.84a11.53,11.53,0,0,0,3.59,3.31C125.89,169.78,116.87,175.53,106.46,177.13Zm-30-65.36a69,69,0,0,1,2.62-13.43c.61.24,1.18.49,1.79.69.17,0,.33.12.49.16A56.7,56.7,0,0,0,76.49,111.77Zm79,42.7c-2.33.37-1.35,3.92,1,3.55.53-.08,1.06-.2,1.59-.33a.92.92,0,0,0,.33.29,14.79,14.79,0,0,0,3.71,2,18.77,18.77,0,0,1-13.88,4.08c-2.37-.24-2.33,3.43,0,3.68a3.18,3.18,0,0,0,.61,0A14.22,14.22,0,0,1,133,167c.9-.94,1.8-1.92,2.66-2.94a1.67,1.67,0,0,0,.41-.86,9.26,9.26,0,0,0,1.55.25s0,0,0,.08a9.92,9.92,0,0,0,5.18,4c1.27.45,1.8-1.55.53-2a7.54,7.54,0,0,1-3.26-2.2,13.05,13.05,0,0,0,8.65-5.15,7.59,7.59,0,0,0,4.25,2.62c1.26.28,1.84-1.68.53-2a5.59,5.59,0,0,1-3.55-2.37c0-.08.12-.16.16-.25a15.63,15.63,0,0,0,2.16-7.55,17.55,17.55,0,0,0,1.64,2.21c.85,1,2.28-.45,1.43-1.43-5.6-6.45-4.21-15.47-2.9-23.19.2-1.31-1.76-1.84-2-.53-.82,4.57-1.55,9.47-1.1,14.12a10.47,10.47,0,0,0-3-2.36,23.43,23.43,0,0,1,.85-9.35,1,1,0,0,0-2-.53,26.18,26.18,0,0,0-1,9,15.75,15.75,0,0,0-3-.7,1.14,1.14,0,0,0-.53,0,.51.51,0,0,1-.24,0,1.44,1.44,0,0,0-1.43.66,23.9,23.9,0,0,0-6.78,4.77,54.86,54.86,0,0,1,5.55-9.59,1.52,1.52,0,0,0-.12-2c0-.08,0-.16-.08-.21a9.38,9.38,0,0,0-2.33-2.77c-1.18-1-2.81-1.84-3-3.55-.24-1.92,1-3.8,1.92-5.35a20.14,20.14,0,0,0,1.92-4.17,1.51,1.51,0,0,0,.24-2.12,32.52,32.52,0,0,0-17.75-12.9c-8.74-2.57-18.09-1-27-1.35C83.8,97,75.23,94.62,71.06,87.4c-3.26-5.68-.93-13,4.13-16.7A6.15,6.15,0,0,0,79.31,75s.08,0,.12,0a14.35,14.35,0,0,0,2.66,5.14c1.47,1.84,4.08-.78,2.61-2.61-5.43-6.74-.12-14.7,5.27-19.76a14.81,14.81,0,0,0,2.65,3.92A14.46,14.46,0,0,0,94.38,73c1.3,2,4.44.13,3.18-1.83-2.74-4.21-1.8-9.35.86-13.35,2.2-3.23,5.71-5.39,9.39-6.9a13.13,13.13,0,0,0-.86,7.35.58.58,0,0,0,.08.28,13.55,13.55,0,0,0-.61,15.23c1.3,2,4.49.12,3.18-1.84a9.9,9.9,0,0,1,.61-11.47,11.38,11.38,0,0,1,7.39-4,7.37,7.37,0,0,0-.69,6.49c1.88,5.23,7.76,6.7,12.7,6.82,3,.08,6-.29,9.06.2a14.24,14.24,0,0,1,7.22,3.68,14,14,0,0,1,3,16c-1.06,1.18-.24,3.43,1.43,3.1a1.5,1.5,0,0,0,1.15-.32c5.83-1.51,10.69,3.63,11.88,9,1.63,7.31-2.29,14.78-5.19,21.19-2.77,6.16-5.51,12.94-3.47,19.75a11.69,11.69,0,0,0,9.06,8.05A15.17,15.17,0,0,1,155.49,154.47Z"/><path class="cls-5" d="M97.23,90.25c-1.3.08-1.3,2.13,0,2,12.82-.81,28.82-1.47,37.27,10.21.78,1.06,2.54,0,1.76-1C127.28,89.11,110.91,89.4,97.23,90.25Z"/><path class="cls-5" d="M137.2,95.6a26.09,26.09,0,0,0-21.8-11c-1.31,0-1.31,2.08,0,2a23.87,23.87,0,0,1,20,10C136.18,97.68,138,96.66,137.2,95.6Z"/><path class="cls-5" d="M130.87,85.6c2.29,2.24,4.61,4.49,6.9,6.78.94.93,2.37-.53,1.43-1.43-2.29-2.25-4.61-4.49-6.9-6.78A1,1,0,0,0,130.87,85.6Z"/><path class="cls-5" d="M127,77.76A15.55,15.55,0,0,1,141,91.48c.17,1.3,2.21,1.3,2.05,0a17.64,17.64,0,0,0-16-15.76C125.73,75.6,125.73,77.64,127,77.76Z"/><path class="cls-5" d="M137,76.05a14.3,14.3,0,0,1,6.53,12,1,1,0,0,0,2,0,16.62,16.62,0,0,0-7.55-13.72C137,73.6,135.93,75.35,137,76.05Z"/><path class="cls-5" d="M146.06,82.62a1,1,0,0,0,2,.53,5.64,5.64,0,0,0-1.11-5.06c-.81-1-2.24.41-1.42,1.43A3.57,3.57,0,0,1,146.06,82.62Z"/><path class="cls-5" d="M90.25,90.66A13.15,13.15,0,0,1,75.92,77.19c0-1.31-2-1.31-2,0A15.19,15.19,0,0,0,90.25,92.7C91.56,92.62,91.56,90.58,90.25,90.66Z"/><path class="cls-5" d="M89.35,68.05c.21-1.31-1.75-1.84-2-.54a18,18,0,0,0,5,15.88c.93.94,2.36-.53,1.42-1.42A16,16,0,0,1,89.35,68.05Z"/><path class="cls-5" d="M99.56,81.23a6.75,6.75,0,0,1-3.8-4.49,1,1,0,0,0-2,.53A8.69,8.69,0,0,0,98.54,83C99.72,83.52,100.78,81.76,99.56,81.23Z"/><path class="cls-5" d="M107.89,81.8a1,1,0,0,0,1-1.75,15.69,15.69,0,0,1-6.74-18.66c.41-1.26-1.55-1.8-2-.53A17.8,17.8,0,0,0,107.89,81.8Z"/><path class="cls-5" d="M120.87,74.33c1.27.29,1.84-1.67.53-2a9.76,9.76,0,0,1-7.63-9.06c-.09-1.31-2.13-1.31-2,0A11.81,11.81,0,0,0,120.87,74.33Z"/><path class="cls-5" d="M114.3,73.8c-.86-1-2.33.45-1.43,1.43a14.58,14.58,0,0,0,5.71,4c1.23.49,1.76-1.47.53-2A12.52,12.52,0,0,1,114.3,73.8Z"/><path class="cls-5" d="M136.3,119.12c-1-.9-2.41.57-1.43,1.42a18.12,18.12,0,0,1,5,7.52c.45,1.22,2.41.69,2-.54A20.32,20.32,0,0,0,136.3,119.12Z"/><path class="cls-5" d="M140.22,117.89c-.82-1-2.25.41-1.43,1.43,1.35,1.71,2.7,3.43,4.08,5.1.82,1,2.25-.41,1.43-1.43C143,121.28,141.61,119.56,140.22,117.89Z"/><path class="cls-5" d="M140.42,113c-1.1-.73-2.12,1-1,1.76a28.25,28.25,0,0,1,5.88,5.18c.86,1,2.33-.45,1.43-1.43A31.15,31.15,0,0,0,140.42,113Z"/><path class="cls-5" d="M139.4,104.21c-1.22-.44-1.75,1.52-.53,2a18.48,18.48,0,0,1,11.56,12.74,1,1,0,0,0,2-.53A20.84,20.84,0,0,0,139.4,104.21Z"/><path class="cls-5" d="M155.49,110.26a18.21,18.21,0,0,0-11.64-8.13c-1.26-.28-1.83,1.68-.53,2a16.28,16.28,0,0,1,10.41,7.19C154.43,112.38,156.22,111.36,155.49,110.26Z"/><path class="cls-5" d="M148.59,101.23a12.43,12.43,0,0,1,6.53,4.86c.74,1.1,2.49.08,1.76-1a14.65,14.65,0,0,0-7.72-5.79C147.89,98.87,147.36,100.83,148.59,101.23Z"/><path class="cls-5" d="M151.2,98.7a17,17,0,0,1,4.08,2.9c.94.9,2.41-.53,1.43-1.43A19.42,19.42,0,0,0,152.22,97C151.08,96.34,150,98.09,151.2,98.7Z"/></svg>