<svg id="圖層_1" data-name="圖層 1" xmlns="http://www.w3.org/2000/svg" viewBox="0 0 226.77 226.77"><defs><style>.cls-1{fill:#f8c985;}.cls-2{fill:#fbddb0;}.cls-3{fill:#e77b28;}.cls-4{fill:#eda62e;}.cls-5{fill:#556f79;}</style></defs><path class="cls-1" d="M141.37,144.08h0c-.21.49-.37,1-.53,1.47s-.58,1.55-.13,2.17a1.1,1.1,0,0,0,1.76-.21C143.33,146.45,143.69,143.14,141.37,144.08Z"/><path class="cls-1" d="M89,167.19a32.27,32.27,0,0,0,19.11,2.86c10.45-1.64,19.43-7.35,26.24-15.27a10.16,10.16,0,0,1-2.36-1.84C121.49,164.49,104.05,171.27,89,167.19Z"/><path class="cls-1" d="M101.36,99.18c3.67,7.35,13.88,6.53,20,3.67,2.86-1.63,6.13-2.86,7.76-6.12.41,2.45,0,5.3-2.45,6.94,2.45,1.22,5.31,2,8.17.81,0,4.49-.41,8.58,2.44,12.25-4.12,3.1-3.3,8.53-1.26,12.86l.28-.12a2.49,2.49,0,0,1,0-.78,28.57,28.57,0,0,1,4.74-12.2,16.3,16.3,0,0,1-1.76-14.78,30.16,30.16,0,0,1-4.32-.61c-1.47-.33-1.88-2.7-.45-3.35,3.1-1.43,5.55-5.1,4.53-8.62a7.79,7.79,0,0,0-7.68-5.67c-.69,2.41-1.06,5-2,7.31a17.43,17.43,0,0,1-7.1,8.12,17.6,17.6,0,0,1-20.49-2,18.11,18.11,0,0,1-2,.49,19.6,19.6,0,0,1-11.07-1.18C91.11,100.44,97.24,102.28,101.36,99.18Z"/><path class="cls-2" d="M146.71,133.67a11.7,11.7,0,0,0-10-.45c-2.24.82-3.18-2.73-1-3.55.09,0,.17,0,.29-.08-2.08-4.33-2.9-9.76,1.27-12.86-2.86-3.67-2.45-7.76-2.45-12.25-2.86,1.23-5.72.41-8.17-.81,2.45-1.64,2.86-4.49,2.45-6.94-1.63,3.26-4.9,4.49-7.76,6.12-6.12,2.86-16.33,3.68-20-3.67-4.12,3.1-10.25,1.26-12.57-3a20.13,20.13,0,0,1-3-1.56,52.67,52.67,0,0,0-3.92,10.17,11.13,11.13,0,0,1,11.8,2.41c1.71,1.63-.9,4.24-2.62,2.61a7.38,7.38,0,0,0-10.61.29l0,0c-1.55,5.88-3.15,11.76-4.7,17.67s-3.34,12.33-2.53,18.58a26.56,26.56,0,0,0,6,13.39,30.49,30.49,0,0,0,9.72,7.51c15.1,4.12,32.54-2.65,43-14.29a10.89,10.89,0,0,1-1.23-1.47c-1.35-2,1.84-3.79,3.19-1.83a8,8,0,0,0,9.38,2.53,11.83,11.83,0,0,0,6.7-8.25C150.8,140.29,150.23,135.67,146.71,133.67Zm-70.42,7.15a1,1,0,0,1-1.38.36,1.48,1.48,0,0,1-.29-.24,1,1,0,0,1,.08-1.67,1.17,1.17,0,0,1,1.43.2A1.1,1.1,0,0,1,76.29,140.82Zm.78-2.13a1,1,0,0,1,0-2A1,1,0,0,1,77.07,138.69Zm0-3.47a1,1,0,0,1,0-2A1,1,0,0,1,77.07,135.22Zm2.45,7.56a1,1,0,0,1,0-2A1,1,0,0,1,79.52,142.78Zm.41-4.7a1,1,0,0,1,0-2A1,1,0,0,1,79.93,138.08Zm0-15.35c-.9.78-2.21-.61-1.35-1.51a4.84,4.84,0,0,1,4.16-1.55,4.25,4.25,0,0,1,1-.12c5.27,0,5.27,8.16,0,8.16C80.74,127.71,79.48,125,79.89,122.73Zm4.53,12.37c.77-1.06,2.53,0,1.75,1a1.5,1.5,0,0,0,.13,2,1.39,1.39,0,0,0,1.67,0,4.56,4.56,0,0,1,5-6.24c1.31.2.74,2.16-.53,2-2.65-.41-3.67,3.14-1.8,4.69a4.22,4.22,0,0,0,5.47-.16,1.1,1.1,0,0,1,1-.21,1.07,1.07,0,0,1,.66.25,2.49,2.49,0,0,0,2.94.37c.69-.54.85-2-.29-2-1.31-.05-1.31-2.09,0-2.05a3,3,0,0,1,2.37,4.78c-1.39,2.08-3.92,1.84-5.8.69-2.49,1.6-5.84,1.68-7.84-.44a3.5,3.5,0,0,1-4.24-.25A3.36,3.36,0,0,1,84.42,135.1Zm24.17,14.09a28,28,0,0,1-22.5,0c-2.16-.94-.28-4.13,1.84-3.19a23.67,23.67,0,0,0,18.78,0C108.87,145.1,110.75,148.25,108.59,149.19Zm.81-26.54a.84.84,0,0,0-.24.16c-1.1.74-2.13-1-1-1.75a6,6,0,0,1,6.57,0,3.76,3.76,0,0,1,1.51,1.39c.08.08.12.16.2.24a.86.86,0,0,1,.17.53c.85,2.41-.37,5.59-3.68,5.59C109.32,128.77,108.18,125.1,109.4,122.65Zm6.25,14.62a1,1,0,0,1-1-1V136a1,1,0,0,1,2,0v.2A1.07,1.07,0,0,1,115.65,137.27Zm2.24,3.87h-.2a1,1,0,0,1,0-2h.2a1,1,0,0,1,1,1A1,1,0,0,1,117.89,141.14Zm2.45-4.28a1,1,0,0,1-1-1v-.21a1,1,0,0,1,2,0v.21A1.07,1.07,0,0,1,120.34,136.86Zm1.43-6.33a1,1,0,0,1,0,2A1,1,0,0,1,121.77,130.53Zm1.43,9.59a1,1,0,1,1-2,0v-.2a1,1,0,0,1,2,0Zm.08-26.21a9.67,9.67,0,0,0-13.51-3.06c-2,1.27-3.88-1.92-1.84-3.18A13.47,13.47,0,0,1,126.51,112C127.73,114.08,124.55,115.91,123.28,113.91Zm22.5,26.5a3.58,3.58,0,0,0-3.27,1.55A3.53,3.53,0,0,1,145.2,146c-.32,2.08-2.4,5-4.89,3.92-2.9-1.26-1.72-4.69-.78-6.86,1.14-2.57,3.14-5,6.25-4.73C147.08,138.45,147.08,140.49,145.78,140.41Z"/><path class="cls-2" d="M67.39,137.59l-.12-.86a2.83,2.83,0,0,0-.16,1.92C67.48,140,67.39,137.84,67.39,137.59Z"/><path class="cls-2" d="M69.44,144.37c-.21-5.59,1.06-11.06,2.49-16.45-4.37-2.13-8.58,2.49-9,6.86C62.58,138.86,64.41,145.1,69.44,144.37Zm-3-10.08a9.77,9.77,0,0,0-1-1.64c-.81-1,.66-2.49,1.43-1.43a11.72,11.72,0,0,1,2.49,5.6c.25,1.47.45,3.55-1.06,4.41s-2.94-.7-3.18-2A5.87,5.87,0,0,1,66.42,134.29Z"/><path class="cls-3" d="M69.07,105.75a20.93,20.93,0,0,0,4.82,14.61c.85-3.22,1.71-6.45,2.57-9.63A12,12,0,0,1,69.07,105.75Z"/><path class="cls-3" d="M86.05,90.28a15.19,15.19,0,0,0,13.39,3.39,15.75,15.75,0,0,0,8.21-5.27C101,92,93,93.14,86.05,90.28Z"/><path class="cls-4" d="M156.39,115.91a12.07,12.07,0,0,0,4.45-19.26,6.32,6.32,0,0,1-.69.77c-1.68,1.68-4.29-.94-2.62-2.61,4.13-4.12,2.37-11,.45-15.8-1.51-3.8-5.3-8.65-9.88-7.27a19.14,19.14,0,0,1,.33,2.7c.12,2.37-3.55,2.37-3.67,0-.49-8.66-7.43-16.7-16.13-18a18.89,18.89,0,0,0-9,.94,2,2,0,0,1-1.19.49,20.08,20.08,0,0,0-10.2,9.72c-1,2.12-4.17.29-3.19-1.84A23,23,0,0,1,112.46,57c-6-.62-12.16-.29-17.47,2.53-5.84,3.1-10.45,9.14-9.35,16.08.37,2.33-3.18,3.31-3.55,1a17.44,17.44,0,0,1,.12-6.16C76.91,74,72.09,79,70.42,85.22s-.29,13.43,5,17.71c1.83,1.51-.78,4.09-2.62,2.62a16.42,16.42,0,0,1-3.1-3.35,27.4,27.4,0,0,0-.49,3.51,12.36,12.36,0,0,0,7.39,5c.25-1,.53-2,.78-3C78.78,102.36,80.3,97.05,83,92.2a17.53,17.53,0,0,1-2.16-2.45C79.4,87.87,82.58,86,84,87.91a14.54,14.54,0,0,0,2.16,2.29c6.94,2.85,14.9,1.67,21.6-1.84a15.6,15.6,0,0,0,3.06-6.08c.57-2.29,4.12-1.31,3.55,1a20.09,20.09,0,0,1-5.22,9.06,14.53,14.53,0,0,0,4.08,1.47,1.06,1.06,0,0,1,.65-1.31,15.57,15.57,0,0,0,10.25-14.29c0-1.3,2.08-1.3,2,0A17.69,17.69,0,0,1,115.4,94a16.18,16.18,0,0,0,9.23-2.28,20.21,20.21,0,0,0,2.73-6.7c.78-3.22,1.64-6.2,3.76-8.82,1.51-1.83,4.08.78,2.61,2.62-.24.32-.49.65-.69,1a13,13,0,0,1,2.53.61c2.78-.33,5.47-.41,8,1.14,5.39,3.35,4.94,11.43.74,16.21a5.53,5.53,0,0,0,4.08-3.88c.65-2.29,4.2-1.31,3.55,1a8.53,8.53,0,0,1-5.14,5.8,14.31,14.31,0,0,0-1.39,10.9,1.86,1.86,0,0,1,2.24,2.9,28.28,28.28,0,0,0-3.63,4.36,30.22,30.22,0,0,0-.45,6.37,15.16,15.16,0,0,1,2.7.25.92.92,0,0,1,.69-1.1,16.52,16.52,0,0,0,6.29-3.19c1-.82,2.45.61,1.42,1.43a18.34,18.34,0,0,1-6.16,3.43c2.49.86,4.74,2.37,5.67,4.73a13.82,13.82,0,0,0,5.43-12.36l-1.26.61C156.06,120,154.19,116.85,156.39,115.91ZM73.8,95.38a15.08,15.08,0,0,1,0-14.7,1,1,0,0,1,1.76,1,13.07,13.07,0,0,0,0,12.66A1,1,0,0,1,73.8,95.38Zm2.94-2.9a4.89,4.89,0,0,1-1.26-4.24,1,1,0,0,1,1.26-.7,1.06,1.06,0,0,1,.7,1.27,2.9,2.9,0,0,0,.73,2.28C79.07,92,77.64,93.42,76.74,92.48Zm12.9-13.31a6.18,6.18,0,0,0,6.09,0c1.14-.61,2.2,1.15,1,1.76a8.45,8.45,0,0,1-8.13,0A1,1,0,0,1,89.64,79.17Zm18.21,3.15a13.93,13.93,0,0,1-19.19,4.49c-1.14-.7-.08-2.45,1-1.76a11.85,11.85,0,0,0,16.42-3.79A1,1,0,0,1,107.85,82.32Zm19.23-16.25a6.66,6.66,0,0,0-4.61,1.22c-1.11.78-2.09-1-1-1.75A8.58,8.58,0,0,1,127.08,64C128.39,64.11,128.39,66.19,127.08,66.07Zm1.63-5.27a15.56,15.56,0,0,0-14,6.74c-.74,1.1-2.49.08-1.76-1a17.43,17.43,0,0,1,15.8-7.76C130,58.84,130.06,60.88,128.71,60.8Zm21.52,45.77a8.06,8.06,0,0,0,2.49-2.7,1,1,0,0,1,1.75,1,10.89,10.89,0,0,1-3.22,3.43C150.14,109.06,149.12,107.3,150.23,106.57Zm2.2,5.75c-1.18.53-2.25-1.22-1-1.75a10.07,10.07,0,0,0,6-8.17c.12-1.3,2.16-1.3,2,0A12.09,12.09,0,0,1,152.43,112.32Z"/><path class="cls-3" d="M148.39,126.12c-.33.12-.7.2-1,.29a1,1,0,0,1-1.27-.9,15.3,15.3,0,0,0-2.69-.25,30.22,30.22,0,0,1,.45-6.37,26.61,26.61,0,0,0-3.88,9.8,13.27,13.27,0,0,1,9.84,2.7,10.11,10.11,0,0,1,1.18,1.18,13.12,13.12,0,0,0,3-1.71C153.08,128.49,150.88,127,148.39,126.12Z"/><path class="cls-3" d="M146.63,100.77a14.47,14.47,0,0,1-3.26.86,12.55,12.55,0,0,0,.12,11.79c.45-.53.94-1,1.43-1.51a1.9,1.9,0,0,1,.37-.28C144.14,108.32,144.8,104.08,146.63,100.77Z"/><path class="cls-3" d="M143.41,81.62c-2.49-1.55-5.19-1.47-8-1.14a10.85,10.85,0,0,1,7.18,7.67,11.7,11.7,0,0,1-2.57,10,13.4,13.4,0,0,0,4.08-.33C148.35,93.05,148.8,85,143.41,81.62Z"/><path class="cls-3" d="M115.32,94.12a8.87,8.87,0,0,1-1,.36.87.87,0,0,1-1.18-.65,14.53,14.53,0,0,1-4.08-1.47,18.88,18.88,0,0,1-3.47,2.73c5.06,3.47,12.16,3.47,16.86-.85a13.29,13.29,0,0,0,2.12-2.45A16.27,16.27,0,0,1,115.32,94.12Z"/><path class="cls-5" d="M116.59,123.18a.86.86,0,0,0-.17-.53,1.06,1.06,0,0,0-.2-.24,3.76,3.76,0,0,0-1.51-1.39,5.91,5.91,0,0,0-6.57,0c-1.06.73,0,2.53,1,1.75a.84.84,0,0,0,.24-.16c-1.22,2.41-.08,6.12,3.47,6.12C116.18,128.77,117.4,125.59,116.59,123.18Z"/><path class="cls-5" d="M83.77,119.55a4.28,4.28,0,0,0-1,.12,4.84,4.84,0,0,0-4.16,1.55c-.86.94.45,2.33,1.35,1.51-.45,2.29.81,5,3.88,5C89,127.71,89,119.55,83.77,119.55Z"/><path class="cls-5" d="M107.93,107.67c-2,1.22-.16,4.41,1.84,3.18a9.67,9.67,0,0,1,13.51,3.06c1.27,2,4.45.17,3.19-1.83A13.4,13.4,0,0,0,107.93,107.67Z"/><path class="cls-5" d="M145.78,138.37c-3.11-.29-5.11,2.12-6.25,4.73-.94,2.17-2.12,5.6.78,6.86,2.49,1.06,4.57-1.84,4.89-3.92a3.57,3.57,0,0,0-2.69-4.08,3.67,3.67,0,0,1,3.27-1.55C147.08,140.49,147.08,138.45,145.78,138.37Zm-3.39,9.14a1.1,1.1,0,0,1-1.76.21c-.45-.62-.08-1.55.12-2.17.17-.45.33-1,.54-1.47h0C143.69,143.14,143.33,146.45,142.39,147.51Z"/><path class="cls-5" d="M68.25,141.23c1.51-.86,1.31-2.94,1.06-4.41a11.89,11.89,0,0,0-2.49-5.6c-.81-1-2.24.41-1.43,1.43a9.77,9.77,0,0,1,1,1.64,5.85,5.85,0,0,0-1.31,4.89C65.31,140.49,66.86,142,68.25,141.23Zm-1-4.5a6.58,6.58,0,0,1,.12.86c0,.25.13,2.49-.32,1.06A3.1,3.1,0,0,1,67.23,136.73Z"/><path class="cls-5" d="M89.11,139.8c2,2.12,5.35,2,7.84.45,1.88,1.1,4.45,1.34,5.8-.7a3,3,0,0,0-2.37-4.77c-1.31-.05-1.31,2,0,2s1,1.43.29,2a2.49,2.49,0,0,1-2.94-.37,1.13,1.13,0,0,0-.66-.25,1.1,1.1,0,0,0-1,.21,4.21,4.21,0,0,1-5.47.16c-1.87-1.55-.85-5.1,1.8-4.69,1.31.2,1.84-1.76.53-2a4.57,4.57,0,0,0-5,6.24,1.4,1.4,0,0,1-1.67,0,1.45,1.45,0,0,1-.13-2c.78-1.06-1-2.08-1.75-1a3.36,3.36,0,0,0,4.73,4.66Z"/><path class="cls-5" d="M69.8,148a31,31,0,0,0,4.7,11.47c6,8.94,16,13.8,26.57,14.5,11.11.69,21.76-3.88,30.13-10.94a46.64,46.64,0,0,0,6-6.13,2.07,2.07,0,0,0,.45-.85,13.3,13.3,0,0,0,5.51-.05c5.11-1.1,8.7-5.83,10.17-10.57a14.4,14.4,0,0,0-.41-9.71,17.61,17.61,0,0,0,9.84-19.64,15.85,15.85,0,0,0-.08-22.7c2-5.1.45-11.43-1.68-16.33-2.4-5.59-7.79-10.33-13.92-8.73a23.35,23.35,0,0,0-17-15.23,22,22,0,0,0-12.25,1.06c-8.61-1.47-17.47-1.63-25.35,2.57a20.81,20.81,0,0,0-8.61,8.7,1.77,1.77,0,0,0-1.06.24c-7.23,4.25-13.6,10.41-16,18.62a21.82,21.82,0,0,0,.41,13.39c0,.08-.08.12-.08.2a24.67,24.67,0,0,0,5.27,26.25,10.24,10.24,0,0,0-7.11.7c-3.35,1.55-5.22,5.38-5.84,8.81C58.21,140.33,62.33,149,69.8,148ZM150,143.88a11.57,11.57,0,0,1-6.69,8.25,8,8,0,0,1-9.39-2.54c-1.35-1.91-4.54-.08-3.19,1.84a11.64,11.64,0,0,0,3.59,3.31c-6.81,7.92-15.83,13.67-26.24,15.27a31.57,31.57,0,0,1-28.83-10.33,25.93,25.93,0,0,1-6-13.39c-.81-6.29.9-12.58,2.53-18.58S79,116,80.5,110l0,0a7.37,7.37,0,0,1,10.61-.29c1.72,1.63,4.33-1,2.62-2.61A11.11,11.11,0,0,0,82,104.69a52.67,52.67,0,0,1,3.92-10.17,19.4,19.4,0,0,0,14,2.78,17.54,17.54,0,0,0,2-.49,17.36,17.36,0,0,0,27.6-6.08c1-2.25,1.34-4.86,2-7.31a7.74,7.74,0,0,1,7.67,5.67c1,3.56-1.43,7.19-4.53,8.62a1.84,1.84,0,0,0,.45,3.35,29,29,0,0,0,4.33.61,16.27,16.27,0,0,0,1.75,14.78,28.43,28.43,0,0,0-4.73,12.2,2.49,2.49,0,0,0,0,.78l-.57.2c-2.21.82-1.27,4.37,1,3.55a11.56,11.56,0,0,1,10,.45C150.23,135.67,150.8,140.29,150,143.88ZM69.56,102.24a18.91,18.91,0,0,0,3.1,3.35c1.84,1.47,4.45-1.11,2.61-2.62-5.26-4.24-6.65-11.35-5-17.71S76.78,74,82.09,70.48A18.17,18.17,0,0,0,82,76.64c.37,2.33,3.92,1.35,3.55-1-1.1-6.94,3.51-12.94,9.35-16.08,5.31-2.82,11.51-3.15,17.47-2.53a23,23,0,0,0-7.43,8.73c-1,2.13,2.17,4,3.19,1.84a20,20,0,0,1,10.2-9.72,1.67,1.67,0,0,0,1.19-.49,18.75,18.75,0,0,1,9-.93c8.69,1.3,15.63,9.3,16.12,18,.13,2.37,3.8,2.37,3.68,0a20.73,20.73,0,0,0-.33-2.7c4.61-1.38,8.37,3.47,9.88,7.27,1.92,4.82,3.67,11.68-.45,15.8-1.67,1.67.94,4.29,2.61,2.61.25-.24.49-.53.7-.77A12.09,12.09,0,0,1,156.27,116c-2.17.93-.29,4.08,1.83,3.18.45-.2.86-.41,1.27-.61a13.81,13.81,0,0,1-8.45,14.08c-.37-.41-.78-.81-1.18-1.18a13.22,13.22,0,0,0-9.84-2.7,26.06,26.06,0,0,1,7.47-14.16c1.71-1.68-.9-4.25-2.61-2.62-.49.49-1,1-1.43,1.52a12.58,12.58,0,0,1-.13-11.8c3.84-.53,7.19-2.33,8.41-6.66.66-2.28-2.89-3.26-3.55-1-1.06,3.72-4.69,4.41-8.16,4.21a11.79,11.79,0,0,0,2.57-10c-.94-4.49-5.27-7.76-9.72-8.29.21-.33.45-.65.7-1,1.51-1.8-1.1-4.41-2.62-2.61-2.12,2.57-3,5.59-3.75,8.81-.86,3.6-2.08,6.62-4.86,9.15-4.69,4.37-11.8,4.33-16.86.86a19.93,19.93,0,0,0,8.74-11.8c.57-2.29-2.94-3.27-3.55-1A15.73,15.73,0,0,1,99.24,93.71C93.6,95.18,87.15,92.6,83.68,88c-1.43-1.88-4.61,0-3.18,1.84a21,21,0,0,0,2.16,2.45C80,97.14,78.46,102.48,77,107.83c-1.1,4.21-2.25,8.41-3.35,12.62A21.92,21.92,0,0,1,69.56,102.24ZM63,134.78c.4-4.37,4.61-9,9-6.86-1.43,5.39-2.7,10.86-2.49,16.45C64.41,145.1,62.58,138.86,63,134.78Z"/><path class="cls-5" d="M124.06,78.28a15.67,15.67,0,0,1-10.25,14.28c-1.22.45-.69,2.41.53,2A17.75,17.75,0,0,0,126.1,78.28C126.14,77,124.1,77,124.06,78.28Z"/><path class="cls-5" d="M89.68,85.05a1,1,0,0,0-1,1.76,14,14,0,0,0,19.19-4.49c.69-1.11-1.06-2.13-1.75-1A11.88,11.88,0,0,1,89.68,85.05Z"/><path class="cls-5" d="M88.62,80.93a8.34,8.34,0,0,0,8.13,0c1.14-.61.12-2.37-1-1.76a6.28,6.28,0,0,1-6.09,0A1,1,0,0,0,88.62,80.93Z"/><path class="cls-5" d="M114.71,67.58a15.35,15.35,0,0,1,14-6.74c1.31.09,1.31-2,0-2A17.53,17.53,0,0,0,113,66.56C112.18,67.62,114,68.64,114.71,67.58Z"/><path class="cls-5" d="M127.08,64a8.58,8.58,0,0,0-5.63,1.51c-1.07.73,0,2.53,1,1.75a6.6,6.6,0,0,1,4.61-1.22C128.39,66.19,128.39,64.11,127.08,64Z"/><path class="cls-5" d="M75.6,81.7c.65-1.14-1.14-2.16-1.76-1a15.08,15.08,0,0,0,0,14.7,1,1,0,0,0,1.76-1A13.07,13.07,0,0,1,75.6,81.7Z"/><path class="cls-5" d="M78.17,91a2.9,2.9,0,0,1-.73-2.28,1.08,1.08,0,0,0-.7-1.27,1,1,0,0,0-1.26.69,5.15,5.15,0,0,0,1.26,4.25C77.64,93.42,79.07,92,78.17,91Z"/><path class="cls-5" d="M152.43,112.32a12,12,0,0,0,7-10c.12-1.3-1.92-1.3-2,0a10,10,0,0,1-6,8.17C150.23,111.1,151.25,112.85,152.43,112.32Z"/><path class="cls-5" d="M150.23,106.57c-1.11.73-.09,2.49,1,1.75a10.46,10.46,0,0,0,3.22-3.43,1,1,0,0,0-1.75-1A8.06,8.06,0,0,1,150.23,106.57Z"/><path class="cls-5" d="M153.12,121.26a15.3,15.3,0,0,1-6.28,3.19,1,1,0,0,0,.53,2,18.34,18.34,0,0,0,7.18-3.72C155.57,121.83,154.1,120.41,153.12,121.26Z"/><path class="cls-5" d="M106.71,146a23.84,23.84,0,0,1-18.78,0c-2.16-.94-4,2.25-1.84,3.19a27.73,27.73,0,0,0,22.5,0C110.75,148.25,108.87,145.1,106.71,146Z"/><path class="cls-5" d="M116.67,136a1,1,0,0,0-2,0v.2a1,1,0,1,0,2,0Z"/><path class="cls-5" d="M117.89,139.1h-.2a1,1,0,0,0,0,2h.2a1,1,0,0,0,1-1A1,1,0,0,0,117.89,139.1Z"/><path class="cls-5" d="M122.18,138.9a1,1,0,0,0-1,1v.2a1,1,0,1,0,2,0v-.2A1,1,0,0,0,122.18,138.9Z"/><path class="cls-5" d="M121.36,135.63a1,1,0,0,0-2,0v.21a1,1,0,0,0,2,0Z"/><path class="cls-5" d="M121.77,130.53a1,1,0,0,0,0,2A1,1,0,0,0,121.77,130.53Z"/><path class="cls-5" d="M77.07,133.18a1,1,0,0,0,0,2A1,1,0,0,0,77.07,133.18Z"/><path class="cls-5" d="M74.7,139.27a1,1,0,0,0-.37,1.38,1,1,0,0,0,.29.29.76.76,0,0,0,.29.24,1,1,0,0,0,1.38-.36,1.14,1.14,0,0,0-1.59-1.55Zm-.28,1Zm.85.85Z"/><path class="cls-5" d="M79.52,140.74a1,1,0,0,0,0,2A1,1,0,0,0,79.52,140.74Z"/><path class="cls-5" d="M79.93,136a1,1,0,0,0,0,2A1,1,0,0,0,79.93,136Z"/><path class="cls-5" d="M77.07,136.65a1,1,0,0,0,0,2A1,1,0,0,0,77.07,136.65Z"/></svg>