<svg id="圖層_1" data-name="圖層 1" xmlns="http://www.w3.org/2000/svg" viewBox="0 0 226.77 226.77"><defs><style>.cls-1{fill:#eea16c;}.cls-2{fill:#f4b387;}.cls-3{fill:#d1d3d4;}.cls-4{fill:#e6e7e8;}.cls-5{fill:#f9cbab;}.cls-6{fill:#556f79;}</style></defs><path class="cls-1" d="M142.45,130.21c-1.71-5.47.61-13.23,6-15.6a14.21,14.21,0,0,0-5.18.9l-.21.08c-.32,5.35-4.45,10.17-4.2,15.47a1.88,1.88,0,0,1,1.55.82,7.93,7.93,0,0,0,7.43,3.06l-1.23-.61C144.9,133.06,143.27,131.84,142.45,130.21Z"/><path class="cls-2" d="M153.19,115.92a10.64,10.64,0,0,0-4.78-1.35c-5.35,2.37-7.63,10.13-6,15.6.82,1.63,2.45,2.85,4.08,4.08.45.2.86.45,1.23.61a8.13,8.13,0,0,0,2-.49,11.79,11.79,0,0,0,6.69-8.25C157.23,122.57,156.7,118,153.19,115.92Zm-.94,6.73a3.57,3.57,0,0,0-3.27,1.56,3.54,3.54,0,0,1,2.7,4.08c-.33,2.08-2.41,5-4.9,3.92-2.9-1.27-1.72-4.7-.78-6.86,1.15-2.57,3.15-5,6.25-4.74C153.55,120.74,153.55,122.78,152.25,122.65Z"/><path class="cls-3" d="M106.53,139.92a.93.93,0,0,1-.45.29,6.25,6.25,0,0,1-6.37-1.51,1.4,1.4,0,0,1-.61.24c-2.13.13-4.45,0-5.88-1.79l-.25-.37c-.08,0-.16,0-.28,0A5.81,5.81,0,0,1,89,135.27a1.17,1.17,0,0,1-.37.08,5,5,0,0,1-2.2-.37c2.57,8.53,12.29,11.8,20.13,8.66a18.1,18.1,0,0,0,4.36-2.49A6.52,6.52,0,0,1,106.53,139.92Z"/><path class="cls-3" d="M85.3,152.46a8.43,8.43,0,0,0,7.22,9.43,18.88,18.88,0,0,1-.77-4C88.85,157.48,86.6,155.31,85.3,152.46Z"/><path class="cls-3" d="M95.5,158.7c.41,2.78,1.43,5.8,4.41,5.92s5.15-1.47,7.15-3.31C102.93,162.5,98.2,161.89,95.5,158.7Z"/><path class="cls-3" d="M111.26,162.38l0,0c-.49.49-1.06,1-1.63,1.55a10.19,10.19,0,0,0,9.47-4C116.53,161.64,113.92,163.23,111.26,162.38Z"/><path class="cls-3" d="M123,158.21a1.75,1.75,0,0,1,.2,2c-.16.29-.28.53-.45.82,3.6-.33,5.52-4.25,6.41-8A9.82,9.82,0,0,1,123,158.21Z"/><path class="cls-4" d="M152.25,99.59a15,15,0,0,1,2-6.78c.69-2.86,1.51-5.92.73-8.65a8.06,8.06,0,0,0-4.32-5.11,2.37,2.37,0,0,1-.13.7,6.6,6.6,0,0,1-3.3,3.59c-1.35.65-3.51,1.23-4.29,2.65-2.33,4.29,1.14,9.92,1.31,14.37.2,5.15-2.33,9.76-4.33,14.33s-4,9.19-6.08,13.8a1.81,1.81,0,0,1-.82,1.8,34.58,34.58,0,0,1-16.49,5.84,1.52,1.52,0,0,1-1.72-1.27,2.08,2.08,0,0,1-.49-.82,20.1,20.1,0,0,0-6.73-9.75c-1.8,1.43-4.37.61-6.21-.66-2.41,1.6-6,1.43-7.67-.89a3.28,3.28,0,0,1-3.31-.54,3.24,3.24,0,0,1-.33.13,13.07,13.07,0,0,0-5.67,2.73,1.74,1.74,0,0,1-1.27.45,1.92,1.92,0,0,1-2.2-.28,10.45,10.45,0,0,1-1.35-1.31,34.25,34.25,0,0,0,0,3.51,1.17,1.17,0,0,1,0,.37v.08a1.44,1.44,0,0,1-.89,1.59,14.35,14.35,0,0,0-2.37,7.23c0,1.26-.08,3.51.69,4.94a14.82,14.82,0,0,1,1.72-3.76c1.26-2,4.45-.16,3.18,1.84a11.67,11.67,0,0,0-1.84,6.73,5.86,5.86,0,0,0,2.29,2.29c.9-2.16,4.45-1.22,3.55,1a8.38,8.38,0,0,0-.65,2.57c1.3,2.86,3.55,5.06,6.45,5.47-.08-.69-.12-1.39-.17-2.12-.12-2.37,3.56-2.37,3.68,0,0,.82.12,1.84.24,2.9,2.7,3.14,7.43,3.79,11.56,2.61.53-.49,1.06-1,1.55-1.51,1.67-1.63,4.24.9,2.65,2.53,2.66.86,5.27-.73,7.76-2.37a9.39,9.39,0,0,0,1-1.63,1.76,1.76,0,0,1,3-.16,9.8,9.8,0,0,0,6.12-5.15,31.59,31.59,0,0,0,.66-3.79c.2-2.33,3.87-2.37,3.67,0-.12,1.34-.29,2.69-.53,4.08a9.28,9.28,0,0,0,5.22-7.47c.62-4.37-.73-8.62-2.08-12.7a1.59,1.59,0,0,1,.7-2c-.21-6.12,4.9-11.39,4.12-17.67a.8.8,0,0,1,.37-.82,1.91,1.91,0,0,1,1-.78c.16-.08.36-.12.53-.2a18.69,18.69,0,0,0,1.63-17.47c-.49-1.23,1.47-1.76,2-.53a20.61,20.61,0,0,1-.86,17.35c.45-.08.86-.13,1.31-.17a16.73,16.73,0,0,0,1.75-10c-.16-1.31,1.88-1.31,2.05,0a18.93,18.93,0,0,1-1.51,10,12.54,12.54,0,0,1,2.08.29,11.55,11.55,0,0,1-.13-3.76c.17-1.3,2.21-1.3,2.05,0a11,11,0,0,0,.32,4.49,7.45,7.45,0,0,1,.94.45C155.68,108.12,152.25,103.88,152.25,99.59ZM79.26,136c-.37,1.27-2.37.74-2-.53a8.35,8.35,0,0,1,2.57-4c1-.86,2.45.57,1.43,1.43A6.55,6.55,0,0,0,79.26,136Zm1.75.21a1.06,1.06,0,0,1-.37-1.39c.17-.29.37-.53.53-.82a1,1,0,0,1,1.76,1c-.16.29-.37.53-.53.82A1.05,1.05,0,0,1,81,136.17Zm1.72,9.59a1,1,0,0,1-2-.53,11.92,11.92,0,0,1,4.28-6.65c1-.82,2.49.65,1.43,1.42A10.21,10.21,0,0,0,82.73,145.76ZM87.34,147a1,1,0,0,1-.69-1.26c.28-.78.57-1.55.81-2.29a1,1,0,0,1,1.27-.69,1,1,0,0,1,.69,1.26c-.28.78-.57,1.56-.82,2.29A1,1,0,0,1,87.34,147Zm4.78,0a14.93,14.93,0,0,0-1.72,8.46c.12,1.3-1.92,1.3-2,0a16.62,16.62,0,0,1,2-9.48C91,144.78,92.77,145.84,92.12,147Zm9.67,13.11a14.48,14.48,0,0,1-3.14-12c.24-1.31,2.2-.74,2,.53a12.2,12.2,0,0,0,2.61,10C104.08,159.64,102.65,161.11,101.79,160.09Zm3.1-4.74a6.89,6.89,0,0,1-2.08-4.41c-.12-1.3,1.92-1.3,2,0a4.72,4.72,0,0,0,1.47,2.94C107.3,154.82,105.83,156.25,104.89,155.35Zm7.39.82a18.94,18.94,0,0,1-2.73-8.25c-.13-1.3,1.92-1.3,2,0a17,17,0,0,0,2.45,7.23A1,1,0,0,1,112.28,156.17Zm1.92-13.68a6.62,6.62,0,0,1-2.86-1.34c-.16,0-.28,0-.45,0a17.78,17.78,0,0,1-4.36,2.49C98.69,146.82,89,143.56,86.4,135a5.38,5.38,0,0,1-3.47-5.47c.08-1.3,2.12-1.3,2,0a3.34,3.34,0,0,0,2.65,3.68,6,6,0,0,1-.2-3.27c.29-1.26,2.25-.73,2,.53a3.46,3.46,0,0,0,2.69,4.21,12.87,12.87,0,0,1,.05-4.33c.16-1.27,2.2-1.31,2,0-.21,1.55-.57,3.55.28,5s2.41,1.63,4,1.59A6.75,6.75,0,0,1,98,132.7c.29-1.27,2.25-.74,2,.53a4.18,4.18,0,0,0,5,5.1,6.82,6.82,0,0,1-1.26-4.33c.08-1.3,2.12-1.3,2,0a4.81,4.81,0,0,0,3.84,5.07,7.09,7.09,0,0,1-.94-3.15c-.08-1.3,2-1.3,2,0a4.91,4.91,0,0,0,4,4.53A1,1,0,0,1,114.2,142.49Zm3,15.15c-.45,1.22-2.45.69-2-.53a12.45,12.45,0,0,0,.41-8.08,1,1,0,0,1,2-.53A14.24,14.24,0,0,1,117.22,157.64Zm1.88-12.82a8.57,8.57,0,0,0-.41-3.8c-.41-1.26,1.55-1.79,2-.53a10.57,10.57,0,0,1,.41,4.9C120.86,146.66,118.9,146.09,119.1,144.82Zm2.57,9.64c-.12,1.3-2.16,1.3-2,0,.12-1.47.29-2.9.41-4.37.12-1.31,2.16-1.31,2,0C121.92,151.56,121.79,153,121.67,154.46Zm4.12-2.09a1,1,0,0,1-1.75-1,9.24,9.24,0,0,0,.49-8.45c-.53-1.22,1.47-1.75,2-.53A11,11,0,0,1,125.79,152.37Zm2.54-9.35a6.16,6.16,0,0,0-2.37-4c-1-.81.41-2.24,1.43-1.42a8,8,0,0,1,2.94,5.42C130.53,144.33,128.49,144.33,128.33,143Zm6.45,2.74c-.37,1.27-2.37.73-2-.53a9,9,0,0,0-.74-7.23c-.65-1.14,1.14-2.16,1.76-1A11,11,0,0,1,134.78,145.76ZM148,95.63c-.12-1.76-.28-3.55-.41-5.31-.08-1.3,2-1.3,2,0,.12,1.76.28,3.55.4,5.31C150.08,96.94,148,96.94,148,95.63Zm2.29-2.53a16.08,16.08,0,0,0-.61-8.66c-.45-1.26,1.55-1.79,2-.53a18,18,0,0,1,.61,9.72C152,94.93,150,94.4,150.25,93.1Z"/><path class="cls-3" d="M155.47,106.16a17.2,17.2,0,0,1-1.83-10.57c.16-.9.36-1.84.61-2.82a15.32,15.32,0,0,0-2,6.78c0,4.28,3.39,8.53,2.12,12.82a11.15,11.15,0,0,1,1.92,1.26,5.61,5.61,0,0,1,.86.82C158.41,112,156.45,108.28,155.47,106.16Z"/><path class="cls-3" d="M80.11,146.58a11.45,11.45,0,0,0,1.51,5.22,11.56,11.56,0,0,1,.82-2.94h0A5.68,5.68,0,0,1,80.11,146.58Z"/><path class="cls-3" d="M77,106.08c.12,0,.2,0,.33,0a11.11,11.11,0,0,1,.49-4,1,1,0,0,1,2,.53,10,10,0,0,0-.37,3.8c1-3.6,1.92-7.23,2.9-10.82-.57,0-1.11.08-1.68.16C78.68,99,75.66,102.61,77,106.08Z"/><path class="cls-4" d="M86,82.28c-3.39,1.18-3.43,9.06-4.41,11.51a10.55,10.55,0,0,1-1,2c.53-.08,1.1-.12,1.68-.16.49-1.84,1-3.68,1.47-5.55C84.4,87.46,85.09,84.85,86,82.28Z"/><path class="cls-5" d="M146.61,79.34a34.9,34.9,0,0,0-20.69-16.25,31.18,31.18,0,0,0-12.41-.65c12.24.24,24.57,8,27.84,19.92a8.65,8.65,0,0,1,1.79-1.14C144.08,80.77,145.8,80.28,146.61,79.34Z"/><path class="cls-2" d="M140,97.26c-.9-3.88-2.65-8.78-.57-12.61a7.83,7.83,0,0,1,1.88-2.29c-3.31-11.92-15.6-19.72-27.84-19.92a30.15,30.15,0,0,0-12.94,5.14C93.75,72.44,90.69,79.46,88.4,87a11.16,11.16,0,0,1,11.76,2.45c1.71,1.64-.9,4.25-2.61,2.62a7.39,7.39,0,0,0-10.62.28l0,0c-.16.57-.33,1.15-.45,1.72-1.47,5.55-3,11.1-4.45,16.69-.57,2.17-1.1,4.33-1.55,6.5a.94.94,0,0,1,.08.32,7.92,7.92,0,0,0,2.08,4.29,16.49,16.49,0,0,1,6.45-3,.86.86,0,0,1,.29,0,2.45,2.45,0,0,1,.33-.78c.61-1.14,2.4-.12,1.75,1A1.33,1.33,0,0,0,92.89,121a4.3,4.3,0,0,1,5.39-5.1c1.27.41.73,2.37-.53,2a2.27,2.27,0,0,0-2.78,3,1.22,1.22,0,0,1,.21.41,0,0,0,0,0,0,0c1.3,2,3.67,1.75,5.39.49,0,0,.08,0,.12-.08a1.1,1.1,0,0,1,1.39,0c1,.81,2.69,1.91,4,1.1,1-.62,1.3-2.74-.37-2.21-1.26.41-1.8-1.59-.53-2a2.79,2.79,0,0,1,3.71,2.49,2.08,2.08,0,0,1,1,.41,23.36,23.36,0,0,1,6.49,8c4.32-1,9.47-1.18,11.75-3.83,4.94-6.45,8.09-13.6,11.8-20.78v0A15.1,15.1,0,0,0,140,97.26ZM92.73,113a15.85,15.85,0,0,1-9.72-.57c-1.22-.45-.69-2.45.53-2a14,14,0,0,0,8.66.57C93.46,110.73,94,112.73,92.73,113ZM90.24,110c-3,0-4.29-2.7-3.88-5-.9.77-2.21-.61-1.35-1.51a4.81,4.81,0,0,1,4.17-1.55,3.7,3.7,0,0,1,1-.13C95.5,101.79,95.5,110,90.24,110ZM108,73c2.45.37,4.89.7,7.34,1.06,1.31.21.74,2.17-.53,2-2.45-.36-4.9-.69-7.34-1.06C106.16,74.77,106.73,72.81,108,73Zm-3.84,3.64a84.2,84.2,0,0,0,14.61,1c1.31,0,1.31,2,0,2a86.87,86.87,0,0,1-15.18-1.1C102.28,78.4,102.85,76.44,104.16,76.65Zm-3.8,38.53a1,1,0,0,1-1.75-1,19.52,19.52,0,0,0,.89-18.41c-.57-1.18,1.19-2.2,1.76-1A21.52,21.52,0,0,1,100.36,115.18ZM95.54,81.63c-1.3-.21-.73-2.17.54-2,8.08,1.26,17.26,4,25.27,1.3,1.26-.41,1.79,1.55.53,2C113.51,85.71,104,83,95.54,81.63Zm29.85,34a17.22,17.22,0,0,1-14.09-2.24c-1.1-.74-.08-2.49,1-1.76a15.35,15.35,0,0,0,12.5,2A1,1,0,0,1,125.39,115.67Zm-9.76-10.57c-1.1.73-2.12-1-1-1.76a6,6,0,0,1,6.57,0,3.83,3.83,0,0,1,1.51,1.39c.08.08.12.16.21.25a.89.89,0,0,1,.16.53c.86,2.41-.37,5.59-3.67,5.59-3.56,0-4.7-3.71-3.47-6.12A.63.63,0,0,0,115.63,105.1Zm14.12-8.94a9.66,9.66,0,0,0-13.51-3.06c-2,1.26-3.88-1.92-1.83-3.19A13.46,13.46,0,0,1,133,94.28C134.2,96.32,131,98.16,129.75,96.16Z"/><path class="cls-1" d="M116.41,129.55a26,26,0,0,1,1.18,2.78,30.43,30.43,0,0,0,12.53-4.53.37.37,0,0,1,.08-.17c2.29-5.18,4.54-10.36,6.82-15.55A57.25,57.25,0,0,0,140,104.9c-3.71,7.18-6.86,14.32-11.8,20.77C125.88,128.37,120.73,128.57,116.41,129.55Z"/><path class="cls-1" d="M77.46,113.71c.29-1.18.57-2.32.9-3.51a5.09,5.09,0,0,0-4.66.08A7.19,7.19,0,0,1,77.46,113.71Z"/><path class="cls-2" d="M73.7,110.28a8.89,8.89,0,0,0-4.32,6.78c-.37,4.08,1.47,10.33,6.49,9.59a47.65,47.65,0,0,1,1.59-12.94A7.19,7.19,0,0,0,73.7,110.28Zm1,13.23c-1.38.78-2.93-.69-3.18-2a5.71,5.71,0,0,1,1.31-4.9,10.79,10.79,0,0,0-1-1.63c-.82-1,.65-2.49,1.43-1.43a11.88,11.88,0,0,1,2.49,5.59C76,120.57,76.24,122.65,74.72,123.51Z"/><path class="cls-2" d="M73.7,119a2.88,2.88,0,0,0-.16,1.92c.41,1.39.33-.82.33-1.06A8.13,8.13,0,0,1,73.7,119Z"/><path class="cls-2" d="M147.8,126.37h0c-.21.49-.37,1-.53,1.47s-.57,1.55-.13,2.16a1.11,1.11,0,0,0,1.76-.2C149.8,128.74,150.17,125.43,147.8,126.37Z"/><path class="cls-6" d="M119.34,111.06c3.31,0,4.54-3.22,3.68-5.59a.89.89,0,0,0-.16-.53,1.21,1.21,0,0,0-.21-.25,3.9,3.9,0,0,0-1.51-1.39,6,6,0,0,0-6.57,0c-1.06.74,0,2.54,1,1.76a.84.84,0,0,0,.24-.16C114.65,107.35,115.79,111.06,119.34,111.06Z"/><path class="cls-6" d="M86.36,105c-.45,2.28.82,5,3.88,5,5.26,0,5.26-8.17,0-8.17a3.7,3.7,0,0,0-1,.13,4.82,4.82,0,0,0-4.17,1.55C84.15,104.41,85.46,105.79,86.36,105Z"/><path class="cls-6" d="M114.36,90c-2,1.23-.16,4.41,1.84,3.19a9.67,9.67,0,0,1,13.51,3.06c1.27,2,4.45.16,3.19-1.84A13.35,13.35,0,0,0,114.36,90Z"/><path class="cls-6" d="M152.25,120.61c-3.1-.28-5.1,2.13-6.25,4.74-.94,2.16-2.12,5.59.78,6.86,2.49,1.06,4.57-1.84,4.9-3.92a3.57,3.57,0,0,0-2.7-4.08,3.67,3.67,0,0,1,3.27-1.56C153.55,122.78,153.55,120.74,152.25,120.61Zm-3.39,9.19a1.1,1.1,0,0,1-1.76.2c-.44-.61-.08-1.55.13-2.16.16-.45.32-1,.53-1.47h0C150.17,125.43,149.8,128.74,148.86,129.8Z"/><path class="cls-6" d="M75.79,119.06a12.05,12.05,0,0,0-2.49-5.59c-.82-1-2.25.41-1.43,1.43a10,10,0,0,1,1,1.63,5.91,5.91,0,0,0-1.31,4.9c.21,1.31,1.76,2.82,3.19,2S76,120.57,75.79,119.06Zm-2.25,1.88A2.9,2.9,0,0,1,73.7,119a6.38,6.38,0,0,1,.13.86C73.87,120.08,74,122.33,73.54,120.94Z"/><path class="cls-6" d="M100.36,115.18a21.59,21.59,0,0,0,.9-20.49c-.57-1.18-2.33-.16-1.76,1a19.51,19.51,0,0,1-.89,18.41A1,1,0,0,0,100.36,115.18Z"/><path class="cls-6" d="M160.49,108.61c-.77-2.45-2.2-4.61-3-7.06s-.36-5.1.17-7.59c1-4.54,2-9-.17-13.31a11.69,11.69,0,0,0-9.51-6,39,39,0,0,0-20-14.78,34,34,0,0,0-28.33,3.88A31.48,31.48,0,0,0,87.34,78.56a6.89,6.89,0,0,0-5.76,2.74c-2,2.61-2.24,5.84-2.81,8.94-1.11,5.84-7,10.29-5.47,16.33a13.09,13.09,0,0,0-1.6.61c-3.34,1.55-5.22,5.39-5.83,8.82-1.07,6,2.16,13.68,8.32,14.37a18.66,18.66,0,0,0-1.47,7.76c0,2.89,1,6.65,3.76,8a15.05,15.05,0,0,0,4.9,11.26,1.8,1.8,0,0,0,1,.49,12.3,12.3,0,0,0,11.51,7.8,1.67,1.67,0,0,0,.65-.12A8,8,0,0,0,98.24,168c2.69.94,5.31.2,7.63-1.19a13.87,13.87,0,0,0,14-2.36,10,10,0,0,0,9.51-3.23,11.92,11.92,0,0,0,2.37-3.75,1.54,1.54,0,0,0,.45-.05c4.73-.89,7.91-4.73,9.22-9.18a21.06,21.06,0,0,0-.33-11,12.54,12.54,0,0,0,8.54,1.06c5.1-1.1,8.69-5.84,10.16-10.57a14.22,14.22,0,0,0-.57-10.05C161.35,115.18,161.52,111.75,160.49,108.61ZM86.89,92.32h0A7.38,7.38,0,0,1,97.5,92c1.72,1.63,4.33-1,2.62-2.62A11.24,11.24,0,0,0,88.36,87c2.25-7.51,5.35-14.57,12.17-19.39a30.41,30.41,0,0,1,25.35-4.49,34.63,34.63,0,0,1,20.69,16.25c-.81.94-2.49,1.43-3.51,1.88a8.07,8.07,0,0,0-3.67,3.43c-2.08,3.83-.33,8.73.57,12.61a15,15,0,0,1,0,7.59,57.32,57.32,0,0,1-2.94,7.23c-2.29,5.19-4.53,10.37-6.82,15.55,0,.05,0,.13-.08.17a30.69,30.69,0,0,1-12.53,4.53,23.87,23.87,0,0,0-7.64-10.82,2.16,2.16,0,0,0-1-.41,2.79,2.79,0,0,0-3.71-2.49c-1.27.41-.74,2.37.53,2,1.63-.53,1.35,1.59.37,2.21-1.31.81-3-.29-4-1.11a1.12,1.12,0,0,0-1.39,0s-.08,0-.12.09c-1.72,1.26-4.09,1.51-5.39-.49a0,0,0,0,0,0,0,1.77,1.77,0,0,0-.21-.41,2.26,2.26,0,0,1,2.78-3c1.26.4,1.79-1.56.53-2-3.27-1.06-6,2-5.39,5.1A1.33,1.33,0,0,1,91.38,119c.61-1.14-1.14-2.2-1.75-1a3.89,3.89,0,0,0-.33.78.73.73,0,0,0-.29,0,16.49,16.49,0,0,0-6.45,3,8.25,8.25,0,0,1-2.08-4.29.84.84,0,0,0-.08-.33c.45-2.16,1-4.32,1.55-6.49,1.47-5.55,3-11.1,4.45-16.69A12.15,12.15,0,0,0,86.89,92.32Zm-5.35,1.51c.94-2.49,1-10.37,4.41-11.51-.86,2.57-1.55,5.18-2.24,7.76-1.47,5.47-2.9,10.9-4.37,16.37a11.87,11.87,0,0,1,.37-3.8,1,1,0,0,0-2-.53,13.17,13.17,0,0,0-.49,4c-.13,0-.21,0-.33,0C75.38,101.87,80.15,97.47,81.54,93.83ZM69.38,117.06c.41-4.37,4.61-9,9-6.86-1.43,5.39-2.7,10.86-2.49,16.45C70.89,127.39,69,121.14,69.38,117.06Zm87.07,9.1a11.52,11.52,0,0,1-6.69,8.25,8,8,0,0,1-9.39-2.53,1.88,1.88,0,0,0-1.55-.82c-.25-5.3,3.88-10.12,4.2-15.47.08,0,.12,0,.21-.08a11.53,11.53,0,0,1,10,.45C156.7,118,157.23,122.57,156.45,126.16Zm.7-11.67c-.29-.29-.57-.57-.86-.82a10.44,10.44,0,0,0-2.86-1.71,10.25,10.25,0,0,1-.32-4.49c.16-1.31-1.88-1.31-2.05,0a11.45,11.45,0,0,0,.13,3.75,12.51,12.51,0,0,0-2.08-.28,18.51,18.51,0,0,0,1.51-10c-.17-1.31-2.21-1.31-2.05,0a16.8,16.8,0,0,1-1.75,10c-.45,0-.86.08-1.31.16a20.46,20.46,0,0,0,.86-17.35c-.49-1.18-2.45-.69-2,.53a18.8,18.8,0,0,1-1.63,17.47,2.66,2.66,0,0,0-.53.21,1.89,1.89,0,0,0-1,.77.81.81,0,0,0-.37.82c.78,6.29-4.33,11.51-4.12,17.68a1.59,1.59,0,0,0-.7,2c1.35,4.08,2.7,8.37,2.08,12.69a9.25,9.25,0,0,1-5.22,7.47c.24-1.38.41-2.77.53-4.08.2-2.37-3.47-2.33-3.67,0-.41,4.16-2.13,11.31-7,11.76a4.63,4.63,0,0,0,.45-.82c1.11-2.08-2.08-4-3.18-1.84a10.27,10.27,0,0,1-10.49,5.6c.57-.53,1.14-1.06,1.63-1.55,1.67-1.68-.9-4.25-2.61-2.62-2.45,2.41-5,4.9-8.7,4.78-4.12-.16-4.49-5.88-4.65-8.82-.12-2.37-3.8-2.37-3.68,0a27.11,27.11,0,0,0,.94,6c-5.63-.77-8.81-6.57-6.57-12,.9-2.2-2.65-3.14-3.55-1a13.47,13.47,0,0,0-.82,2.94,11.56,11.56,0,0,1,.37-12c1.27-2-1.92-3.88-3.18-1.84A17.15,17.15,0,0,0,77,141.64c-.77-1.39-.73-3.68-.69-4.94a14.05,14.05,0,0,1,2.36-7.23,1.5,1.5,0,0,0,.9-1.59v-.08a1.17,1.17,0,0,0,0-.37,34.38,34.38,0,0,1,0-3.51,10.45,10.45,0,0,0,1.35,1.31,1.92,1.92,0,0,0,2.2.28,2,2,0,0,0,1.27-.45A12.66,12.66,0,0,1,90,122.33a1.51,1.51,0,0,0,.33-.13,3.28,3.28,0,0,0,3.31.54c1.67,2.32,5.3,2.49,7.67.89,1.84,1.27,4.41,2,6.21.66a20.1,20.1,0,0,1,6.73,9.75,2.27,2.27,0,0,0,.49.82,1.55,1.55,0,0,0,1.72,1.27,34.16,34.16,0,0,0,16.49-5.84,1.84,1.84,0,0,0,.82-1.8c2-4.61,4-9.18,6.08-13.8s4.53-9.18,4.33-14.33c-.17-4.49-3.64-10.12-1.31-14.37.77-1.42,2.94-2,4.29-2.65a6.32,6.32,0,0,0,3.3-3.59,2.34,2.34,0,0,0,.12-.7,7.86,7.86,0,0,1,4.33,5.11c1.06,3.67-.77,7.84-1.35,11.47a17.33,17.33,0,0,0,1.84,10.57C156.45,108.28,158.41,112,157.15,114.49Z"/><path class="cls-6" d="M121.92,83c1.22-.4.69-2.36-.53-2-8,2.66-17.19,0-25.27-1.3-1.31-.21-1.84,1.75-.53,2C104,83,113.51,85.71,121.92,83Z"/><path class="cls-6" d="M103.59,78.61a86.59,86.59,0,0,0,15.18,1.1c1.31,0,1.31-2.08,0-2a83.93,83.93,0,0,1-14.61-1C102.85,76.44,102.28,78.4,103.59,78.61Z"/><path class="cls-6" d="M107.47,75c2.44.37,4.89.7,7.34,1.06,1.31.17,1.84-1.79.53-2-2.45-.36-4.89-.69-7.34-1.06C106.73,72.81,106.16,74.77,107.47,75Z"/><path class="cls-6" d="M124.86,113.67a15.06,15.06,0,0,1-12.5-2c-1.1-.73-2.12,1.06-1,1.76a17.35,17.35,0,0,0,14.09,2.24C126.65,115.31,126.12,113.35,124.86,113.67Z"/><path class="cls-6" d="M83,112.45a15.85,15.85,0,0,0,9.72.57,1,1,0,0,0-.53-2,14,14,0,0,1-8.66-.57C82.32,110,81.79,112,83,112.45Z"/><path class="cls-6" d="M147.55,90.32c.13,1.76.29,3.55.41,5.31.08,1.31,2.12,1.31,2,0-.12-1.76-.28-3.55-.4-5.31C149.51,89,147.47,89,147.55,90.32Z"/><path class="cls-6" d="M149.64,84.44a16.05,16.05,0,0,1,.61,8.66c-.25,1.26,1.71,1.83,2,.53a18.33,18.33,0,0,0-.61-9.72C151.15,82.69,149.19,83.22,149.64,84.44Z"/><path class="cls-6" d="M114.77,140.49a5,5,0,0,1-4-4.53c-.08-1.3-2.12-1.3-2,0a7.42,7.42,0,0,0,.94,3.15,4.71,4.71,0,0,1-3.84-5.07c.08-1.3-2-1.3-2,0a6.7,6.7,0,0,0,1.27,4.33,4.16,4.16,0,0,1-5-5.1c.28-1.27-1.68-1.84-2-.53a6.24,6.24,0,0,0,.44,4.24c-1.55.08-3.06,0-4-1.59s-.48-3.43-.28-5c.16-1.31-1.88-1.27-2,0a12.61,12.61,0,0,0,0,4.33,3.46,3.46,0,0,1-2.7-4.21c.29-1.26-1.67-1.83-2-.53a5.89,5.89,0,0,0,.21,3.27,3.36,3.36,0,0,1-2.66-3.68c.09-1.3-2-1.3-2,0a5.39,5.39,0,0,0,5.64,5.8,1.17,1.17,0,0,0,.36-.08,5.61,5.61,0,0,0,3.72,1.55.68.68,0,0,0,.28,0l.25.37c1.39,1.83,3.76,1.92,5.88,1.79a.84.84,0,0,0,.61-.24,6.25,6.25,0,0,0,6.37,1.51.9.9,0,0,0,.45-.29,7.12,7.12,0,0,0,4.86,1.23,7.16,7.16,0,0,0,2.85,1.35C115.51,142.74,116,140.78,114.77,140.49Z"/><path class="cls-6" d="M100.61,148.62c.24-1.31-1.76-1.84-2-.53a14.48,14.48,0,0,0,3.14,12c.86,1,2.29-.45,1.43-1.43A12.2,12.2,0,0,1,100.61,148.62Z"/><path class="cls-6" d="M104.89,150.94c-.12-1.3-2.16-1.3-2,0a7,7,0,0,0,2.08,4.41c.94.9,2.41-.53,1.43-1.43A4.72,4.72,0,0,1,104.89,150.94Z"/><path class="cls-6" d="M90.36,146a16.62,16.62,0,0,0-2,9.48c.12,1.3,2.16,1.3,2,0A14.61,14.61,0,0,1,92.12,147C92.77,145.84,91,144.78,90.36,146Z"/><path class="cls-6" d="M89.46,144a1,1,0,0,0-.69-1.26,1.08,1.08,0,0,0-1.27.69c-.28.78-.57,1.55-.81,2.29a1,1,0,0,0,.69,1.26,1.07,1.07,0,0,0,1.27-.69C88.89,145.52,89.18,144.74,89.46,144Z"/><path class="cls-6" d="M85.05,138.53a12,12,0,0,0-4.28,6.66,1,1,0,0,0,2,.53A10.34,10.34,0,0,1,86.48,140C87.54,139.19,86.07,137.72,85.05,138.53Z"/><path class="cls-6" d="M111.59,148c-.12-1.3-2.17-1.3-2,0a19.11,19.11,0,0,0,2.73,8.25c.7,1.1,2.45.08,1.76-1A16.44,16.44,0,0,1,111.59,148Z"/><path class="cls-6" d="M115.63,149a12.45,12.45,0,0,1-.41,8.08c-.49,1.22,1.51,1.75,2,.53a14.32,14.32,0,0,0,.41-9.14A1,1,0,0,0,115.63,149Z"/><path class="cls-6" d="M120,150.13c-.12,1.47-.29,2.9-.41,4.37-.12,1.3,1.92,1.3,2,0,.12-1.47.29-2.9.41-4.37C122.2,148.82,120.16,148.82,120,150.13Z"/><path class="cls-6" d="M124.53,142.9a9.24,9.24,0,0,1-.49,8.45,1,1,0,0,0,1.75,1,11.16,11.16,0,0,0,.7-10C126,141.15,124,141.68,124.53,142.9Z"/><path class="cls-6" d="M127.43,137.6c-1-.82-2.49.61-1.43,1.42a6.16,6.16,0,0,1,2.37,4c.16,1.31,2.2,1.31,2,0A8.34,8.34,0,0,0,127.43,137.6Z"/><path class="cls-6" d="M132.08,138a9,9,0,0,1,.74,7.23,1,1,0,0,0,2,.53,11.33,11.33,0,0,0-.94-8.82C133.22,135.8,131.43,136.82,132.08,138Z"/><path class="cls-6" d="M81.3,132.86c1-.86-.45-2.29-1.43-1.43a8.35,8.35,0,0,0-2.57,4,1,1,0,0,0,2,.53A6.55,6.55,0,0,1,81.3,132.86Z"/><path class="cls-6" d="M82.4,135.8c.16-.29.37-.53.53-.82a1,1,0,0,0-1.76-1c-.16.29-.36.53-.53.82a1,1,0,0,0,1.76,1Z"/><path class="cls-6" d="M121.06,145.35a10.57,10.57,0,0,0-.41-4.9c-.41-1.22-2.41-.69-2,.53a8.09,8.09,0,0,1,.41,3.8C118.9,146.09,120.86,146.66,121.06,145.35Z"/></svg>