<svg id="圖層_1" data-name="圖層 1" xmlns="http://www.w3.org/2000/svg" viewBox="0 0 226.77 226.77"><defs><style>.cls-1{fill:#d79b4d;}.cls-2{fill:#c6873a;}.cls-3{fill:#5f7d89;}.cls-4{fill:#556f79;}</style></defs><path class="cls-1" d="M64.78,125.46c-.41,4.65,1.83,11.71,7.59,10.69C72.12,130,73.47,124,75.06,118a3.23,3.23,0,0,1,.08-.33C70.12,115.05,65.22,120.44,64.78,125.46Zm6.08,6.94c-1.47.85-3.1-.78-3.35-2.17A6.28,6.28,0,0,1,69,124.84,11.33,11.33,0,0,0,67.8,123c-.82-1,.65-2.49,1.43-1.43A13.27,13.27,0,0,1,72,127.66C72.25,129.21,72.45,131.46,70.86,132.4Z"/><path class="cls-2" d="M140.22,143.7a1.62,1.62,0,0,1,.77-2.49.84.84,0,0,1-.24-.16c-.7-.57-1.55-1.14-2.41-1.8l-.37,1.11a26.08,26.08,0,0,1-4.9,10.2,25.07,25.07,0,0,1-6.94,6.13c-2.85,1.63-5.71,3.67-9,4.08-7.35,1.63-18.78,4.49-21.63-4.08a10,10,0,0,1-8.7.36,36.22,36.22,0,0,0,30,7.23c11-2.16,20.33-8.45,27.52-16.86A12.53,12.53,0,0,1,140.22,143.7Z"/><path class="cls-1" d="M95.52,156.69c2.85,8.57,14.28,5.71,21.63,4.08,3.27-.41,6.13-2.45,9-4.08a25.07,25.07,0,0,0,6.94-6.13,26.08,26.08,0,0,0,4.9-10.2,5.36,5.36,0,0,0,.37-1.11c-1.84-1.38-3.63-3-3.55-5.14,0-1.59,1.59-3.22,2.32-4.57a42.92,42.92,0,0,0,2.25-4.37,51.63,51.63,0,0,0,4.45-19.1c-1.76-.78-3.47-1.56-5.23-2.33a1.84,1.84,0,0,1-.85-2.08,31.56,31.56,0,0,0,.94-13.76,188.83,188.83,0,0,1-48.09-8,36.57,36.57,0,0,0-3.15,6.65c-.69,1.92-1.26,3.84-1.83,5.8a12.06,12.06,0,0,1,13.22,2.49c1.72,1.63-.9,4.25-2.61,2.61a8.4,8.4,0,0,0-12,.29L84,97.9,82.21,105c-1.72,6.37-3.6,12.74-5,19.19-1.31,6-2,12.21-.17,18.17a30.64,30.64,0,0,0,8.09,13.18c.53.49,1.06,1,1.63,1.47A10,10,0,0,0,95.52,156.69Zm24.78-38.42c-3.92,0-4.94-4.53-3-6.86a5,5,0,0,0-1.19.57c-1.1.74-2.12-1-1-1.75a6.53,6.53,0,0,1,9,1.71.78.78,0,0,1,0,1C124.7,115.37,123.44,118.27,120.3,118.27Zm-5.39-22.78a14.68,14.68,0,0,1,20.29,4.78c1.26,2-1.92,3.88-3.19,1.84a10.93,10.93,0,0,0-15.27-3.47C114.74,99.94,112.91,96.76,114.91,95.49Zm-2,48.5c-2.37-1.51-4.74-3-7.07-4.49-1.55-1-5.55-4.29-6.77-1.35a.87.87,0,0,1-1.51.21.9.9,0,0,1-.86-.74c-.49-2.12-7.31,1.1-8.41,1.51s-1.76-1.51-.53-2c2.37-.85,8.45-4.2,10.41-1.26,1.51-1.35,4-1,5.71,0,3.43,2,6.74,4.24,10.09,6.37A1,1,0,0,1,112.87,144Zm-5.72.61a68.44,68.44,0,0,1-17-3c-1.27-.41-.74-2.37.53-2a65.49,65.49,0,0,0,16.41,2.94C108.46,142.6,108.46,144.64,107.15,144.6Zm-9.63-27.27a11.71,11.71,0,0,0,.85-13.14,1,1,0,0,1,1.76-1,13.79,13.79,0,0,1-1.19,15.63C98.17,119.78,96.7,118.35,97.52,117.33Zm-13.07-6a2.65,2.65,0,0,0-.61.53c-.9,1-2.33-.49-1.43-1.43A5.4,5.4,0,0,1,88,108.92h.17c5.26,0,5.26,8.17,0,8.17C84.66,117.09,83.47,113.7,84.45,111.29Zm2.82,13.84c1-.9,2.41.57,1.43,1.43a1.75,1.75,0,0,0,1.55,3.1c-.12-.33-.2-.65-.29-1a5.18,5.18,0,0,1,2.53-5.1,7.3,7.3,0,0,1,6.7,0c1.18.53.16,2.28-1,1.75-1.67-.73-4-1-5.35.62a3,3,0,0,0,.61,4.61c2.58,1.55,5.43.65,8.09-.2a.72.72,0,0,1,.61,0,.85.85,0,0,1,.77.12c1.64,1,4.45,1.59,5.47-.61.74-1.56-.77-3.39-2.32-2.25-1.06.78-2.08-1-1-1.76,2.61-2,6.57.94,5.51,4.09-1.27,3.75-5.39,4.2-8.49,2.41-3.31,1.06-8.33,1.83-10.78-.82a4,4,0,0,1-4.65-1.18A4.14,4.14,0,0,1,87.27,125.13Zm-.21,19c-1.06-.73,0-2.53,1-1.75,3.14,2.2,4.32,6.2,8.41,7.14,4.65,1,9-.9,13.18-2.77,1.19-.54,2.25,1.22,1,1.75-4.2,1.92-8.82,4-13.55,3.23a11,11,0,0,1-5.39-2.33C90.05,147.75,89,145.46,87.06,144.11Z"/><path class="cls-2" d="M157.32,123.7a10.83,10.83,0,0,0-4-1.22,43.91,43.91,0,0,0-8.16,18.33,1.49,1.49,0,0,1-1.51,1.3,8.83,8.83,0,0,0,4.53,3C146.38,136.64,149,127,157.32,123.7Z"/><path class="cls-1" d="M161.4,128.52a8.42,8.42,0,0,0-4.08-4.82c-8.28,3.31-10.94,12.94-9.14,21.39a8.59,8.59,0,0,0,4.33.12,11.71,11.71,0,0,0,7.79-6.28C161.89,135.83,162.63,131.91,161.4,128.52Zm-4.65,2.94a4.19,4.19,0,0,0-3.84,1.92,3.84,3.84,0,0,1,3.11,4.41c-.37,2.24-2.66,5.47-5.35,4.24-3.1-1.39-1.76-5.1-.74-7.43,1.27-2.82,3.39-5.47,6.82-5.18C158.06,129.54,158.06,131.58,156.75,131.46Z"/><path class="cls-1" d="M151.81,135.54a.15.15,0,0,0-.12,0,14.88,14.88,0,0,0-.61,1.67c-.21.7-.66,1.8-.13,2.49a1.54,1.54,0,0,0,2.21-.28C154.22,138.15,154.42,134.52,151.81,135.54Z"/><path class="cls-3" d="M97.92,77.77l-.73-2.57a1.82,1.82,0,0,1,3.51-1l.73,2.57a1.85,1.85,0,0,1-.93,2.13c2.61.65,5.22,1.22,7.83,1.75a1.77,1.77,0,0,1-.73-1.47V76.63a1.84,1.84,0,1,1,3.67,0V79.2A1.84,1.84,0,0,1,109.93,81a179.25,179.25,0,0,0,18,2.57,1.65,1.65,0,0,1,.41-.69l.24-.29c.08-.12.12-.2.21-.33a1.42,1.42,0,0,0,.16-.36c0-.13.08-.21.12-.33a1.82,1.82,0,1,1,3.51,1,5.31,5.31,0,0,1-.57,1.35c2.25.16,4.49.28,6.74.36l0,0a1.89,1.89,0,0,1,.65-2.53c.57-.28,1.1-.61,1.67-.9a1.85,1.85,0,0,1,1.88,3.19c-.49.28-1,.53-1.47.82a1.45,1.45,0,0,1,.57,1,35.81,35.81,0,0,1,.62,4.57,2.06,2.06,0,0,1,1.47-.78,5,5,0,0,0,1.91-.65,1.91,1.91,0,0,1,2.54.65,1.89,1.89,0,0,1-.66,2.53,9.55,9.55,0,0,1-3.79,1.15,1.67,1.67,0,0,1-1.39-.66,35.73,35.73,0,0,1-1,8.53c.41.21.85.37,1.26.58a1.71,1.71,0,0,1-.24-.9,1.85,1.85,0,0,1,1.83-1.84l2.58.12a1.84,1.84,0,0,1,0,3.68l-2-.12c.53.24,1.06.49,1.59.69a1.92,1.92,0,0,1,.65.45,1.79,1.79,0,0,1,.82-.49,2,2,0,0,1,1,0l.45.2c.36.17.69.29,1.06.45a1.83,1.83,0,0,1,.86,1.1,1.77,1.77,0,0,1-.21,1.43,1.88,1.88,0,0,1-1.1.86,2,2,0,0,1-1,0l-.45-.2c-.37-.17-.69-.29-1.06-.45l-.25-.13c0,1.31-.16,2.58-.28,3.88a1.75,1.75,0,0,1,2.37-.53c1.1.61,2.16,1.27,3.26,1.88a1.84,1.84,0,0,1-1.84,3.18c-1.1-.61-2.16-1.26-3.26-1.87a1.72,1.72,0,0,1-.74-.78c-.12.9-.28,1.76-.45,2.65a1.84,1.84,0,0,1,1.11-.36,1.92,1.92,0,0,1,1.3.53c.45.36.9.69,1.35,1.06a1.71,1.71,0,0,1,.53,1.3,2,2,0,0,1-.53,1.31,1.89,1.89,0,0,1-1.31.53,1.94,1.94,0,0,1-1.3-.53c-.45-.37-.9-.69-1.35-1.06a1.91,1.91,0,0,1-.33-.41c-.16.65-.32,1.35-.53,2a2.57,2.57,0,0,1,.57.57,9.91,9.91,0,0,0,2.7,2.62l0,0c.78-1.15,1.59-2.29,2.49-3.39a1.43,1.43,0,0,1,2-.37c.21,0,.41,0,.65.08.17-.49.29-1,.41-1.47a1.82,1.82,0,0,1-.94-2.08,2,2,0,0,1,1.76-1.39c.2-1,.37-2,.49-3.1l-2.94-.73c-2.29-.58-1.31-4.13,1-3.56.78.21,1.51.37,2.29.58,0-1,0-2,0-2.9-.94-.21-1.88-.37-2.82-.57-2.33-.45-1.35-4,1-3.56.53.13,1.1.21,1.63.33,0-.49-.08-.94-.16-1.43-.49,0-1,0-1.51.08a1.85,1.85,0,0,1-1.84-1.83,1.89,1.89,0,0,1,1.84-1.84c.28,0,.57,0,.9-.08-.21-.94-.45-1.88-.7-2.82a27.14,27.14,0,0,0-3,.65c-2.28.62-3.26-2.94-1-3.55.94-.24,1.88-.45,2.82-.61-.41-1-.82-2-1.27-3-.73.24-1.47.53-2.2.77-2.25.78-3.19-2.77-1-3.55.49-.16,1-.32,1.43-.49a39,39,0,0,0-3-4.36c-.7.36-1.39.69-2,1.06-2.13,1.06-4-2.09-1.84-3.19.49-.24.94-.49,1.43-.73a25.53,25.53,0,0,0-2.21-2.08c-.61.44-1.26.89-1.87,1.34-2,1.35-3.76-1.83-1.84-3.18.24-.16.49-.37.73-.53a41.11,41.11,0,0,0-3.47-2.21l-.49.49c-1.55,1.55-3.83-.53-2.89-2.2a41.27,41.27,0,0,0-4.41-1.59,27.87,27.87,0,0,1-1.47,3.38c-1.06,2.13-4.25.25-3.19-1.83a16.44,16.44,0,0,0,1-2.37,34.44,34.44,0,0,0-5.83-.53c.08,1.18.16,2.33.24,3.51.16,2.37-3.51,2.37-3.67,0-.09-1.1-.17-2.2-.25-3.31a32.74,32.74,0,0,0-5.1,1c.08.74.2,1.47.24,2.21.17,2.37-3.51,2.32-3.67,0,0-.33-.08-.66-.12-1a35.84,35.84,0,0,0-4.7,2.28c.25.53.49,1,.7,1.55a1.92,1.92,0,0,1-.66,2.54,1.9,1.9,0,0,1-2.53-.66c-.2-.45-.41-.9-.61-1.3a31.72,31.72,0,0,0-3.31,2.89,1.82,1.82,0,0,1-.16,2.41,1.92,1.92,0,0,1-2.25.29.87.87,0,0,1-.16.2c1.8.53,3.59,1,5.39,1.51A1,1,0,0,1,97.92,77.77Zm52.75,18.38A1.83,1.83,0,0,1,148.83,98l-2.69-.12A1.89,1.89,0,0,1,144.3,96a1.82,1.82,0,0,1,1.84-1.83l2.69.12A1.88,1.88,0,0,1,150.67,96.15ZM139,77.33a1.85,1.85,0,0,1,0,2.61c-.81.73-1.59,1.51-2.41,2.24a1.85,1.85,0,0,1-2.61-2.61c.82-.73,1.59-1.51,2.41-2.24A1.85,1.85,0,0,1,139,77.33Zm-7.88-2.49c.62-.86,1.23-1.72,1.8-2.58a1.9,1.9,0,0,1,2.53-.65,1.86,1.86,0,0,1,.65,2.53c-.61.86-1.22,1.72-1.79,2.57a1.85,1.85,0,0,1-3.19-1.87Zm-4.94-3.39a3.7,3.7,0,0,0,.37-.41,3.49,3.49,0,0,1,.25-.41s0-.12.08-.16a.38.38,0,0,1,0-.13,2.94,2.94,0,0,0,.16-.65,1.82,1.82,0,0,1,3.51,1A5.91,5.91,0,0,1,128.7,74a1.82,1.82,0,1,1-2.57-2.57Zm-1.83,8.81,1.34-3a1.85,1.85,0,0,1,2.53-.65,1.88,1.88,0,0,1,.66,2.53c-.45,1-.9,2-1.35,3a1.84,1.84,0,0,1-2.53.66A1.91,1.91,0,0,1,124.3,80.26Zm-4.74-11.71a1.84,1.84,0,1,1,3.67,0,15.24,15.24,0,0,1,0,4.37,1.84,1.84,0,0,1-3.67,0A20,20,0,0,0,119.56,68.55ZM119,79.82c.16-.9.29-1.8.45-2.7a1.83,1.83,0,0,1,2.24-1.26A1.87,1.87,0,0,1,123,78.1c-.16.9-.29,1.8-.45,2.7a1.83,1.83,0,0,1-2.24,1.26A1.86,1.86,0,0,1,119,79.82Zm-1.22-5.56a12.35,12.35,0,0,1-.82,4.86,1.87,1.87,0,0,1-2.25,1.27,1.81,1.81,0,0,1-1.26-2.25,9.7,9.7,0,0,0,.65-3.88C114.05,71.9,117.72,71.9,117.81,74.26Zm-3.68-6.2a11.65,11.65,0,0,1,.53,4.12,1.84,1.84,0,1,1-3.67,0,8.17,8.17,0,0,0-.37-3.14C109.89,66.75,113.4,65.81,114.13,68.06Zm-9.76.94a1.84,1.84,0,0,1,2.25,1.26c.41,1.15.78,2.33,1.18,3.47a1.82,1.82,0,1,1-3.51,1c-.41-1.14-.77-2.32-1.18-3.47A1.83,1.83,0,0,1,104.37,69Z"/><path class="cls-1" d="M69.8,127.17a3.36,3.36,0,0,0-.33,2.49c.53,1.72.57-.94.57-1.22S69.88,127.62,69.8,127.17Z"/><path class="cls-4" d="M157.49,119.78c.08-.28.2-.61.28-.9a1.84,1.84,0,0,0,.94-3.55h0c.25-1.14.45-2.32.61-3.51.08,0,.17,0,.25,0,2.28.57,3.26-2.94,1-3.55l-.82-.2c.08-1.15.12-2.25.12-3.39,1.47-.57,1.84-3.06-.08-3.47h0c0-.66-.12-1.31-.16-1.92,1.75-.33,2.32-3.14.24-3.55l-.77-.12c-.21-1.15-.49-2.29-.78-3.39,2.21-.21,2.16-3.72-.16-3.68-.33,0-.66,0-1,0-.12-.32-.25-.65-.37-.94-.37-1-.77-2-1.22-2.89,1.91-.94.93-4.21-1.23-3.43-.16,0-.33.12-.49.16a44.26,44.26,0,0,0-3.26-4.82c.44-.24.89-.45,1.34-.69,2.13-1.1.25-4.25-1.83-3.19-.66.33-1.31.66-2,1-.82-.86-1.68-1.72-2.53-2.49a5.68,5.68,0,0,1,.65-.45c1.92-1.35.08-4.54-1.84-3.19-.57.41-1.14.78-1.71,1.19a43.56,43.56,0,0,0-4.62-3.07,6.2,6.2,0,0,0,.41-1,1.8,1.8,0,0,0-1.26-2.24A1.84,1.84,0,0,0,135,63.85c0,.09-.08.21-.12.29a39.57,39.57,0,0,0-5.47-2l.12-.61c.49-2.33-3.06-3.31-3.55-1,0,.24-.12.53-.16.77a38.31,38.31,0,0,0-7.15-.57c0-.33,0-.61-.08-.94-.16-2.37-3.84-2.37-3.67,0,0,.41,0,.78.08,1.19a34.77,34.77,0,0,0-5.51,1c0-.25-.13-.49-.17-.74a1.84,1.84,0,0,0-3.55,1c.08.29.16.57.21.86a34.18,34.18,0,0,0-5.56,2.57c-.12-.29-.24-.57-.36-.82a1.86,1.86,0,0,0-2.54-.65,1.89,1.89,0,0,0-.65,2.53c.16.33.29.66.45,1a34.92,34.92,0,0,0-3.84,3.19,0,0,0,0,0,0,0,1.85,1.85,0,0,0-2.53-.66,1.88,1.88,0,0,0-.65,2.53c.16.33.37.7.53,1a35.29,35.29,0,0,0-4.86,7.56c-2.61,5.51-4,11.55-5.59,17.43-1.39,5.14-2.74,10.29-4.13,15.43a10.42,10.42,0,0,0-8.53.53c-3.63,1.76-5.67,5.92-6.32,9.72-.66,4,0,8.45,2.53,11.63a9.91,9.91,0,0,0,9,3.84A33.84,33.84,0,0,0,77,151.18c5.43,9.22,15.07,15.18,25.52,17,11,1.88,22.16-.94,31.55-6.78a56.92,56.92,0,0,0,13.11-11.51,2,2,0,0,0,.45-1,13.23,13.23,0,0,0,4.24.28c4.86-.4,8.82-3.63,11.31-7.67a17.11,17.11,0,0,0,1.59-14.37A11.89,11.89,0,0,0,157.49,119.78ZM93,76.59a1.89,1.89,0,0,0,2.24-.29,1.85,1.85,0,0,0,.16-2.4A33,33,0,0,1,98.74,71c.2.45.41.9.61,1.3a1.85,1.85,0,0,0,2.53.66,1.88,1.88,0,0,0,.66-2.53c-.25-.53-.49-1-.7-1.56a31.4,31.4,0,0,1,4.7-2.28c0,.33.08.65.12,1,.16,2.33,3.84,2.37,3.67,0a20.73,20.73,0,0,0-.24-2.21,37,37,0,0,1,5.1-1c.08,1.1.17,2.2.25,3.3.16,2.37,3.83,2.37,3.67,0-.08-1.18-.16-2.33-.24-3.51a30.69,30.69,0,0,1,5.83.53,22.55,22.55,0,0,1-1,2.37c-1.06,2.12,2.13,4,3.19,1.84a28.7,28.7,0,0,0,1.47-3.39,32.48,32.48,0,0,1,4.41,1.59c-.94,1.67,1.38,3.76,2.89,2.2l.49-.49a33,33,0,0,1,3.47,2.21c-.24.16-.49.37-.73.53-1.92,1.35-.08,4.53,1.84,3.18.61-.44,1.26-.89,1.87-1.34.78.69,1.52,1.39,2.21,2.08-.49.24-.94.49-1.43.73-2.12,1.11-.24,4.25,1.84,3.19.69-.37,1.39-.7,2-1.06a39,39,0,0,1,3,4.36l-1.43.49c-2.2.78-1.27,4.33,1,3.56L152,86c.45,1,.9,2,1.27,3-.94.17-1.88.37-2.82.61-2.28.62-1.3,4.17,1,3.56a27.19,27.19,0,0,1,3-.66c.25.94.49,1.88.7,2.82a7.49,7.49,0,0,0-.9.08,1.89,1.89,0,0,0-1.84,1.84,1.86,1.86,0,0,0,1.84,1.84c.49,0,1-.09,1.51-.09.08.49.12.94.16,1.43-.53-.12-1.1-.2-1.63-.32-2.33-.45-3.31,3.06-1,3.55.94.2,1.88.36,2.82.57,0,1,0,1.92,0,2.9-.78-.21-1.51-.37-2.29-.57-2.29-.58-3.27,2.94-1,3.55l2.94.73c-.12,1-.29,2.08-.49,3.1a2,2,0,0,0-1.76,1.39,1.8,1.8,0,0,0,.94,2.08c-.12.49-.28,1-.4,1.47-.21,0-.41,0-.66-.08a1.48,1.48,0,0,0-2,.37c-.86,1.1-1.71,2.25-2.49,3.39l0,0A9.7,9.7,0,0,1,146.1,120a2.66,2.66,0,0,0-.58-.58c.21-.65.37-1.34.53-2a1.7,1.7,0,0,0,.33.41c.45.37.9.7,1.35,1.06a1.87,1.87,0,0,0,2.61,0,1.85,1.85,0,0,0,.53-1.3,1.73,1.73,0,0,0-.53-1.31c-.45-.37-.9-.69-1.35-1.06a1.92,1.92,0,0,0-1.3-.53,1.74,1.74,0,0,0-1.1.37c.16-.9.32-1.76.44-2.66a1.72,1.72,0,0,0,.74.78c1.1.61,2.16,1.26,3.27,1.88a1.84,1.84,0,0,0,1.83-3.19c-1.1-.61-2.16-1.26-3.26-1.88a1.76,1.76,0,0,0-2.37.53c.16-1.3.24-2.57.28-3.87.09,0,.17.12.25.12.37.16.69.28,1.06.45l.45.2a2,2,0,0,0,1,0,1.91,1.91,0,0,0,1.31-2.28,1.85,1.85,0,0,0-.86-1.11c-.37-.16-.7-.28-1.06-.45l-.45-.2a2,2,0,0,0-1,0,1.86,1.86,0,0,0-.82.49,2.07,2.07,0,0,0-.65-.45c-.53-.24-1.06-.49-1.59-.69l2,.12a1.84,1.84,0,0,0,0-3.67L144.59,99a1.85,1.85,0,0,0-1.84,1.84,1.68,1.68,0,0,0,.24.9c-.41-.21-.85-.37-1.26-.57a35.87,35.87,0,0,0,1-8.54,1.68,1.68,0,0,0,1.39.66,9.55,9.55,0,0,0,3.79-1.15A1.85,1.85,0,1,0,146.05,89a5.48,5.48,0,0,1-1.91.65,1.93,1.93,0,0,0-1.47.78,43.28,43.28,0,0,0-.62-4.57,1.45,1.45,0,0,0-.57-1c.49-.29,1-.53,1.47-.82a1.85,1.85,0,1,0-1.88-3.18c-.57.28-1.1.61-1.67.89a1.86,1.86,0,0,0-.65,2.54,0,0,0,0,0,0,0c-2.25-.09-4.49-.21-6.74-.37a6.3,6.3,0,0,0,.57-1.35,1.8,1.8,0,0,0-1.26-2.24,1.84,1.84,0,0,0-2.25,1.26,3,3,0,0,1-.12.33,2.71,2.71,0,0,0-.16.37,1.46,1.46,0,0,1-.21.32l-.24.29a1.65,1.65,0,0,0-.41.69q-9.06-.85-18-2.57a1.84,1.84,0,0,0,1.34-1.76V76.71a1.84,1.84,0,0,0-3.67,0v2.57a1.92,1.92,0,0,0,.73,1.47c-2.61-.53-5.22-1.14-7.83-1.75a1.86,1.86,0,0,0,.94-2.12l-.74-2.58A1.79,1.79,0,0,0,98.5,73a1.83,1.83,0,0,0-1.27,2.24L98,77.86a1.81,1.81,0,0,0,.29.57c-1.8-.49-3.59-1-5.39-1.51A.91.91,0,0,1,93,76.59Zm-18,41.4c-1.55,5.92-2.94,12-2.69,18.16-5.76,1-8-6.08-7.59-10.69.44-5,5.34-10.41,10.36-7.8A1.21,1.21,0,0,0,75.06,118Zm41.77,46.29c-11.19,2.24-23.31-.74-31.6-8.7a30.59,30.59,0,0,1-8.09-13.18c-1.83-6-1.14-12.17.17-18.17,1.43-6.45,3.3-12.82,5-19.19q.92-3.54,1.84-7.1l.12-.12a8.37,8.37,0,0,1,12-.29c1.72,1.64,4.33-1,2.61-2.61a12.14,12.14,0,0,0-13.22-2.49c.57-2,1.18-3.88,1.83-5.8A34.37,34.37,0,0,1,90.7,80a188.25,188.25,0,0,0,48.09,8,30.86,30.86,0,0,1-.94,13.76,1.84,1.84,0,0,0,.86,2.08c1.75.77,3.47,1.55,5.22,2.33a51.24,51.24,0,0,1-4.45,19.1,45,45,0,0,1-2.24,4.37c-.78,1.35-2.29,2.94-2.33,4.57-.08,3.15,3.8,5.15,6,6.94a1,1,0,0,0,.25.17,1.62,1.62,0,0,0-.78,2.49,12.22,12.22,0,0,0,4.08,3.71C137.16,155.83,127.73,162.08,116.83,164.28ZM160.26,139a12,12,0,0,1-7.8,6.29,8.92,8.92,0,0,1-8.85-3.11,1.53,1.53,0,0,0,1.51-1.3,44,44,0,0,1,8.16-18.33c3.72.41,6.82,2.36,8.12,6C162.63,131.91,161.89,135.83,160.26,139Z"/><path class="cls-4" d="M88,108.92h-.16a5.4,5.4,0,0,0-5.55,1.47c-.9,1,.57,2.41,1.43,1.43a7.21,7.21,0,0,1,.61-.53c-1,2.41.25,5.8,3.63,5.8C93.31,117.09,93.31,108.92,88,108.92Z"/><path class="cls-4" d="M135.2,100.27a14.67,14.67,0,0,0-20.29-4.78c-2,1.23-.17,4.41,1.83,3.19A10.94,10.94,0,0,1,132,102.15C133.28,104.15,136.46,102.31,135.2,100.27Z"/><path class="cls-4" d="M124.09,112a6.53,6.53,0,0,0-9-1.71c-1.06.73,0,2.53,1,1.76a4.68,4.68,0,0,1,1.19-.58c-1.92,2.33-.94,6.86,3,6.86,3.14,0,4.4-2.94,3.79-5.26A.86.86,0,0,0,124.09,112Z"/><path class="cls-4" d="M156.75,129.42c-3.39-.29-5.55,2.36-6.82,5.18-1,2.33-2.32,6,.74,7.43,2.69,1.23,5-2,5.35-4.24a3.84,3.84,0,0,0-3.11-4.41,4.19,4.19,0,0,1,3.84-1.92C158.06,131.58,158.06,129.54,156.75,129.42Zm-3.59,10a1.54,1.54,0,0,1-2.21.28c-.53-.69-.08-1.75.13-2.49a14.88,14.88,0,0,1,.61-1.67.15.15,0,0,0,.12,0C154.42,134.52,154.22,138.15,153.16,139.46Z"/><path class="cls-4" d="M69.23,121.5c-.82-1-2.25.4-1.43,1.43A13.29,13.29,0,0,1,69,124.8a6.27,6.27,0,0,0-1.47,5.39c.25,1.39,1.88,3,3.35,2.17,1.63-.94,1.39-3.19,1.1-4.78A13.32,13.32,0,0,0,69.23,121.5Zm.24,8.16a3.56,3.56,0,0,1,.33-2.49c.08.41.16.86.2,1.27S70,131.38,69.47,129.66Z"/><path class="cls-4" d="M91.35,131.5c2.49,2.65,7.47,1.88,10.78.81,3.1,1.8,7.22,1.35,8.49-2.4,1.06-3.11-2.9-6-5.51-4.09-1,.78,0,2.58,1,1.76,1.55-1.18,3.06.69,2.33,2.24-1,2.21-3.84,1.64-5.47.62a.91.91,0,0,0-.78-.13.8.8,0,0,0-.61,0c-2.66.86-5.51,1.76-8.08.21a2.94,2.94,0,0,1-.62-4.61c1.31-1.6,3.68-1.35,5.35-.62,1.18.53,2.25-1.22,1-1.75a7.28,7.28,0,0,0-6.69,0,5.11,5.11,0,0,0-2.53,5.1,5.73,5.73,0,0,0,.28,1,1.75,1.75,0,0,1-1.55-3.1c1-.9-.49-2.33-1.43-1.43a3.94,3.94,0,0,0-.57,5.14A3.71,3.71,0,0,0,91.35,131.5Z"/><path class="cls-4" d="M99,118.76a13.87,13.87,0,0,0,1.18-15.63,1,1,0,0,0-1.76,1,11.71,11.71,0,0,1-.85,13.14C96.7,118.35,98.17,119.78,99,118.76Z"/><path class="cls-4" d="M113.93,142.23c-3.35-2.12-6.66-4.32-10.09-6.36-1.75-1-4.24-1.35-5.71,0-2-2.94-8,.4-10.41,1.26-1.23.45-.7,2.41.53,2s7.92-3.67,8.41-1.51a.9.9,0,0,0,.86.74.88.88,0,0,0,1.51-.21c1.26-2.9,5.22.37,6.77,1.35,2.37,1.51,4.74,3,7.07,4.49A1,1,0,0,0,113.93,142.23Z"/><path class="cls-4" d="M90.21,141.58a67.79,67.79,0,0,0,17,3c1.31.08,1.31-2,0-2a65.49,65.49,0,0,1-16.41-2.94A1,1,0,0,0,90.21,141.58Z"/><path class="cls-4" d="M109.68,146.68c-4.16,1.92-8.53,3.84-13.18,2.78-4.13-.9-5.27-4.94-8.41-7.14-1.11-.78-2.09,1-1,1.75,2,1.35,3,3.68,4.74,5.23a10.36,10.36,0,0,0,5.39,2.32c4.73.82,9.35-1.3,13.55-3.22C111.93,147.91,110.91,146.15,109.68,146.68Z"/><path class="cls-4" d="M121.4,74.75a1.87,1.87,0,0,0,1.83-1.83,15.24,15.24,0,0,0,0-4.37,1.84,1.84,0,1,0-3.67,0,16,16,0,0,1,0,4.37A1.85,1.85,0,0,0,121.4,74.75Z"/><path class="cls-4" d="M111,72.14a1.84,1.84,0,1,0,3.67,0,10.91,10.91,0,0,0-.53-4.12c-.69-2.25-4.25-1.31-3.55,1A7.57,7.57,0,0,1,111,72.14Z"/><path class="cls-4" d="M104.29,74.75A1.87,1.87,0,0,0,106.54,76a1.8,1.8,0,0,0,1.26-2.25c-.4-1.14-.77-2.32-1.18-3.47A1.85,1.85,0,0,0,104.37,69a1.8,1.8,0,0,0-1.26,2.24C103.48,72.43,103.88,73.57,104.29,74.75Z"/><path class="cls-4" d="M128.7,74.06a6,6,0,0,0,1.84-3.35,1.85,1.85,0,0,0-1.26-2.24A1.81,1.81,0,0,0,127,69.73a5.21,5.21,0,0,1-.16.66.31.31,0,0,0,0,.12s0,.12-.08.16a1.81,1.81,0,0,0-.25.41c-.12.12-.24.29-.37.41a1.87,1.87,0,0,0,0,2.61A1.9,1.9,0,0,0,128.7,74.06Z"/><path class="cls-4" d="M113.44,78.14a1.8,1.8,0,0,0,1.26,2.25A1.85,1.85,0,0,0,117,79.12a13,13,0,0,0,.81-4.86c0-2.36-3.71-2.36-3.67,0A9,9,0,0,1,113.44,78.14Z"/><path class="cls-4" d="M120.3,82.06a1.81,1.81,0,0,0,2.24-1.26c.16-.9.29-1.8.45-2.7a1.87,1.87,0,0,0-1.27-2.24,1.81,1.81,0,0,0-2.24,1.26c-.16.9-.29,1.8-.45,2.7A1.86,1.86,0,0,0,120.3,82.06Z"/><path class="cls-4" d="M125,82.75a1.89,1.89,0,0,0,2.53-.65c.45-1,.9-2,1.35-3a1.85,1.85,0,0,0-3.19-1.88l-1.34,3A1.88,1.88,0,0,0,125,82.75Z"/><path class="cls-4" d="M131.73,77.33a1.91,1.91,0,0,0,2.53-.66c.61-.86,1.22-1.71,1.79-2.57a1.86,1.86,0,0,0-.65-2.53,1.91,1.91,0,0,0-2.53.65c-.61.86-1.23,1.72-1.8,2.57A1.89,1.89,0,0,0,131.73,77.33Z"/><path class="cls-4" d="M134,82.18a1.85,1.85,0,0,0,2.61,0c.82-.73,1.6-1.51,2.41-2.24a1.85,1.85,0,1,0-2.61-2.61c-.82.73-1.59,1.51-2.41,2.24A1.87,1.87,0,0,0,134,82.18Z"/><path class="cls-4" d="M146.1,94.19A1.82,1.82,0,0,0,144.26,96a1.89,1.89,0,0,0,1.84,1.84l2.69.12a1.83,1.83,0,0,0,1.84-1.83,1.88,1.88,0,0,0-1.84-1.84Z"/></svg>