<svg id="圖層_1" data-name="圖層 1" xmlns="http://www.w3.org/2000/svg" viewBox="0 0 226.77 226.77"><defs><style>.cls-1{fill:#8ba0ab;}.cls-2{fill:#aebec3;}.cls-3{fill:#f8c985;}.cls-4{fill:#fbddb0;}.cls-5{fill:#556f79;}</style></defs><path class="cls-1" d="M107.69,77.2h0a5.88,5.88,0,0,1,2.21-2.37,9.45,9.45,0,0,0-1.76-1.59,6.59,6.59,0,0,0-3.47,4A19,19,0,0,1,107.69,77.2Z"/><path class="cls-2" d="M140,67.11a25,25,0,0,1,5.31,13.48c.2,2.36-3.47,2.32-3.67,0a20.91,20.91,0,0,0-23.44-18.78A19.4,19.4,0,0,1,125,69.07c2.74,4.86,4.82,11.72,10.49,14,2.17.85,1.23,4.4-1,3.55-4.73-1.88-7.67-5.92-9.92-10.33s-4.32-9.51-9-11.76a12.59,12.59,0,0,0-16.33,4,9.07,9.07,0,0,1,2.08-.61c5.68-.9,10.54,2.65,13.27,7.43,3.19,5.59,4.61,12,9.76,16.29a21.37,21.37,0,0,0,19,4.33c2.29-.58,3.27,3,1,3.55A25.6,25.6,0,0,1,134,99.9a16.2,16.2,0,0,0,1.1,2.61,1.29,1.29,0,0,1,.45.73,12.73,12.73,0,0,0,6.09,4.86c2.2.82,1.26,4.37-1,3.55a16.18,16.18,0,0,1-4.78-2.73A60.51,60.51,0,0,1,134.11,119a43.92,43.92,0,0,0-1.43,9.19A10.14,10.14,0,0,1,137.9,124a32.71,32.71,0,0,1,1.39-6.53c.41-1.27,2.37-.69,2,.53a30.36,30.36,0,0,0-1.27,5.63h.53l1.39-.12a32.74,32.74,0,0,1,4.49-11.35c.7-1.1,2.45-.08,1.76,1A32,32,0,0,0,144,123.57a12.8,12.8,0,0,1,4.74,1.27,34.64,34.64,0,0,0,7.88-31.31c-.33-1.27,1.67-1.84,2-.53a36.91,36.91,0,0,1-8.08,32.94c.16.12.28.2.44.33a13.41,13.41,0,0,1,1.31,1.3c11.19-8.16,12.25-23.67,9-36.13C158.4,80.63,151.5,69.11,140,67.11Zm-6.69,13.48L128.68,75c-.82-1,.61-2.45,1.42-1.43,1.56,1.88,3.07,3.72,4.62,5.6C135.53,80.14,134.11,81.61,133.29,80.59Zm-4.82,5.47a8.34,8.34,0,0,0,7,1.59c1.27-.29,1.84,1.71.53,2a10.72,10.72,0,0,1-9-2.12C126,86.67,127.45,85.24,128.47,86.06Zm9.35,7.47A19.07,19.07,0,0,1,117.73,79c-.32-1.26,1.68-1.83,2-.53a17,17,0,0,0,18.13,13.07C139.13,91.4,139.09,93.45,137.82,93.53Zm0-10.33a16.25,16.25,0,0,0-5.47-11.31c-1-.9.45-2.33,1.43-1.43a18.24,18.24,0,0,1,6,12.74C139.94,84.5,137.9,84.5,137.82,83.2Zm10-1.14c-.57-1.19,1.18-2.21,1.76-1,1,2.17,2,4.37,3.06,6.54.57,1.18-1.19,2.2-1.76,1C149.82,86.42,148.8,84.26,147.78,82.06Zm2.53,37c-.73,1.1-2.49.08-1.75-1a20,20,0,0,0,3.55-10.9c0-1.31,2.08-1.31,2,0A22,22,0,0,1,150.31,119Zm3.06-33.92a18.65,18.65,0,0,0-5.3-8.9c-.94-.9.49-2.37,1.43-1.43a21.17,21.17,0,0,1,5.83,9.8A1,1,0,0,1,153.37,85.12Z"/><path class="cls-1" d="M109.94,77.44a19.56,19.56,0,0,1,2.08.49c-.29-.53-.57-1-.9-1.51A4.65,4.65,0,0,0,109.94,77.44Z"/><path class="cls-3" d="M142.43,138.92h0c-.2.49-.37,1-.53,1.47s-.57,1.55-.12,2.17a1.1,1.1,0,0,0,1.75-.21C144.43,141.29,144.8,138,142.43,138.92Z"/><path class="cls-1" d="M99.94,72.34a6.09,6.09,0,0,0-2.37,6.82c.49-.25,1-.45,1.47-.66a9.78,9.78,0,0,1,1.3-6.45A2.58,2.58,0,0,1,99.94,72.34Z"/><path class="cls-1" d="M85.85,79.85a3.47,3.47,0,0,0-1.06,5.43,29.07,29.07,0,0,1,4-5.8A4.54,4.54,0,0,0,85.85,79.85Z"/><path class="cls-2" d="M82.91,89.08c.08-.17.12-.29.21-.45a7.14,7.14,0,0,1-.45-11.07c2.81-2.61,7-2,10.61-.61,0-.49,0-1,0-1.47h0a8.91,8.91,0,0,0-10.37-.08c-1.1.74-2.12-1-1-1.75a10.88,10.88,0,0,1,11.68-.41,4.89,4.89,0,0,1,.16-.74,1.1,1.1,0,0,1-.41-.24,4,4,0,0,0-1.83-1.1,1,1,0,0,1,.53-2,6.32,6.32,0,0,1,2.32,1.22,18.61,18.61,0,0,1,1-2.29h0c-.81-.61-1.67-1.18-2.49-1.79A1.05,1.05,0,0,1,92.51,65a1,1,0,0,1,1.38-.37c.82.62,1.68,1.19,2.49,1.8l.05,0a17.72,17.72,0,0,1,3.75-3.88,13.55,13.55,0,0,0-13.06,3.55,19.46,19.46,0,0,1,2.16,0c2.33.21,2.37,3.88,0,3.68-5-.41-10.41,2.86-11.43,8A10.79,10.79,0,0,0,82.91,89.08Z"/><path class="cls-4" d="M64,129.61c-.37,4.09,1.51,10.33,6.53,9.6a44.48,44.48,0,0,1,1.23-11.55c.37-1.64.77-3.27,1.18-4.94C68.62,120.67,64.42,125.29,64,129.61Zm5.35,6.45c-1.39.78-2.94-.69-3.19-2a5.78,5.78,0,0,1,1.31-4.9,9.4,9.4,0,0,0-1-1.63c-.82-1,.65-2.49,1.43-1.43a11.81,11.81,0,0,1,2.49,5.6C70.67,133.13,70.87,135.21,69.36,136.06Z"/><path class="cls-1" d="M101,77.89l1.51-.37a.68.68,0,0,1,0-.28A8.77,8.77,0,0,1,106.14,72a7.91,7.91,0,0,0-2.49-.65A7.65,7.65,0,0,0,101,77.89Z"/><path class="cls-3" d="M131.82,146.27s0,0,0-.08c-11.47,12-30.09,19.43-45.68,13.51A32.2,32.2,0,0,0,107,165.09c11.26-.94,21.18-7.06,28.49-15.51A10.81,10.81,0,0,1,131.82,146.27Z"/><path class="cls-3" d="M95,85.73c4.49-2,11.83-5.72,13.06-3.27,3.67,7.35,8.57,18,18.37,17.56,1.31-.21,2.61-.08,3.84-.25-.08-.28-.13-.61-.21-.94a23.85,23.85,0,0,1-13.75-11.59c-1.07-2-2-4.45-3-6.78A18.06,18.06,0,0,0,97.2,81.65a.85.85,0,0,1-.61.12A1.77,1.77,0,0,1,95,81.69c-.57-.29-1.35-.7-2.21-1.06a14.83,14.83,0,0,0-2,2c0,.08-.12.16-.16.24C92,84.67,93.93,86.1,95,85.73Z"/><path class="cls-4" d="M147.82,128.47a11.7,11.7,0,0,0-10-.45s0,0-.08,0c-2.37,1.51-3.76,4.82-3.84,7.43-.08,2.21-2.81,2.33-3.59.49-4.45-10.57,3.43-20.94,1.71-31.59a18.41,18.41,0,0,1-1.83-4.62c-1.23.13-2.53,0-3.84.25-9.8.41-14.7-10.21-18.37-17.56C106.79,80,99.45,83.69,95,85.73c-1.07.37-3-1.1-4.29-2.78-3.47,4.49-5.84,10.21-7.43,15.6-.08.32-.21.69-.29,1A11.11,11.11,0,0,1,94.75,102c1.72,1.63-.9,4.24-2.61,2.61a7.39,7.39,0,0,0-10.62.29,0,0,0,0,1,0,0c-1.1,4.08-2.16,8.2-3.26,12.33-1.68,6.32-3.92,12.81-4.08,19.39A26.06,26.06,0,0,0,78.42,152a29.35,29.35,0,0,0,7.64,7.75c15.59,5.92,34.21-1.47,45.68-13.51-1.23-1.92,1.88-3.67,3.22-1.76a8,8,0,0,0,9.39,2.53,11.79,11.79,0,0,0,6.7-8.24C151.86,135.13,151.33,130.51,147.82,128.47ZM95,122.88a22.45,22.45,0,0,0,1.1-11.23c-.21-1.3,1.75-1.83,2-.53.69,4.61.53,10.74-2.25,14.74-1.34,2-2.85,2.16-5,2.94-2.73,1-1.22,4,1.06,4.28a9.05,9.05,0,0,0,4.86-1,1.07,1.07,0,0,1,.61,0,1,1,0,0,1,1.19.41,1.89,1.89,0,0,0,3.3,0c.17-.32.33-1.26-.32-1.06a1,1,0,0,1-.53-2c2.9-.82,3.88,3,2.12,4.78a4,4,0,0,1-5.88-.08c-2.73,1.14-5.8,1.75-8.33-.17-1.59-1.22-2.24-4-.89-5.59a5.81,5.81,0,0,1,3.47-1.76C93.44,126,94.3,124.76,95,122.88Zm-14-5.31c-.89.78-2.2-.61-1.34-1.51a4.84,4.84,0,0,1,4.16-1.55,4.19,4.19,0,0,1,1-.12c5.27,0,5.27,8.16,0,8.16C81.81,122.55,80.54,119.86,81,117.57Zm21.68,32.66c-.16,0-.37,0-.53.08-.49,1.15-2,1.23-2.69,1.55a5.28,5.28,0,0,1-7.35-2.12,8.41,8.41,0,0,1-1-.28c-1.27-.41-.74-2.37.53-2a21.83,21.83,0,0,0,10.49.77C103.45,148,104,150,102.67,150.23Zm6.57-5.88a30.12,30.12,0,0,1-22.53-1.47c-2.12-1-.29-4.16,1.84-3.18a26.58,26.58,0,0,0,19.71,1.1C110.51,140,111.45,143.58,109.24,144.35ZM114,123.61c-3.55,0-4.7-3.71-3.47-6.12a1,1,0,0,0-.25.16c-1.1.74-2.12-1-1-1.75a6,6,0,0,1,6.58,0,3.76,3.76,0,0,1,1.51,1.39c.08.08.12.16.2.24a.91.91,0,0,1,.16.53C118.51,120.39,117.29,123.61,114,123.61Zm10.41-14.86a9.67,9.67,0,0,0-13.51-3.06c-2,1.27-3.88-1.92-1.84-3.18a13.46,13.46,0,0,1,18.57,4.37C128.84,108.88,125.65,110.75,124.39,108.75Zm22.49,26.5a3.55,3.55,0,0,0-3.26,1.55,3.54,3.54,0,0,1,2.69,4.08c-.33,2.08-2.41,5-4.9,3.92-2.9-1.26-1.71-4.69-.77-6.86,1.14-2.57,3.14-5,6.24-4.73C148.19,133.29,148.19,135.33,146.88,135.25Z"/><path class="cls-4" d="M92.1,149.74a5.28,5.28,0,0,0,7.35,2.12c.65-.32,2.16-.4,2.69-1.55A24.46,24.46,0,0,1,92.1,149.74Z"/><path class="cls-4" d="M68.34,131.57a2.77,2.77,0,0,0-.16,1.92c.4,1.39.32-.81.32-1.06A6.21,6.21,0,0,1,68.34,131.57Z"/><path class="cls-1" d="M78.79,100.75a80.61,80.61,0,0,1,2.65-8.28c-.32-.21-.69-.41-1-.62A41.69,41.69,0,0,0,78.79,100.75Z"/><path class="cls-5" d="M84.83,114.39a4.19,4.19,0,0,0-1,.12,4.84,4.84,0,0,0-4.16,1.55c-.86.94.45,2.33,1.34,1.51-.45,2.29.82,5,3.88,5C90.1,122.55,90.1,114.39,84.83,114.39Z"/><path class="cls-5" d="M109,102.51c-2,1.22-.16,4.41,1.84,3.18a9.67,9.67,0,0,1,13.51,3.06c1.26,2,4.45.17,3.18-1.83A13.38,13.38,0,0,0,109,102.51Z"/><path class="cls-5" d="M117.49,117.49a1.06,1.06,0,0,0-.2-.24,3.76,3.76,0,0,0-1.51-1.39,5.93,5.93,0,0,0-6.58,0c-1.06.73,0,2.53,1,1.75a.76.76,0,0,0,.25-.16c-1.23,2.41-.08,6.12,3.47,6.12,3.31,0,4.53-3.22,3.67-5.59A.66.66,0,0,0,117.49,117.49Z"/><path class="cls-5" d="M146.88,133.21c-3.1-.29-5.1,2.12-6.24,4.73-.94,2.17-2.13,5.6.77,6.86,2.49,1.06,4.57-1.84,4.9-3.92a3.57,3.57,0,0,0-2.69-4.08,3.64,3.64,0,0,1,3.26-1.55C148.19,135.33,148.19,133.29,146.88,133.21Zm-3.39,9.14a1.1,1.1,0,0,1-1.75.21c-.45-.62-.08-1.56.12-2.17.16-.45.33-1,.53-1.47h0C144.8,138,144.43,141.29,143.49,142.35Z"/><path class="cls-5" d="M67.89,126.06c-.82-1-2.25.41-1.43,1.43a9.4,9.4,0,0,1,1,1.63,6,6,0,0,0-1.31,4.9c.21,1.31,1.76,2.82,3.19,2s1.31-2.93,1.06-4.4A12.09,12.09,0,0,0,67.89,126.06Zm.29,7.43a2.79,2.79,0,0,1,.16-1.92,6.58,6.58,0,0,1,.12.86C68.5,132.64,68.58,134.88,68.18,133.49Z"/><path class="cls-5" d="M88,128.31c-1.34,1.63-.69,4.37.9,5.59,2.53,2,5.6,1.31,8.33.16a4,4,0,0,0,5.88.09c1.75-1.8.77-5.6-2.12-4.78a1,1,0,0,0,.53,2c.65-.2.49.73.32,1.06a1.92,1.92,0,0,1-1,.86,1.9,1.9,0,0,1-2.28-.86,1,1,0,0,0-1.19-.41,1.1,1.1,0,0,0-.61,0,9.44,9.44,0,0,1-4.86,1c-2.28-.32-3.79-3.3-1.06-4.28,2.12-.74,3.63-.94,5-2.94,2.78-4,2.94-10.13,2.25-14.74-.21-1.31-2.17-.73-2,.53A23.45,23.45,0,0,1,95,122.84c-.66,1.88-1.56,3.14-3.56,3.63A6.36,6.36,0,0,0,88,128.31Z"/><path class="cls-5" d="M108.26,140.8a26.39,26.39,0,0,1-19.71-1.1c-2.13-1-4,2.16-1.84,3.18a30.34,30.34,0,0,0,22.53,1.47C111.45,143.58,110.51,140,108.26,140.8Z"/><path class="cls-5" d="M102.14,148.27a21.83,21.83,0,0,1-10.49-.77c-1.27-.41-1.8,1.55-.53,2a24.34,24.34,0,0,0,11.59.77C104,150,103.45,148,102.14,148.27Z"/><path class="cls-5" d="M136.19,63.11h-.13c-.32-.24-.65-.53-1-.77-6.32-4.74-15.14-5.64-22.49-3a2.22,2.22,0,0,0-.53.28,15.94,15.94,0,0,0-7.67.7,17.33,17.33,0,0,0-23.15,7.63,14.59,14.59,0,0,0-6.86,8.45,14,14,0,0,0,3.06,12.86,43.38,43.38,0,0,0-1.59,22.7l-2,7.26a9.93,9.93,0,0,0-7.55.54c-3.35,1.55-5.23,5.38-5.84,8.81-1.18,6.66,2.94,15.35,10.41,14.33.12.78.29,1.55.49,2.33,2.49,9.92,10.37,17.68,19.72,21.35,10.41,4.08,22.29,2.53,32-2.45a49.82,49.82,0,0,0,15.19-12.33,2,2,0,0,0,.45-.86,13.13,13.13,0,0,0,5.51,0c5.1-1.1,8.7-5.83,10.17-10.57a14.74,14.74,0,0,0-.33-9.55c12.49-9.06,14.17-25.48,10.82-39.6C161.66,77.32,151.82,63,136.19,63.11ZM71.77,127.66a44.12,44.12,0,0,0-1.23,11.55c-5,.77-6.9-5.51-6.53-9.6.41-4.32,4.61-9,8.94-6.85C72.54,124.39,72.14,126,71.77,127.66Zm6-49.81c1-5.18,6.37-8.45,11.43-8,2.37.2,2.33-3.47,0-3.68a19.45,19.45,0,0,0-2.16,0,13.54,13.54,0,0,1,13.06-3.55,15.41,15.41,0,0,0-3.76,3.88l0,0c-.81-.61-1.67-1.18-2.49-1.8a1,1,0,0,0-1.38.37,1,1,0,0,0,.36,1.39c.82.61,1.68,1.18,2.49,1.8h0a14.65,14.65,0,0,0-1,2.28A6,6,0,0,0,92,69.24a1,1,0,0,0-.54,2,4,4,0,0,1,1.84,1.1.86.86,0,0,0,.41.24,4.89,4.89,0,0,1-.16.74,10.9,10.9,0,0,0-11.68.41c-1.06.73,0,2.49,1,1.75a8.91,8.91,0,0,1,10.37.08h0a9,9,0,0,0,0,1.47c-3.59-1.34-7.76-2-10.61.62a7.15,7.15,0,0,0,.45,11.06c-.09.16-.13.28-.21.45A11,11,0,0,1,77.81,77.85Zm21.27.69c-.49.21-1,.41-1.47.66A6.09,6.09,0,0,1,100,72.38c.16-.08.28-.2.45-.29A9.3,9.3,0,0,0,99.08,78.54Zm-10.25.94a29.07,29.07,0,0,0-4,5.8,3.45,3.45,0,0,1,1.06-5.43A4.54,4.54,0,0,1,88.83,79.48Zm-7.39,13a71.87,71.87,0,0,0-2.65,8.28,39,39,0,0,1,1.67-8.9A4.29,4.29,0,0,0,81.44,92.47Zm69.65,46.25a11.54,11.54,0,0,1-6.7,8.24,8,8,0,0,1-9.39-2.53c-1.34-1.91-4.53-.08-3.18,1.84a11.53,11.53,0,0,0,3.59,3.31c-7.27,8.45-17.19,14.57-28.49,15.51s-22.25-3.71-28.5-13.1a26.06,26.06,0,0,1-4.28-15.31c.16-6.58,2.4-13.11,4.08-19.39,1.1-4.09,2.16-8.21,3.26-12.33l0,0a7.39,7.39,0,0,1,10.62-.29c1.71,1.63,4.33-1,2.61-2.61A11.11,11.11,0,0,0,83,99.61c.08-.33.21-.69.29-1,1.59-5.51,4-11.31,7.59-15.84a14.83,14.83,0,0,1,2-2c.86.37,1.59.73,2.21,1.06a1.71,1.71,0,0,0,1.55.08.85.85,0,0,0,.61-.12,18.27,18.27,0,0,1,16.08-1.18c1,2.32,1.92,4.73,3,6.77A24.19,24.19,0,0,0,130,99a18.11,18.11,0,0,0,2,5.55c1.72,10.65-6.16,21-1.71,31.6.77,1.83,3.55,1.71,3.59-.49.08-2.62,1.47-5.92,3.84-7.43,0,0,0,0,.08,0a11.52,11.52,0,0,1,10,.44C151.33,130.51,151.86,135.13,151.09,138.72ZM102.55,77.24a.78.78,0,0,0,0,.28,11.86,11.86,0,0,0-1.51.37,7.65,7.65,0,0,1,2.61-6.53,7.91,7.91,0,0,1,2.49.65A8.62,8.62,0,0,0,102.55,77.24Zm5.59-4a13.44,13.44,0,0,1,1.76,1.59,6.22,6.22,0,0,0-2.17,2.33v0a19,19,0,0,0-3,0A6.19,6.19,0,0,1,108.14,73.2Zm1.8,4.24a4,4,0,0,1,1.18-1c.33.49.61,1,.9,1.51C111.33,77.73,110.63,77.61,109.94,77.44Zm42.29,50.09a9.47,9.47,0,0,0-1.31-1.3,2.52,2.52,0,0,0-.44-.33A36.74,36.74,0,0,0,158.56,93a1,1,0,0,0-2,.53,34.78,34.78,0,0,1-7.88,31.31,12.41,12.41,0,0,0-4.74-1.27,32,32,0,0,1,4.17-10.37c.69-1.1-1.06-2.12-1.76-1a33.05,33.05,0,0,0-4.49,11.35c-.45,0-.9,0-1.39.12H140a30.36,30.36,0,0,1,1.27-5.63c.41-1.27-1.55-1.8-2-.53A33.32,33.32,0,0,0,137.9,124a10,10,0,0,0-5.22,4.21,43.82,43.82,0,0,1,1.43-9.19,62.14,62.14,0,0,0,1.75-10.12,16.18,16.18,0,0,0,4.78,2.73c2.24.82,3.18-2.73,1-3.55a12.73,12.73,0,0,1-6.09-4.86,1.63,1.63,0,0,0-.45-.73,12.18,12.18,0,0,1-1.1-2.62,25.42,25.42,0,0,0,10.37-.4c2.29-.58,1.31-4.13-1-3.56a21.36,21.36,0,0,1-19-4.32c-5.1-4.33-6.53-10.74-9.76-16.29C111.86,70.5,107,67,101.32,67.85a9.07,9.07,0,0,0-2.08.61,12.59,12.59,0,0,1,16.33-4c4.7,2.25,6.78,7.39,9,11.76s5.19,8.45,9.92,10.33c2.21.85,3.15-2.7,1-3.56-5.67-2.24-7.75-9.1-10.49-14a19.4,19.4,0,0,0-6.82-7.26,20.92,20.92,0,0,1,23.44,18.78c.2,2.32,3.87,2.36,3.67,0A25.28,25.28,0,0,0,140,67.07c11.52,2,18.46,13.56,21.27,24.33C164.52,103.9,163.42,119.37,152.23,127.53Z"/><path class="cls-5" d="M152.11,107.08a20.07,20.07,0,0,1-3.55,10.9c-.74,1.1,1,2.12,1.75,1a22.2,22.2,0,0,0,3.84-12C154.19,105.77,152.15,105.77,152.11,107.08Z"/><path class="cls-5" d="M137.82,91.49a17.07,17.07,0,0,1-18.13-13.07,1,1,0,0,0-2,.53,19.11,19.11,0,0,0,20.09,14.58C139.09,93.45,139.13,91.4,137.82,91.49Z"/><path class="cls-5" d="M127,87.49a10.72,10.72,0,0,0,9,2.12c1.31-.29.74-2.25-.53-2a8.48,8.48,0,0,1-7-1.59C127.45,85.24,126,86.67,127,87.49Z"/><path class="cls-5" d="M133.82,70.46c-1-.86-2.41.57-1.43,1.43a16.25,16.25,0,0,1,5.47,11.31c.08,1.3,2.12,1.3,2,0A18.44,18.44,0,0,0,133.82,70.46Z"/><path class="cls-5" d="M130.1,73.56c-.85-1-2.28.45-1.42,1.43l4.61,5.6c.86,1,2.28-.45,1.43-1.43C133.17,77.28,131.66,75.4,130.1,73.56Z"/><path class="cls-5" d="M149.54,74.75c-.94-.9-2.41.53-1.43,1.43a18.57,18.57,0,0,1,5.3,8.9,1,1,0,0,0,2-.53A21.17,21.17,0,0,0,149.54,74.75Z"/><path class="cls-5" d="M152.64,87.57,149.58,81c-.57-1.18-2.33-.16-1.76,1,1,2.16,2,4.36,3.06,6.53C151.41,89.77,153.17,88.75,152.64,87.57Z"/></svg>